%TF.GenerationSoftware,KiCad,Pcbnew,(6.0.5)*%
%TF.CreationDate,2022-05-29T19:21:05+02:00*%
%TF.ProjectId,SolarCamPiV2,536f6c61-7243-4616-9d50-6956322e6b69,rev?*%
%TF.SameCoordinates,Original*%
%TF.FileFunction,Copper,L3,Inr*%
%TF.FilePolarity,Positive*%
%FSLAX46Y46*%
G04 Gerber Fmt 4.6, Leading zero omitted, Abs format (unit mm)*
G04 Created by KiCad (PCBNEW (6.0.5)) date 2022-05-29 19:21:05*
%MOMM*%
%LPD*%
G01*
G04 APERTURE LIST*
%TA.AperFunction,ComponentPad*%
%ADD10R,1.700000X1.700000*%
%TD*%
%TA.AperFunction,ComponentPad*%
%ADD11O,1.700000X1.700000*%
%TD*%
%TA.AperFunction,ComponentPad*%
%ADD12R,2.400000X2.400000*%
%TD*%
%TA.AperFunction,ComponentPad*%
%ADD13C,2.400000*%
%TD*%
%TA.AperFunction,ViaPad*%
%ADD14C,0.450000*%
%TD*%
%TA.AperFunction,Conductor*%
%ADD15C,0.127000*%
%TD*%
G04 APERTURE END LIST*
D10*
%TO.N,+3V3*%
%TO.C,JP1*%
X144250000Y-119425000D03*
D11*
%TO.N,/rpi_on_stm*%
X141710000Y-119425000D03*
%TD*%
D10*
%TO.N,GND3*%
%TO.C,J3*%
X150500000Y-128050000D03*
D11*
%TO.N,unconnected-(J3-Pad2)*%
X150500000Y-125510000D03*
%TO.N,unconnected-(J3-Pad3)*%
X150500000Y-122970000D03*
%TO.N,/TX*%
X150500000Y-120430000D03*
%TO.N,/RX*%
X150500000Y-117890000D03*
%TO.N,unconnected-(J3-Pad6)*%
X150500000Y-115350000D03*
%TD*%
D12*
%TO.N,/+SOLAR*%
%TO.C,SC1*%
X104100000Y-116900000D03*
D13*
%TO.N,GND*%
X104100000Y-120400000D03*
%TD*%
D12*
%TO.N,Net-(BT1-Pad1)*%
%TO.C,BT1*%
X160900000Y-113550000D03*
D13*
%TO.N,GND2*%
X160900000Y-110050000D03*
%TD*%
D10*
%TO.N,+3V3*%
%TO.C,JP4*%
X154425000Y-119100000D03*
D11*
%TO.N,/u_batt_div_on*%
X154425000Y-121640000D03*
%TD*%
D10*
%TO.N,unconnected-(J2-Pad1)*%
%TO.C,J2*%
X108400000Y-104800000D03*
D11*
%TO.N,+5V*%
X108400000Y-102260000D03*
%TO.N,/SDA*%
X110940000Y-104800000D03*
%TO.N,+5V*%
X110940000Y-102260000D03*
%TO.N,/SCL*%
X113480000Y-104800000D03*
%TO.N,GND3*%
X113480000Y-102260000D03*
%TO.N,/GPIO*%
X116020000Y-104800000D03*
%TO.N,/RX*%
X116020000Y-102260000D03*
%TO.N,GND3*%
X118560000Y-104800000D03*
%TO.N,/TX*%
X118560000Y-102260000D03*
%TO.N,Net-(J2-Pad11)*%
X121100000Y-104800000D03*
%TO.N,unconnected-(J2-Pad12)*%
X121100000Y-102260000D03*
%TO.N,Net-(J2-Pad13)*%
X123640000Y-104800000D03*
%TO.N,GND3*%
X123640000Y-102260000D03*
%TO.N,Net-(J2-Pad15)*%
X126180000Y-104800000D03*
%TO.N,unconnected-(J2-Pad16)*%
X126180000Y-102260000D03*
%TO.N,unconnected-(J2-Pad17)*%
X128720000Y-104800000D03*
%TO.N,unconnected-(J2-Pad18)*%
X128720000Y-102260000D03*
%TO.N,unconnected-(J2-Pad19)*%
X131260000Y-104800000D03*
%TO.N,GND3*%
X131260000Y-102260000D03*
%TO.N,unconnected-(J2-Pad21)*%
X133800000Y-104800000D03*
%TO.N,unconnected-(J2-Pad22)*%
X133800000Y-102260000D03*
%TO.N,unconnected-(J2-Pad23)*%
X136340000Y-104800000D03*
%TO.N,unconnected-(J2-Pad24)*%
X136340000Y-102260000D03*
%TO.N,GND3*%
X138880000Y-104800000D03*
%TO.N,unconnected-(J2-Pad26)*%
X138880000Y-102260000D03*
%TO.N,unconnected-(J2-Pad27)*%
X141420000Y-104800000D03*
%TO.N,unconnected-(J2-Pad28)*%
X141420000Y-102260000D03*
%TO.N,Net-(J2-Pad29)*%
X143960000Y-104800000D03*
%TO.N,GND3*%
X143960000Y-102260000D03*
%TO.N,unconnected-(J2-Pad31)*%
X146500000Y-104800000D03*
%TO.N,unconnected-(J2-Pad32)*%
X146500000Y-102260000D03*
%TO.N,unconnected-(J2-Pad33)*%
X149040000Y-104800000D03*
%TO.N,GND3*%
X149040000Y-102260000D03*
%TO.N,unconnected-(J2-Pad35)*%
X151580000Y-104800000D03*
%TO.N,unconnected-(J2-Pad36)*%
X151580000Y-102260000D03*
%TO.N,unconnected-(J2-Pad37)*%
X154120000Y-104800000D03*
%TO.N,unconnected-(J2-Pad38)*%
X154120000Y-102260000D03*
%TO.N,GND3*%
X156660000Y-104800000D03*
%TO.N,unconnected-(J2-Pad40)*%
X156660000Y-102260000D03*
%TD*%
D14*
%TO.N,GND2*%
X124025000Y-108075000D03*
X128250000Y-118650000D03*
X129775000Y-118225000D03*
X124025000Y-109625000D03*
X153750000Y-106975000D03*
X153750000Y-108675000D03*
X124025000Y-111150000D03*
X153750000Y-107540000D03*
X124700000Y-116950000D03*
X132425000Y-118300000D03*
X131500000Y-118500000D03*
X128250000Y-118150000D03*
X147700000Y-111400000D03*
X124025000Y-107325000D03*
X133600000Y-118300000D03*
X130750000Y-110650000D03*
X124025000Y-108850000D03*
X153750000Y-108100000D03*
X133025000Y-118300000D03*
X148400000Y-111400000D03*
X124025000Y-110375000D03*
X147000000Y-111400000D03*
X128975000Y-118125000D03*
%TO.N,GND1*%
X143450000Y-113600000D03*
X117400000Y-121000000D03*
X117400000Y-119700000D03*
X117400000Y-120350000D03*
X143450000Y-111950000D03*
X127100000Y-119200000D03*
X143450000Y-111400000D03*
X143450000Y-112500000D03*
X143450000Y-113050000D03*
X127100000Y-119900000D03*
X127100000Y-118500000D03*
%TO.N,/I_{Solar}*%
X108500000Y-129000000D03*
X118025000Y-122525000D03*
X115700000Y-124100000D03*
X115700000Y-129000000D03*
%TO.N,GND*%
X107800000Y-129000000D03*
X109550000Y-116425000D03*
X152500000Y-122900000D03*
X106962500Y-111150000D03*
X108500000Y-125398498D03*
X122950000Y-118425000D03*
X114450000Y-119675000D03*
X114450000Y-120400000D03*
X138500000Y-123400000D03*
X114082500Y-107967500D03*
X149800000Y-110100000D03*
X106950000Y-109600000D03*
X152900000Y-125200000D03*
X152150000Y-111550000D03*
X118400000Y-127325000D03*
X106950000Y-110400000D03*
X114075000Y-108950000D03*
X152900000Y-124600000D03*
X109400000Y-128100000D03*
X112175000Y-121425000D03*
X145500000Y-125100000D03*
X106950000Y-108875000D03*
X117317500Y-108882500D03*
X109150000Y-122650000D03*
X106925000Y-111925000D03*
X145500000Y-124050000D03*
X120600000Y-129050000D03*
X114450000Y-121125000D03*
X156400000Y-122450000D03*
X109000000Y-127300000D03*
X114057500Y-109942500D03*
X157300000Y-123900000D03*
X117317500Y-107957500D03*
X145500000Y-123000000D03*
%TO.N,/U_{Solar}*%
X109800000Y-126300000D03*
X109800000Y-117300000D03*
%TO.N,/I_{Charge}*%
X121000000Y-119325000D03*
X114725000Y-125325000D03*
X114725000Y-127825000D03*
X118550000Y-118425000D03*
X120900000Y-128075000D03*
X131400000Y-119875000D03*
%TO.N,/I_{Load}*%
X120325000Y-127625000D03*
X144700000Y-115300000D03*
%TO.N,+5V*%
X122000000Y-124475000D03*
X122000000Y-123750000D03*
X122000000Y-122425000D03*
%TO.N,/U_{Batt}*%
X107000000Y-129000000D03*
X149075000Y-110125000D03*
%TO.N,/~{RST}*%
X110400000Y-113300000D03*
X117700000Y-113300000D03*
X137875000Y-121825000D03*
X110400000Y-120900000D03*
X113000000Y-125900000D03*
%TO.N,Net-(C24-Pad1)*%
X109000000Y-124950000D03*
X111425000Y-114275000D03*
%TO.N,/~{CHRG}*%
X120450000Y-114125000D03*
X120450000Y-124900000D03*
%TO.N,/~{DONE}*%
X120000000Y-115025000D03*
X120000000Y-124425000D03*
%TO.N,GND3*%
X128400000Y-126700000D03*
X125625000Y-121125000D03*
X147700000Y-112500000D03*
X148400000Y-112500000D03*
X147700000Y-114300000D03*
X124500000Y-126100000D03*
X122600000Y-126100000D03*
X147000000Y-112500000D03*
X134700000Y-127500000D03*
X127400000Y-126700000D03*
X123600000Y-126100000D03*
%TO.N,+3V3*%
X133000000Y-120200000D03*
X153800000Y-123200000D03*
X112800000Y-118000000D03*
X124950000Y-119050000D03*
X119175000Y-121250000D03*
X153150000Y-123900000D03*
X121750000Y-116700000D03*
%TO.N,Net-(Q1-Pad1)*%
X127250000Y-108300000D03*
X127250000Y-112600000D03*
%TO.N,/u_batt_div_on*%
X121900000Y-129000000D03*
X152300000Y-126775000D03*
%TO.N,/SDA*%
X110900000Y-117100000D03*
X110600000Y-122500000D03*
%TO.N,/GPIO*%
X118550000Y-124325000D03*
%TO.N,/SWDIO*%
X135900000Y-117525000D03*
X121100000Y-125000000D03*
X138000000Y-115800000D03*
%TO.N,/SWCLK*%
X121000000Y-123300000D03*
X137175000Y-117525000D03*
X139000000Y-115800000D03*
%TO.N,/SCL*%
X115100000Y-123075000D03*
%TO.N,/+SOLAR*%
X113200000Y-110700000D03*
X113200000Y-109300000D03*
X131175000Y-113750000D03*
X113200000Y-112800000D03*
X113200000Y-110000000D03*
X125600000Y-113700000D03*
X125131180Y-108768680D03*
X125131180Y-111143680D03*
X113200000Y-108600000D03*
X129900000Y-110300000D03*
X125125000Y-107325000D03*
X113200000Y-107900000D03*
X113200000Y-112100000D03*
X125125000Y-108075000D03*
X125131180Y-110368680D03*
X125131180Y-109668680D03*
X113200000Y-111400000D03*
X113200000Y-107200000D03*
%TO.N,+BATT*%
X155000000Y-113500000D03*
X131500000Y-116575000D03*
X156025000Y-123375000D03*
X155000000Y-110475000D03*
X133600000Y-116375000D03*
X153200000Y-113900000D03*
X131950000Y-114925000D03*
X133650000Y-113025000D03*
X154450000Y-116800000D03*
X132425000Y-116375000D03*
X154150000Y-114350000D03*
X134825000Y-124750000D03*
X154050000Y-113050000D03*
X151350000Y-108025000D03*
X155400000Y-123350000D03*
X132175000Y-113025000D03*
X130325000Y-116575000D03*
X132925000Y-113025000D03*
X154000000Y-116350000D03*
X134825000Y-125350000D03*
X134800000Y-124150000D03*
%TO.N,/rpi_on_rpi*%
X139125000Y-121575000D03*
%TO.N,/rpi_on_stm*%
X125375000Y-128475000D03*
X136725000Y-128475000D03*
%TO.N,/TX*%
X150300000Y-103525000D03*
%TO.N,Net-(R10-Pad1)*%
X121125000Y-120300000D03*
X115525000Y-121425000D03*
X118075000Y-120300000D03*
X125200000Y-123100000D03*
%TD*%
D15*
%TO.N,GND3*%
X124100000Y-121650000D02*
X123600000Y-122150000D01*
X124625000Y-121125000D02*
X125625000Y-121125000D01*
X124100000Y-121650000D02*
X124625000Y-121125000D01*
X123600000Y-122150000D02*
X123600000Y-126100000D01*
%TD*%
%TA.AperFunction,Conductor*%
%TO.N,+3V3*%
G36*
X112649194Y-107018306D02*
G01*
X112667500Y-107062500D01*
X112667500Y-113937500D01*
X112677586Y-113988206D01*
X112695892Y-114032400D01*
X112709467Y-114057261D01*
X112714258Y-114061122D01*
X112764121Y-114101305D01*
X112764124Y-114101307D01*
X112767600Y-114104108D01*
X112811794Y-114122414D01*
X112814798Y-114123012D01*
X112814803Y-114123013D01*
X112859487Y-114131901D01*
X112859490Y-114131901D01*
X112862500Y-114132500D01*
X120040915Y-114132500D01*
X120085109Y-114150806D01*
X120102644Y-114185219D01*
X120110574Y-114235286D01*
X120161267Y-114334777D01*
X120240223Y-114413733D01*
X120339714Y-114464426D01*
X120450000Y-114481894D01*
X120560286Y-114464426D01*
X120659777Y-114413733D01*
X120738733Y-114334777D01*
X120789426Y-114235286D01*
X120790195Y-114230429D01*
X120790196Y-114230427D01*
X120797356Y-114185222D01*
X120822350Y-114144436D01*
X120859086Y-114132500D01*
X131337500Y-114132500D01*
X131340510Y-114131901D01*
X131340513Y-114131901D01*
X131385197Y-114123013D01*
X131385202Y-114123012D01*
X131388206Y-114122414D01*
X131432400Y-114104108D01*
X131457261Y-114090533D01*
X131488426Y-114051860D01*
X131501305Y-114035879D01*
X131501307Y-114035876D01*
X131504108Y-114032400D01*
X131522414Y-113988206D01*
X131532500Y-113937500D01*
X131532500Y-110125000D01*
X148718106Y-110125000D01*
X148735574Y-110235286D01*
X148786267Y-110334777D01*
X148865223Y-110413733D01*
X148964714Y-110464426D01*
X149075000Y-110481894D01*
X149118526Y-110475000D01*
X154643106Y-110475000D01*
X154660574Y-110585286D01*
X154711267Y-110684777D01*
X154790223Y-110763733D01*
X154889714Y-110814426D01*
X155000000Y-110831894D01*
X155110286Y-110814426D01*
X155209777Y-110763733D01*
X155288733Y-110684777D01*
X155339426Y-110585286D01*
X155356894Y-110475000D01*
X155339426Y-110364714D01*
X155288733Y-110265223D01*
X155209777Y-110186267D01*
X155110286Y-110135574D01*
X155000000Y-110118106D01*
X154889714Y-110135574D01*
X154790223Y-110186267D01*
X154711267Y-110265223D01*
X154660574Y-110364714D01*
X154643106Y-110475000D01*
X149118526Y-110475000D01*
X149185286Y-110464426D01*
X149284777Y-110413733D01*
X149363733Y-110334777D01*
X149388181Y-110286795D01*
X149424555Y-110255728D01*
X149472243Y-110259481D01*
X149499556Y-110286793D01*
X149511267Y-110309777D01*
X149590223Y-110388733D01*
X149689714Y-110439426D01*
X149800000Y-110456894D01*
X149910286Y-110439426D01*
X150009777Y-110388733D01*
X150088733Y-110309777D01*
X150139426Y-110210286D01*
X150156894Y-110100000D01*
X150148975Y-110050000D01*
X159567429Y-110050000D01*
X159567667Y-110052720D01*
X159586433Y-110267210D01*
X159587674Y-110281399D01*
X159588379Y-110284032D01*
X159588380Y-110284035D01*
X159641397Y-110481894D01*
X159647793Y-110505766D01*
X159648945Y-110508237D01*
X159648946Y-110508239D01*
X159731268Y-110684777D01*
X159745960Y-110716285D01*
X159879191Y-110906560D01*
X160043440Y-111070809D01*
X160149596Y-111145140D01*
X160231477Y-111202474D01*
X160231480Y-111202476D01*
X160233714Y-111204040D01*
X160236185Y-111205192D01*
X160236188Y-111205194D01*
X160441761Y-111301054D01*
X160444234Y-111302207D01*
X160446867Y-111302912D01*
X160446871Y-111302914D01*
X160665965Y-111361620D01*
X160665968Y-111361621D01*
X160668601Y-111362326D01*
X160671317Y-111362564D01*
X160671319Y-111362564D01*
X160897280Y-111382333D01*
X160900000Y-111382571D01*
X160902720Y-111382333D01*
X161128681Y-111362564D01*
X161128683Y-111362564D01*
X161131399Y-111362326D01*
X161134032Y-111361621D01*
X161134035Y-111361620D01*
X161353129Y-111302914D01*
X161353133Y-111302912D01*
X161355766Y-111302207D01*
X161358239Y-111301054D01*
X161563812Y-111205194D01*
X161563815Y-111205192D01*
X161566286Y-111204040D01*
X161568520Y-111202476D01*
X161568523Y-111202474D01*
X161650404Y-111145140D01*
X161756560Y-111070809D01*
X161920809Y-110906560D01*
X162054040Y-110716285D01*
X162068733Y-110684777D01*
X162151054Y-110508239D01*
X162151055Y-110508237D01*
X162152207Y-110505766D01*
X162158604Y-110481894D01*
X162211620Y-110284035D01*
X162211621Y-110284032D01*
X162212326Y-110281399D01*
X162213568Y-110267210D01*
X162232333Y-110052720D01*
X162232571Y-110050000D01*
X162221163Y-109919603D01*
X162212564Y-109821319D01*
X162212564Y-109821317D01*
X162212326Y-109818601D01*
X162209763Y-109809034D01*
X162152914Y-109596871D01*
X162152912Y-109596867D01*
X162152207Y-109594234D01*
X162123962Y-109533662D01*
X162055194Y-109386189D01*
X162055192Y-109386186D01*
X162054040Y-109383715D01*
X161920809Y-109193440D01*
X161756560Y-109029191D01*
X161568524Y-108897527D01*
X161568523Y-108897526D01*
X161568520Y-108897524D01*
X161566286Y-108895960D01*
X161563815Y-108894808D01*
X161563812Y-108894806D01*
X161358239Y-108798946D01*
X161358237Y-108798945D01*
X161355766Y-108797793D01*
X161353133Y-108797088D01*
X161353129Y-108797086D01*
X161134035Y-108738380D01*
X161134032Y-108738379D01*
X161131399Y-108737674D01*
X161128683Y-108737436D01*
X161128681Y-108737436D01*
X160902720Y-108717667D01*
X160900000Y-108717429D01*
X160897280Y-108717667D01*
X160671319Y-108737436D01*
X160671317Y-108737436D01*
X160668601Y-108737674D01*
X160665968Y-108738379D01*
X160665965Y-108738380D01*
X160446871Y-108797086D01*
X160446867Y-108797088D01*
X160444234Y-108797793D01*
X160441763Y-108798945D01*
X160441761Y-108798946D01*
X160236189Y-108894806D01*
X160236186Y-108894808D01*
X160233715Y-108895960D01*
X160043440Y-109029191D01*
X159879191Y-109193440D01*
X159745960Y-109383715D01*
X159744808Y-109386186D01*
X159744806Y-109386189D01*
X159676038Y-109533662D01*
X159647793Y-109594234D01*
X159647088Y-109596867D01*
X159647086Y-109596871D01*
X159590237Y-109809034D01*
X159587674Y-109818601D01*
X159587436Y-109821317D01*
X159587436Y-109821319D01*
X159578837Y-109919603D01*
X159567429Y-110050000D01*
X150148975Y-110050000D01*
X150139426Y-109989714D01*
X150088733Y-109890223D01*
X150009777Y-109811267D01*
X149910286Y-109760574D01*
X149800000Y-109743106D01*
X149689714Y-109760574D01*
X149590223Y-109811267D01*
X149511267Y-109890223D01*
X149500301Y-109911745D01*
X149486819Y-109938205D01*
X149450445Y-109969272D01*
X149402757Y-109965519D01*
X149375443Y-109938206D01*
X149363733Y-109915223D01*
X149284777Y-109836267D01*
X149185286Y-109785574D01*
X149075000Y-109768106D01*
X148964714Y-109785574D01*
X148865223Y-109836267D01*
X148786267Y-109915223D01*
X148735574Y-110014714D01*
X148718106Y-110125000D01*
X131532500Y-110125000D01*
X131532500Y-108025000D01*
X150993106Y-108025000D01*
X151010574Y-108135286D01*
X151061267Y-108234777D01*
X151140223Y-108313733D01*
X151239714Y-108364426D01*
X151350000Y-108381894D01*
X151460286Y-108364426D01*
X151559777Y-108313733D01*
X151638733Y-108234777D01*
X151689426Y-108135286D01*
X151706894Y-108025000D01*
X151689426Y-107914714D01*
X151638733Y-107815223D01*
X151559777Y-107736267D01*
X151460286Y-107685574D01*
X151350000Y-107668106D01*
X151239714Y-107685574D01*
X151140223Y-107736267D01*
X151061267Y-107815223D01*
X151010574Y-107914714D01*
X150993106Y-108025000D01*
X131532500Y-108025000D01*
X131532500Y-107062500D01*
X131550806Y-107018306D01*
X131595000Y-107000000D01*
X153343686Y-107000000D01*
X153387880Y-107018306D01*
X153405416Y-107052723D01*
X153410574Y-107085286D01*
X153461267Y-107184777D01*
X153489796Y-107213306D01*
X153508102Y-107257500D01*
X153489796Y-107301694D01*
X153461267Y-107330223D01*
X153410574Y-107429714D01*
X153393106Y-107540000D01*
X153410574Y-107650286D01*
X153461267Y-107749777D01*
X153487296Y-107775806D01*
X153505602Y-107820000D01*
X153487296Y-107864194D01*
X153461267Y-107890223D01*
X153410574Y-107989714D01*
X153393106Y-108100000D01*
X153410574Y-108210286D01*
X153461267Y-108309777D01*
X153494796Y-108343306D01*
X153513102Y-108387500D01*
X153494796Y-108431694D01*
X153461267Y-108465223D01*
X153410574Y-108564714D01*
X153393106Y-108675000D01*
X153410574Y-108785286D01*
X153461267Y-108884777D01*
X153540223Y-108963733D01*
X153639714Y-109014426D01*
X153750000Y-109031894D01*
X153860286Y-109014426D01*
X153959777Y-108963733D01*
X154038733Y-108884777D01*
X154089426Y-108785286D01*
X154106894Y-108675000D01*
X154089426Y-108564714D01*
X154038733Y-108465223D01*
X154005204Y-108431694D01*
X153986898Y-108387500D01*
X154005204Y-108343306D01*
X154038733Y-108309777D01*
X154089426Y-108210286D01*
X154106894Y-108100000D01*
X154089426Y-107989714D01*
X154038733Y-107890223D01*
X154012704Y-107864194D01*
X153994398Y-107820000D01*
X154012704Y-107775806D01*
X154038733Y-107749777D01*
X154089426Y-107650286D01*
X154106894Y-107540000D01*
X154089426Y-107429714D01*
X154038733Y-107330223D01*
X154010204Y-107301694D01*
X153991898Y-107257500D01*
X154010204Y-107213306D01*
X154038733Y-107184777D01*
X154089426Y-107085286D01*
X154094584Y-107052723D01*
X154119577Y-107011937D01*
X154156314Y-107000000D01*
X164437000Y-107000000D01*
X164481194Y-107018306D01*
X164499500Y-107062500D01*
X164499500Y-125460768D01*
X164481194Y-125504962D01*
X164437000Y-125523268D01*
X164392806Y-125504962D01*
X164377311Y-125479302D01*
X164371556Y-125460768D01*
X164361986Y-125429947D01*
X164355273Y-125414689D01*
X164223164Y-125114451D01*
X164223163Y-125114449D01*
X164222455Y-125112840D01*
X164047924Y-124813566D01*
X163901539Y-124617532D01*
X163841704Y-124537403D01*
X163841702Y-124537401D01*
X163840636Y-124535973D01*
X163824992Y-124519343D01*
X163604470Y-124284921D01*
X163604465Y-124284917D01*
X163603256Y-124283631D01*
X163338836Y-124059783D01*
X163135727Y-123924070D01*
X163052251Y-123868293D01*
X163052248Y-123868291D01*
X163050775Y-123867307D01*
X163049203Y-123866497D01*
X163049199Y-123866495D01*
X162744350Y-123709487D01*
X162744348Y-123709486D01*
X162742777Y-123708677D01*
X162418801Y-123585934D01*
X162315808Y-123559777D01*
X162084728Y-123501090D01*
X162084723Y-123501089D01*
X162083014Y-123500655D01*
X162081262Y-123500417D01*
X162081259Y-123500416D01*
X161817044Y-123464458D01*
X161739730Y-123453936D01*
X161738231Y-123453877D01*
X161738230Y-123453877D01*
X161718934Y-123453119D01*
X161626826Y-123449500D01*
X161412246Y-123449500D01*
X161154110Y-123464158D01*
X161031153Y-123485286D01*
X160814411Y-123522529D01*
X160814408Y-123522530D01*
X160812666Y-123522829D01*
X160480059Y-123619775D01*
X160478420Y-123620462D01*
X160478418Y-123620463D01*
X160312059Y-123690223D01*
X160160564Y-123753750D01*
X159858290Y-123923032D01*
X159856849Y-123924069D01*
X159856848Y-123924070D01*
X159794670Y-123968832D01*
X159577122Y-124125444D01*
X159575816Y-124126631D01*
X159575809Y-124126636D01*
X159401551Y-124284921D01*
X159320675Y-124358384D01*
X159092247Y-124618857D01*
X158894772Y-124903515D01*
X158730792Y-125208697D01*
X158602413Y-125530481D01*
X158511287Y-125864729D01*
X158496654Y-125959804D01*
X158460562Y-126194297D01*
X158458584Y-126207145D01*
X158458515Y-126208903D01*
X158447705Y-126484034D01*
X158444982Y-126553326D01*
X158470657Y-126898821D01*
X158470987Y-126900557D01*
X158470987Y-126900560D01*
X158526037Y-127190512D01*
X158535278Y-127239188D01*
X158535799Y-127240866D01*
X158535801Y-127240874D01*
X158582017Y-127389714D01*
X158638014Y-127570053D01*
X158638726Y-127571672D01*
X158638729Y-127571679D01*
X158766362Y-127861745D01*
X158777545Y-127887160D01*
X158832343Y-127981124D01*
X158903992Y-128103982D01*
X158952076Y-128186434D01*
X158953139Y-128187858D01*
X158953140Y-128187859D01*
X159154038Y-128456894D01*
X159159364Y-128464027D01*
X159160583Y-128465323D01*
X159160584Y-128465324D01*
X159391945Y-128711267D01*
X159396744Y-128716369D01*
X159661164Y-128940217D01*
X159782518Y-129021303D01*
X159929515Y-129119523D01*
X159949225Y-129132693D01*
X159950797Y-129133503D01*
X159950801Y-129133505D01*
X160245441Y-129285255D01*
X160257223Y-129291323D01*
X160258881Y-129291951D01*
X160487466Y-129378554D01*
X160522308Y-129411330D01*
X160523769Y-129459143D01*
X160490993Y-129493985D01*
X160465323Y-129499500D01*
X120754585Y-129499500D01*
X120710391Y-129481194D01*
X120692085Y-129437000D01*
X120710391Y-129392806D01*
X120726211Y-129381312D01*
X120805394Y-129340966D01*
X120809777Y-129338733D01*
X120888733Y-129259777D01*
X120939426Y-129160286D01*
X120956894Y-129050000D01*
X120948975Y-129000000D01*
X121543106Y-129000000D01*
X121560574Y-129110286D01*
X121611267Y-129209777D01*
X121690223Y-129288733D01*
X121789714Y-129339426D01*
X121900000Y-129356894D01*
X122010286Y-129339426D01*
X122109777Y-129288733D01*
X122188733Y-129209777D01*
X122239426Y-129110286D01*
X122256894Y-129000000D01*
X122243044Y-128912558D01*
X149522500Y-128912558D01*
X149523099Y-128915569D01*
X149528198Y-128941201D01*
X149529898Y-128949748D01*
X149558078Y-128991922D01*
X149600252Y-129020102D01*
X149606285Y-129021302D01*
X149606287Y-129021303D01*
X149632384Y-129026494D01*
X149637442Y-129027500D01*
X151362558Y-129027500D01*
X151367616Y-129026494D01*
X151393713Y-129021303D01*
X151393715Y-129021302D01*
X151399748Y-129020102D01*
X151441922Y-128991922D01*
X151470102Y-128949748D01*
X151471803Y-128941201D01*
X151476901Y-128915569D01*
X151477500Y-128912558D01*
X151477500Y-127187442D01*
X151472600Y-127162809D01*
X151471303Y-127156287D01*
X151471302Y-127156285D01*
X151470102Y-127150252D01*
X151441922Y-127108078D01*
X151399748Y-127079898D01*
X151393715Y-127078698D01*
X151393713Y-127078697D01*
X151365569Y-127073099D01*
X151362558Y-127072500D01*
X149637442Y-127072500D01*
X149634431Y-127073099D01*
X149606287Y-127078697D01*
X149606285Y-127078698D01*
X149600252Y-127079898D01*
X149558078Y-127108078D01*
X149529898Y-127150252D01*
X149528698Y-127156285D01*
X149528697Y-127156287D01*
X149527400Y-127162809D01*
X149522500Y-127187442D01*
X149522500Y-128912558D01*
X122243044Y-128912558D01*
X122239426Y-128889714D01*
X122188733Y-128790223D01*
X122109777Y-128711267D01*
X122010286Y-128660574D01*
X121900000Y-128643106D01*
X121789714Y-128660574D01*
X121690223Y-128711267D01*
X121611267Y-128790223D01*
X121560574Y-128889714D01*
X121543106Y-129000000D01*
X120948975Y-129000000D01*
X120939426Y-128939714D01*
X120888733Y-128840223D01*
X120809777Y-128761267D01*
X120710286Y-128710574D01*
X120600000Y-128693106D01*
X120489714Y-128710574D01*
X120390223Y-128761267D01*
X120311267Y-128840223D01*
X120260574Y-128939714D01*
X120243106Y-129050000D01*
X120260574Y-129160286D01*
X120311267Y-129259777D01*
X120390223Y-129338733D01*
X120394606Y-129340966D01*
X120473789Y-129381312D01*
X120504856Y-129417686D01*
X120501103Y-129465374D01*
X120464729Y-129496441D01*
X120445415Y-129499500D01*
X104546168Y-129499500D01*
X104501974Y-129481194D01*
X104483668Y-129437000D01*
X104501974Y-129392806D01*
X104521999Y-129379362D01*
X104575579Y-129356894D01*
X104839436Y-129246250D01*
X105141710Y-129076968D01*
X105211258Y-129026901D01*
X105248626Y-129000000D01*
X106643106Y-129000000D01*
X106660574Y-129110286D01*
X106711267Y-129209777D01*
X106790223Y-129288733D01*
X106889714Y-129339426D01*
X107000000Y-129356894D01*
X107110286Y-129339426D01*
X107209777Y-129288733D01*
X107288733Y-129209777D01*
X107339426Y-129110286D01*
X107340196Y-129105422D01*
X107340558Y-129104309D01*
X107371624Y-129067934D01*
X107419312Y-129064179D01*
X107455687Y-129095245D01*
X107459442Y-129104309D01*
X107459804Y-129105422D01*
X107460574Y-129110286D01*
X107511267Y-129209777D01*
X107590223Y-129288733D01*
X107689714Y-129339426D01*
X107800000Y-129356894D01*
X107910286Y-129339426D01*
X108009777Y-129288733D01*
X108088733Y-129209777D01*
X108090966Y-129205395D01*
X108090968Y-129205392D01*
X108094313Y-129198827D01*
X108130687Y-129167761D01*
X108178375Y-129171515D01*
X108205687Y-129198827D01*
X108209032Y-129205392D01*
X108209034Y-129205395D01*
X108211267Y-129209777D01*
X108290223Y-129288733D01*
X108389714Y-129339426D01*
X108500000Y-129356894D01*
X108610286Y-129339426D01*
X108709777Y-129288733D01*
X108788733Y-129209777D01*
X108839426Y-129110286D01*
X108856894Y-129000000D01*
X115343106Y-129000000D01*
X115360574Y-129110286D01*
X115411267Y-129209777D01*
X115490223Y-129288733D01*
X115589714Y-129339426D01*
X115700000Y-129356894D01*
X115810286Y-129339426D01*
X115909777Y-129288733D01*
X115988733Y-129209777D01*
X116039426Y-129110286D01*
X116056894Y-129000000D01*
X116039426Y-128889714D01*
X115988733Y-128790223D01*
X115909777Y-128711267D01*
X115810286Y-128660574D01*
X115700000Y-128643106D01*
X115589714Y-128660574D01*
X115490223Y-128711267D01*
X115411267Y-128790223D01*
X115360574Y-128889714D01*
X115343106Y-129000000D01*
X108856894Y-129000000D01*
X108839426Y-128889714D01*
X108788733Y-128790223D01*
X108709777Y-128711267D01*
X108610286Y-128660574D01*
X108500000Y-128643106D01*
X108389714Y-128660574D01*
X108290223Y-128711267D01*
X108211267Y-128790223D01*
X108209034Y-128794605D01*
X108209032Y-128794608D01*
X108205687Y-128801173D01*
X108169313Y-128832239D01*
X108121625Y-128828485D01*
X108094313Y-128801173D01*
X108090968Y-128794608D01*
X108090966Y-128794605D01*
X108088733Y-128790223D01*
X108009777Y-128711267D01*
X107910286Y-128660574D01*
X107800000Y-128643106D01*
X107689714Y-128660574D01*
X107590223Y-128711267D01*
X107511267Y-128790223D01*
X107460574Y-128889714D01*
X107459804Y-128894578D01*
X107459442Y-128895691D01*
X107428376Y-128932066D01*
X107380688Y-128935821D01*
X107344313Y-128904755D01*
X107340558Y-128895691D01*
X107340196Y-128894578D01*
X107339426Y-128889714D01*
X107288733Y-128790223D01*
X107209777Y-128711267D01*
X107110286Y-128660574D01*
X107000000Y-128643106D01*
X106889714Y-128660574D01*
X106790223Y-128711267D01*
X106711267Y-128790223D01*
X106660574Y-128889714D01*
X106643106Y-129000000D01*
X105248626Y-129000000D01*
X105333258Y-128939073D01*
X105422878Y-128874556D01*
X105424184Y-128873369D01*
X105424191Y-128873364D01*
X105678015Y-128642806D01*
X105678016Y-128642805D01*
X105679325Y-128641616D01*
X105825443Y-128475000D01*
X125018106Y-128475000D01*
X125035574Y-128585286D01*
X125086267Y-128684777D01*
X125165223Y-128763733D01*
X125264714Y-128814426D01*
X125375000Y-128831894D01*
X125485286Y-128814426D01*
X125584777Y-128763733D01*
X125663733Y-128684777D01*
X125714426Y-128585286D01*
X125731894Y-128475000D01*
X136368106Y-128475000D01*
X136385574Y-128585286D01*
X136436267Y-128684777D01*
X136515223Y-128763733D01*
X136614714Y-128814426D01*
X136725000Y-128831894D01*
X136835286Y-128814426D01*
X136934777Y-128763733D01*
X137013733Y-128684777D01*
X137064426Y-128585286D01*
X137081894Y-128475000D01*
X137064426Y-128364714D01*
X137013733Y-128265223D01*
X136934777Y-128186267D01*
X136835286Y-128135574D01*
X136725000Y-128118106D01*
X136614714Y-128135574D01*
X136515223Y-128186267D01*
X136436267Y-128265223D01*
X136385574Y-128364714D01*
X136368106Y-128475000D01*
X125731894Y-128475000D01*
X125714426Y-128364714D01*
X125663733Y-128265223D01*
X125584777Y-128186267D01*
X125485286Y-128135574D01*
X125375000Y-128118106D01*
X125264714Y-128135574D01*
X125165223Y-128186267D01*
X125086267Y-128265223D01*
X125035574Y-128364714D01*
X125018106Y-128475000D01*
X105825443Y-128475000D01*
X105907753Y-128381143D01*
X106102790Y-128100000D01*
X109043106Y-128100000D01*
X109060574Y-128210286D01*
X109111267Y-128309777D01*
X109190223Y-128388733D01*
X109289714Y-128439426D01*
X109400000Y-128456894D01*
X109510286Y-128439426D01*
X109609777Y-128388733D01*
X109688733Y-128309777D01*
X109739426Y-128210286D01*
X109756894Y-128100000D01*
X109739426Y-127989714D01*
X109688733Y-127890223D01*
X109623510Y-127825000D01*
X114368106Y-127825000D01*
X114385574Y-127935286D01*
X114436267Y-128034777D01*
X114515223Y-128113733D01*
X114614714Y-128164426D01*
X114725000Y-128181894D01*
X114835286Y-128164426D01*
X114934777Y-128113733D01*
X115013733Y-128034777D01*
X115064426Y-127935286D01*
X115081894Y-127825000D01*
X115064426Y-127714714D01*
X115013733Y-127615223D01*
X114934777Y-127536267D01*
X114835286Y-127485574D01*
X114725000Y-127468106D01*
X114614714Y-127485574D01*
X114515223Y-127536267D01*
X114436267Y-127615223D01*
X114385574Y-127714714D01*
X114368106Y-127825000D01*
X109623510Y-127825000D01*
X109609777Y-127811267D01*
X109510286Y-127760574D01*
X109400000Y-127743106D01*
X109289714Y-127760574D01*
X109190223Y-127811267D01*
X109111267Y-127890223D01*
X109060574Y-127989714D01*
X109043106Y-128100000D01*
X106102790Y-128100000D01*
X106105228Y-128096485D01*
X106269208Y-127791303D01*
X106288130Y-127743876D01*
X106319827Y-127664426D01*
X106397587Y-127469519D01*
X106443803Y-127300000D01*
X108643106Y-127300000D01*
X108660574Y-127410286D01*
X108711267Y-127509777D01*
X108790223Y-127588733D01*
X108889714Y-127639426D01*
X109000000Y-127656894D01*
X109110286Y-127639426D01*
X109209777Y-127588733D01*
X109288733Y-127509777D01*
X109339426Y-127410286D01*
X109352934Y-127325000D01*
X118043106Y-127325000D01*
X118060574Y-127435286D01*
X118111267Y-127534777D01*
X118190223Y-127613733D01*
X118289714Y-127664426D01*
X118400000Y-127681894D01*
X118510286Y-127664426D01*
X118587664Y-127625000D01*
X119968106Y-127625000D01*
X119985574Y-127735286D01*
X120036267Y-127834777D01*
X120115223Y-127913733D01*
X120214714Y-127964426D01*
X120325000Y-127981894D01*
X120435286Y-127964426D01*
X120462329Y-127950647D01*
X120510017Y-127946894D01*
X120546391Y-127977961D01*
X120552434Y-128016109D01*
X120543106Y-128075000D01*
X120560574Y-128185286D01*
X120611267Y-128284777D01*
X120690223Y-128363733D01*
X120789714Y-128414426D01*
X120900000Y-128431894D01*
X121010286Y-128414426D01*
X121109777Y-128363733D01*
X121188733Y-128284777D01*
X121239426Y-128185286D01*
X121256894Y-128075000D01*
X121239426Y-127964714D01*
X121188733Y-127865223D01*
X121109777Y-127786267D01*
X121010286Y-127735574D01*
X120900000Y-127718106D01*
X120789714Y-127735574D01*
X120766262Y-127747524D01*
X120762671Y-127749353D01*
X120714983Y-127753106D01*
X120678609Y-127722039D01*
X120672566Y-127683891D01*
X120681894Y-127625000D01*
X120664426Y-127514714D01*
X120656929Y-127500000D01*
X134343106Y-127500000D01*
X134360574Y-127610286D01*
X134411267Y-127709777D01*
X134490223Y-127788733D01*
X134589714Y-127839426D01*
X134700000Y-127856894D01*
X134810286Y-127839426D01*
X134909777Y-127788733D01*
X134988733Y-127709777D01*
X135039426Y-127610286D01*
X135056894Y-127500000D01*
X135039426Y-127389714D01*
X134988733Y-127290223D01*
X134909777Y-127211267D01*
X134810286Y-127160574D01*
X134700000Y-127143106D01*
X134589714Y-127160574D01*
X134490223Y-127211267D01*
X134411267Y-127290223D01*
X134360574Y-127389714D01*
X134343106Y-127500000D01*
X120656929Y-127500000D01*
X120613733Y-127415223D01*
X120534777Y-127336267D01*
X120435286Y-127285574D01*
X120325000Y-127268106D01*
X120214714Y-127285574D01*
X120115223Y-127336267D01*
X120036267Y-127415223D01*
X119985574Y-127514714D01*
X119968106Y-127625000D01*
X118587664Y-127625000D01*
X118609777Y-127613733D01*
X118688733Y-127534777D01*
X118739426Y-127435286D01*
X118756894Y-127325000D01*
X118739426Y-127214714D01*
X118688733Y-127115223D01*
X118609777Y-127036267D01*
X118510286Y-126985574D01*
X118400000Y-126968106D01*
X118289714Y-126985574D01*
X118190223Y-127036267D01*
X118111267Y-127115223D01*
X118060574Y-127214714D01*
X118043106Y-127325000D01*
X109352934Y-127325000D01*
X109356894Y-127300000D01*
X109339426Y-127189714D01*
X109288733Y-127090223D01*
X109209777Y-127011267D01*
X109110286Y-126960574D01*
X109000000Y-126943106D01*
X108889714Y-126960574D01*
X108790223Y-127011267D01*
X108711267Y-127090223D01*
X108660574Y-127189714D01*
X108643106Y-127300000D01*
X106443803Y-127300000D01*
X106488713Y-127135271D01*
X106525378Y-126897056D01*
X106541149Y-126794592D01*
X106541150Y-126794586D01*
X106541416Y-126792855D01*
X106545064Y-126700000D01*
X127043106Y-126700000D01*
X127060574Y-126810286D01*
X127111267Y-126909777D01*
X127190223Y-126988733D01*
X127289714Y-127039426D01*
X127400000Y-127056894D01*
X127510286Y-127039426D01*
X127609777Y-126988733D01*
X127688733Y-126909777D01*
X127739426Y-126810286D01*
X127756894Y-126700000D01*
X128043106Y-126700000D01*
X128060574Y-126810286D01*
X128111267Y-126909777D01*
X128190223Y-126988733D01*
X128289714Y-127039426D01*
X128400000Y-127056894D01*
X128510286Y-127039426D01*
X128609777Y-126988733D01*
X128688733Y-126909777D01*
X128739426Y-126810286D01*
X128745015Y-126775000D01*
X151943106Y-126775000D01*
X151960574Y-126885286D01*
X152011267Y-126984777D01*
X152090223Y-127063733D01*
X152189714Y-127114426D01*
X152300000Y-127131894D01*
X152410286Y-127114426D01*
X152509777Y-127063733D01*
X152588733Y-126984777D01*
X152639426Y-126885286D01*
X152656894Y-126775000D01*
X152639426Y-126664714D01*
X152588733Y-126565223D01*
X152509777Y-126486267D01*
X152410286Y-126435574D01*
X152300000Y-126418106D01*
X152189714Y-126435574D01*
X152090223Y-126486267D01*
X152011267Y-126565223D01*
X151960574Y-126664714D01*
X151943106Y-126775000D01*
X128745015Y-126775000D01*
X128756894Y-126700000D01*
X128739426Y-126589714D01*
X128688733Y-126490223D01*
X128609777Y-126411267D01*
X128510286Y-126360574D01*
X128400000Y-126343106D01*
X128289714Y-126360574D01*
X128190223Y-126411267D01*
X128111267Y-126490223D01*
X128060574Y-126589714D01*
X128043106Y-126700000D01*
X127756894Y-126700000D01*
X127739426Y-126589714D01*
X127688733Y-126490223D01*
X127609777Y-126411267D01*
X127510286Y-126360574D01*
X127400000Y-126343106D01*
X127289714Y-126360574D01*
X127190223Y-126411267D01*
X127111267Y-126490223D01*
X127060574Y-126589714D01*
X127043106Y-126700000D01*
X106545064Y-126700000D01*
X106547414Y-126640196D01*
X106554949Y-126448436D01*
X106554949Y-126448432D01*
X106555018Y-126446674D01*
X106544118Y-126300000D01*
X109443106Y-126300000D01*
X109460574Y-126410286D01*
X109511267Y-126509777D01*
X109590223Y-126588733D01*
X109689714Y-126639426D01*
X109800000Y-126656894D01*
X109910286Y-126639426D01*
X110009777Y-126588733D01*
X110088733Y-126509777D01*
X110139426Y-126410286D01*
X110156894Y-126300000D01*
X110139426Y-126189714D01*
X110088733Y-126090223D01*
X110009777Y-126011267D01*
X109910286Y-125960574D01*
X109800000Y-125943106D01*
X109689714Y-125960574D01*
X109590223Y-126011267D01*
X109511267Y-126090223D01*
X109460574Y-126189714D01*
X109443106Y-126300000D01*
X106544118Y-126300000D01*
X106529343Y-126101179D01*
X106525037Y-126078500D01*
X106465052Y-125762549D01*
X106465051Y-125762545D01*
X106464722Y-125760812D01*
X106464201Y-125759134D01*
X106464199Y-125759126D01*
X106368350Y-125450441D01*
X106369752Y-125435186D01*
X106358271Y-125421504D01*
X106223164Y-125114451D01*
X106223163Y-125114449D01*
X106222455Y-125112840D01*
X106047924Y-124813566D01*
X105901539Y-124617532D01*
X105843833Y-124540254D01*
X105832058Y-124493891D01*
X105856516Y-124452781D01*
X105902879Y-124441006D01*
X105916614Y-124444628D01*
X106020252Y-124485035D01*
X106020256Y-124485036D01*
X106023762Y-124486403D01*
X106027499Y-124486895D01*
X106151597Y-124503233D01*
X106151603Y-124503233D01*
X106153628Y-124503500D01*
X106242698Y-124503500D01*
X106369041Y-124488211D01*
X106382908Y-124482971D01*
X106430719Y-124484473D01*
X106463465Y-124519343D01*
X106467500Y-124541436D01*
X106467500Y-125337500D01*
X106468099Y-125340510D01*
X106468099Y-125340513D01*
X106476777Y-125384139D01*
X106474494Y-125395617D01*
X106485780Y-125407988D01*
X106495892Y-125432400D01*
X106509467Y-125457261D01*
X106514258Y-125461122D01*
X106564121Y-125501305D01*
X106564124Y-125501307D01*
X106567600Y-125504108D01*
X106611794Y-125522414D01*
X106614798Y-125523012D01*
X106614803Y-125523013D01*
X106659487Y-125531901D01*
X106659490Y-125531901D01*
X106662500Y-125532500D01*
X108089489Y-125532500D01*
X108116193Y-125528271D01*
X108121599Y-125527415D01*
X108168113Y-125538583D01*
X108187063Y-125560772D01*
X108197762Y-125581770D01*
X108211267Y-125608275D01*
X108290223Y-125687231D01*
X108389714Y-125737924D01*
X108500000Y-125755392D01*
X108610286Y-125737924D01*
X108709777Y-125687231D01*
X108788733Y-125608275D01*
X108839426Y-125508784D01*
X108854330Y-125414686D01*
X108879322Y-125373903D01*
X108925836Y-125362735D01*
X108966622Y-125387729D01*
X108973801Y-125400548D01*
X108976884Y-125407990D01*
X108986995Y-125432400D01*
X109000570Y-125457261D01*
X109005361Y-125461122D01*
X109055224Y-125501305D01*
X109055227Y-125501307D01*
X109058703Y-125504108D01*
X109102897Y-125522414D01*
X109105901Y-125523012D01*
X109105906Y-125523013D01*
X109150590Y-125531901D01*
X109150593Y-125531901D01*
X109153603Y-125532500D01*
X112718102Y-125532500D01*
X112762296Y-125550806D01*
X112780602Y-125595000D01*
X112762296Y-125639194D01*
X112711267Y-125690223D01*
X112660574Y-125789714D01*
X112643106Y-125900000D01*
X112660574Y-126010286D01*
X112711267Y-126109777D01*
X112790223Y-126188733D01*
X112889714Y-126239426D01*
X113000000Y-126256894D01*
X113110286Y-126239426D01*
X113209777Y-126188733D01*
X113288733Y-126109777D01*
X113293715Y-126100000D01*
X122243106Y-126100000D01*
X122260574Y-126210286D01*
X122311267Y-126309777D01*
X122390223Y-126388733D01*
X122489714Y-126439426D01*
X122600000Y-126456894D01*
X122710286Y-126439426D01*
X122809777Y-126388733D01*
X122888733Y-126309777D01*
X122939426Y-126210286D01*
X122956894Y-126100000D01*
X123243106Y-126100000D01*
X123260574Y-126210286D01*
X123311267Y-126309777D01*
X123390223Y-126388733D01*
X123489714Y-126439426D01*
X123600000Y-126456894D01*
X123710286Y-126439426D01*
X123809777Y-126388733D01*
X123888733Y-126309777D01*
X123939426Y-126210286D01*
X123956894Y-126100000D01*
X124143106Y-126100000D01*
X124160574Y-126210286D01*
X124211267Y-126309777D01*
X124290223Y-126388733D01*
X124389714Y-126439426D01*
X124500000Y-126456894D01*
X124610286Y-126439426D01*
X124709777Y-126388733D01*
X124788733Y-126309777D01*
X124839426Y-126210286D01*
X124856894Y-126100000D01*
X124839426Y-125989714D01*
X124788733Y-125890223D01*
X124709777Y-125811267D01*
X124610286Y-125760574D01*
X124500000Y-125743106D01*
X124389714Y-125760574D01*
X124290223Y-125811267D01*
X124211267Y-125890223D01*
X124160574Y-125989714D01*
X124143106Y-126100000D01*
X123956894Y-126100000D01*
X123939426Y-125989714D01*
X123888733Y-125890223D01*
X123809777Y-125811267D01*
X123811822Y-125809222D01*
X123791772Y-125776525D01*
X123791000Y-125766731D01*
X123791000Y-123100000D01*
X124843106Y-123100000D01*
X124860574Y-123210286D01*
X124911267Y-123309777D01*
X124990223Y-123388733D01*
X125089714Y-123439426D01*
X125200000Y-123456894D01*
X125310286Y-123439426D01*
X125409777Y-123388733D01*
X125488733Y-123309777D01*
X125539426Y-123210286D01*
X125556894Y-123100000D01*
X125539426Y-122989714D01*
X125488733Y-122890223D01*
X125409777Y-122811267D01*
X125310286Y-122760574D01*
X125200000Y-122743106D01*
X125089714Y-122760574D01*
X124990223Y-122811267D01*
X124911267Y-122890223D01*
X124860574Y-122989714D01*
X124843106Y-123100000D01*
X123791000Y-123100000D01*
X123791000Y-122255003D01*
X123809306Y-122210809D01*
X124250284Y-121769831D01*
X124685808Y-121334306D01*
X124730002Y-121316000D01*
X125291731Y-121316000D01*
X125335925Y-121334306D01*
X125336178Y-121334602D01*
X125336267Y-121334777D01*
X125415223Y-121413733D01*
X125514714Y-121464426D01*
X125625000Y-121481894D01*
X125735286Y-121464426D01*
X125834777Y-121413733D01*
X125913733Y-121334777D01*
X125964426Y-121235286D01*
X125981894Y-121125000D01*
X125964426Y-121014714D01*
X125913733Y-120915223D01*
X125834777Y-120836267D01*
X125735286Y-120785574D01*
X125625000Y-120768106D01*
X125514714Y-120785574D01*
X125415223Y-120836267D01*
X125336267Y-120915223D01*
X125334222Y-120913178D01*
X125301525Y-120933228D01*
X125291731Y-120934000D01*
X124668232Y-120934000D01*
X124660893Y-120932750D01*
X124660810Y-120933477D01*
X124653819Y-120932680D01*
X124647178Y-120930348D01*
X124640185Y-120931126D01*
X124640184Y-120931126D01*
X124617803Y-120933617D01*
X124610890Y-120934000D01*
X124603467Y-120934000D01*
X124596535Y-120935581D01*
X124589582Y-120936757D01*
X124560571Y-120939986D01*
X124554607Y-120943719D01*
X124550659Y-120945094D01*
X124546900Y-120946903D01*
X124540041Y-120948468D01*
X124519953Y-120964476D01*
X124517227Y-120966648D01*
X124511441Y-120970744D01*
X124508285Y-120972720D01*
X124505289Y-120974596D01*
X124500076Y-120979809D01*
X124494832Y-120984494D01*
X124471891Y-121002775D01*
X124468833Y-121009114D01*
X124464442Y-121014615D01*
X124463908Y-121014189D01*
X124459532Y-121020353D01*
X123495513Y-121984372D01*
X123489439Y-121988677D01*
X123489895Y-121989250D01*
X123484387Y-121993631D01*
X123478042Y-121996678D01*
X123473646Y-122002175D01*
X123459582Y-122019761D01*
X123454965Y-122024920D01*
X123449716Y-122030169D01*
X123447847Y-122033143D01*
X123445943Y-122036172D01*
X123441838Y-122041948D01*
X123423617Y-122064733D01*
X123422040Y-122071593D01*
X123420222Y-122075353D01*
X123418844Y-122079289D01*
X123415098Y-122085248D01*
X123414307Y-122092242D01*
X123414307Y-122092243D01*
X123411821Y-122114236D01*
X123410629Y-122121213D01*
X123409000Y-122128297D01*
X123409000Y-122135671D01*
X123408604Y-122142692D01*
X123405309Y-122171838D01*
X123407630Y-122178483D01*
X123408414Y-122185477D01*
X123407736Y-122185553D01*
X123409000Y-122193005D01*
X123409000Y-125766731D01*
X123390694Y-125810925D01*
X123390398Y-125811178D01*
X123390223Y-125811267D01*
X123311267Y-125890223D01*
X123260574Y-125989714D01*
X123243106Y-126100000D01*
X122956894Y-126100000D01*
X122939426Y-125989714D01*
X122888733Y-125890223D01*
X122809777Y-125811267D01*
X122710286Y-125760574D01*
X122600000Y-125743106D01*
X122489714Y-125760574D01*
X122390223Y-125811267D01*
X122311267Y-125890223D01*
X122260574Y-125989714D01*
X122243106Y-126100000D01*
X113293715Y-126100000D01*
X113339426Y-126010286D01*
X113356894Y-125900000D01*
X113339426Y-125789714D01*
X113288733Y-125690223D01*
X113237704Y-125639194D01*
X113219398Y-125595000D01*
X113237704Y-125550806D01*
X113281898Y-125532500D01*
X114306806Y-125532500D01*
X114307417Y-125532476D01*
X114307419Y-125532476D01*
X114316586Y-125532117D01*
X114316606Y-125532116D01*
X114317188Y-125532093D01*
X114319631Y-125531901D01*
X114323288Y-125531614D01*
X114323292Y-125531613D01*
X114326959Y-125531325D01*
X114370954Y-125517035D01*
X114418642Y-125520793D01*
X114435689Y-125535355D01*
X114436267Y-125534777D01*
X114515223Y-125613733D01*
X114614714Y-125664426D01*
X114725000Y-125681894D01*
X114835286Y-125664426D01*
X114934777Y-125613733D01*
X115013733Y-125534777D01*
X115015085Y-125536129D01*
X115049944Y-125514763D01*
X115083645Y-125518751D01*
X115092488Y-125522414D01*
X115095492Y-125523012D01*
X115095497Y-125523013D01*
X115140181Y-125531901D01*
X115140184Y-125531901D01*
X115143194Y-125532500D01*
X120852323Y-125532500D01*
X120862714Y-125532092D01*
X120867416Y-125531722D01*
X120868817Y-125531612D01*
X120868818Y-125531612D01*
X120872490Y-125531323D01*
X120875994Y-125530185D01*
X120875997Y-125530184D01*
X120917257Y-125516778D01*
X120931329Y-125512206D01*
X120972116Y-125487212D01*
X120994547Y-125469916D01*
X121014490Y-125435186D01*
X121029497Y-125409050D01*
X121031724Y-125405172D01*
X121032768Y-125400825D01*
X121034420Y-125396670D01*
X121036697Y-125397575D01*
X121060094Y-125365347D01*
X121092770Y-125356125D01*
X121095145Y-125356125D01*
X121100000Y-125356894D01*
X121104855Y-125356125D01*
X121107714Y-125356125D01*
X121151908Y-125374431D01*
X121165456Y-125394706D01*
X121181069Y-125432400D01*
X121194644Y-125457261D01*
X121199435Y-125461122D01*
X121249298Y-125501305D01*
X121249301Y-125501307D01*
X121252777Y-125504108D01*
X121296971Y-125522414D01*
X121299975Y-125523012D01*
X121299980Y-125523013D01*
X121344664Y-125531901D01*
X121344667Y-125531901D01*
X121347677Y-125532500D01*
X122537500Y-125532500D01*
X122540510Y-125531901D01*
X122540513Y-125531901D01*
X122585197Y-125523013D01*
X122585202Y-125523012D01*
X122588206Y-125522414D01*
X122632400Y-125504108D01*
X122657261Y-125490533D01*
X122661122Y-125485742D01*
X122701305Y-125435879D01*
X122701307Y-125435876D01*
X122704108Y-125432400D01*
X122722414Y-125388206D01*
X122727481Y-125362735D01*
X122731901Y-125340513D01*
X122731901Y-125340510D01*
X122732500Y-125337500D01*
X122732500Y-121862500D01*
X122731528Y-121857612D01*
X122723013Y-121814803D01*
X122723012Y-121814798D01*
X122722414Y-121811794D01*
X122704108Y-121767600D01*
X122690533Y-121742739D01*
X122685742Y-121738878D01*
X122635879Y-121698695D01*
X122635876Y-121698693D01*
X122632400Y-121695892D01*
X122588206Y-121677586D01*
X122585202Y-121676988D01*
X122585197Y-121676987D01*
X122540513Y-121668099D01*
X122540510Y-121668099D01*
X122537500Y-121667500D01*
X115899050Y-121667500D01*
X115854856Y-121649194D01*
X115836550Y-121605000D01*
X115843361Y-121576628D01*
X115864426Y-121535286D01*
X115881894Y-121425000D01*
X115864426Y-121314714D01*
X115813733Y-121215223D01*
X115734777Y-121136267D01*
X115635286Y-121085574D01*
X115525000Y-121068106D01*
X115414714Y-121085574D01*
X115315223Y-121136267D01*
X115236267Y-121215223D01*
X115185574Y-121314714D01*
X115168106Y-121425000D01*
X115185574Y-121535286D01*
X115206638Y-121576627D01*
X115210391Y-121624313D01*
X115179325Y-121660688D01*
X115150950Y-121667500D01*
X112549050Y-121667500D01*
X112504856Y-121649194D01*
X112486550Y-121605000D01*
X112493361Y-121576628D01*
X112514426Y-121535286D01*
X112531894Y-121425000D01*
X112514426Y-121314714D01*
X112463733Y-121215223D01*
X112384777Y-121136267D01*
X112380396Y-121134035D01*
X112380395Y-121134034D01*
X112362664Y-121125000D01*
X114093106Y-121125000D01*
X114110574Y-121235286D01*
X114161267Y-121334777D01*
X114240223Y-121413733D01*
X114339714Y-121464426D01*
X114450000Y-121481894D01*
X114560286Y-121464426D01*
X114659777Y-121413733D01*
X114738733Y-121334777D01*
X114789426Y-121235286D01*
X114806894Y-121125000D01*
X114789426Y-121014714D01*
X114781929Y-121000000D01*
X117043106Y-121000000D01*
X117060574Y-121110286D01*
X117111267Y-121209777D01*
X117190223Y-121288733D01*
X117289714Y-121339426D01*
X117400000Y-121356894D01*
X117510286Y-121339426D01*
X117609777Y-121288733D01*
X117688733Y-121209777D01*
X117739426Y-121110286D01*
X117756894Y-121000000D01*
X117739426Y-120889714D01*
X117688733Y-120790223D01*
X117617704Y-120719194D01*
X117599398Y-120675000D01*
X117617704Y-120630806D01*
X117688733Y-120559777D01*
X117693247Y-120550917D01*
X117699479Y-120538688D01*
X117735854Y-120507623D01*
X117783542Y-120511377D01*
X117799360Y-120522870D01*
X117865223Y-120588733D01*
X117964714Y-120639426D01*
X118075000Y-120656894D01*
X118185286Y-120639426D01*
X118284777Y-120588733D01*
X118363733Y-120509777D01*
X118414426Y-120410286D01*
X118431894Y-120300000D01*
X120768106Y-120300000D01*
X120785574Y-120410286D01*
X120836267Y-120509777D01*
X120915223Y-120588733D01*
X121014714Y-120639426D01*
X121125000Y-120656894D01*
X121235286Y-120639426D01*
X121334777Y-120588733D01*
X121413733Y-120509777D01*
X121464426Y-120410286D01*
X121481894Y-120300000D01*
X121464426Y-120189714D01*
X121413733Y-120090223D01*
X121334777Y-120011267D01*
X121235286Y-119960574D01*
X121125000Y-119943106D01*
X121014714Y-119960574D01*
X120915223Y-120011267D01*
X120836267Y-120090223D01*
X120785574Y-120189714D01*
X120768106Y-120300000D01*
X118431894Y-120300000D01*
X118414426Y-120189714D01*
X118363733Y-120090223D01*
X118284777Y-120011267D01*
X118185286Y-119960574D01*
X118075000Y-119943106D01*
X117964714Y-119960574D01*
X117865223Y-120011267D01*
X117786267Y-120090223D01*
X117784034Y-120094606D01*
X117775521Y-120111312D01*
X117739146Y-120142377D01*
X117691458Y-120138623D01*
X117675640Y-120127130D01*
X117617704Y-120069194D01*
X117599398Y-120025000D01*
X117617704Y-119980806D01*
X117688733Y-119909777D01*
X117693715Y-119900000D01*
X126743106Y-119900000D01*
X126760574Y-120010286D01*
X126811267Y-120109777D01*
X126890223Y-120188733D01*
X126962938Y-120225783D01*
X126976386Y-120232635D01*
X127007453Y-120269009D01*
X127003700Y-120316697D01*
X126971931Y-120346065D01*
X126962431Y-120350000D01*
X126950000Y-120350000D01*
X126950000Y-124850000D01*
X131450000Y-124850000D01*
X131450000Y-120350000D01*
X131437569Y-120350000D01*
X131426082Y-120345242D01*
X131427674Y-120341398D01*
X131404247Y-120331694D01*
X131399388Y-120319962D01*
X131388295Y-120338064D01*
X131351559Y-120350000D01*
X127253603Y-120350000D01*
X127209409Y-120331694D01*
X127191103Y-120287500D01*
X127209409Y-120243306D01*
X127225229Y-120231812D01*
X127309777Y-120188733D01*
X127388733Y-120109777D01*
X127439426Y-120010286D01*
X127456894Y-119900000D01*
X127452934Y-119875000D01*
X131043106Y-119875000D01*
X131060574Y-119985286D01*
X131111267Y-120084777D01*
X131190223Y-120163733D01*
X131289714Y-120214426D01*
X131361336Y-120225770D01*
X131401353Y-120250292D01*
X131404247Y-120243306D01*
X131438664Y-120225770D01*
X131510286Y-120214426D01*
X131609777Y-120163733D01*
X131688733Y-120084777D01*
X131739426Y-119985286D01*
X131756894Y-119875000D01*
X131739426Y-119764714D01*
X131688733Y-119665223D01*
X131609777Y-119586267D01*
X131510286Y-119535574D01*
X131400000Y-119518106D01*
X131289714Y-119535574D01*
X131190223Y-119586267D01*
X131111267Y-119665223D01*
X131060574Y-119764714D01*
X131043106Y-119875000D01*
X127452934Y-119875000D01*
X127439426Y-119789714D01*
X127388733Y-119690223D01*
X127309777Y-119611267D01*
X127305395Y-119609034D01*
X127305392Y-119609032D01*
X127298827Y-119605687D01*
X127267761Y-119569313D01*
X127271515Y-119521625D01*
X127298827Y-119494313D01*
X127305392Y-119490968D01*
X127305395Y-119490966D01*
X127309777Y-119488733D01*
X127388733Y-119409777D01*
X127439426Y-119310286D01*
X127456894Y-119200000D01*
X127439426Y-119089714D01*
X127388733Y-118990223D01*
X127309777Y-118911267D01*
X127305395Y-118909034D01*
X127305392Y-118909032D01*
X127298827Y-118905687D01*
X127267761Y-118869313D01*
X127271515Y-118821625D01*
X127298827Y-118794313D01*
X127305392Y-118790968D01*
X127305395Y-118790966D01*
X127309777Y-118788733D01*
X127388733Y-118709777D01*
X127419191Y-118650000D01*
X127893106Y-118650000D01*
X127910574Y-118760286D01*
X127961267Y-118859777D01*
X128040223Y-118938733D01*
X128139714Y-118989426D01*
X128250000Y-119006894D01*
X128360286Y-118989426D01*
X128459777Y-118938733D01*
X128538733Y-118859777D01*
X128589426Y-118760286D01*
X128606894Y-118650000D01*
X128589426Y-118539714D01*
X128538733Y-118440223D01*
X128535254Y-118436744D01*
X128535249Y-118436737D01*
X128524081Y-118390224D01*
X128535249Y-118363263D01*
X128535254Y-118363256D01*
X128538733Y-118359777D01*
X128563181Y-118311795D01*
X128599555Y-118280728D01*
X128647243Y-118284481D01*
X128674556Y-118311793D01*
X128686267Y-118334777D01*
X128765223Y-118413733D01*
X128864714Y-118464426D01*
X128975000Y-118481894D01*
X129085286Y-118464426D01*
X129184777Y-118413733D01*
X129263733Y-118334777D01*
X129307436Y-118249005D01*
X129343810Y-118217938D01*
X129391498Y-118221691D01*
X129422565Y-118258065D01*
X129424851Y-118267586D01*
X129435574Y-118335286D01*
X129486267Y-118434777D01*
X129565223Y-118513733D01*
X129664714Y-118564426D01*
X129775000Y-118581894D01*
X129885286Y-118564426D01*
X129984777Y-118513733D01*
X129998510Y-118500000D01*
X131143106Y-118500000D01*
X131160574Y-118610286D01*
X131211267Y-118709777D01*
X131290223Y-118788733D01*
X131389714Y-118839426D01*
X131500000Y-118856894D01*
X131610286Y-118839426D01*
X131709777Y-118788733D01*
X131788733Y-118709777D01*
X131839426Y-118610286D01*
X131856894Y-118500000D01*
X131839426Y-118389714D01*
X131788733Y-118290223D01*
X131709777Y-118211267D01*
X131610286Y-118160574D01*
X131500000Y-118143106D01*
X131389714Y-118160574D01*
X131290223Y-118211267D01*
X131211267Y-118290223D01*
X131160574Y-118389714D01*
X131143106Y-118500000D01*
X129998510Y-118500000D01*
X130063733Y-118434777D01*
X130114426Y-118335286D01*
X130131894Y-118225000D01*
X130114426Y-118114714D01*
X130063733Y-118015223D01*
X129984777Y-117936267D01*
X129885286Y-117885574D01*
X129775000Y-117868106D01*
X129664714Y-117885574D01*
X129565223Y-117936267D01*
X129486267Y-118015223D01*
X129484034Y-118019606D01*
X129442564Y-118100995D01*
X129406190Y-118132062D01*
X129358502Y-118128309D01*
X129327435Y-118091935D01*
X129325149Y-118082414D01*
X129314426Y-118014714D01*
X129263733Y-117915223D01*
X129184777Y-117836267D01*
X129085286Y-117785574D01*
X128975000Y-117768106D01*
X128864714Y-117785574D01*
X128765223Y-117836267D01*
X128686267Y-117915223D01*
X128673529Y-117940223D01*
X128661819Y-117963205D01*
X128625445Y-117994272D01*
X128577757Y-117990519D01*
X128550443Y-117963206D01*
X128538733Y-117940223D01*
X128459777Y-117861267D01*
X128360286Y-117810574D01*
X128250000Y-117793106D01*
X128139714Y-117810574D01*
X128040223Y-117861267D01*
X127961267Y-117940223D01*
X127910574Y-118039714D01*
X127893106Y-118150000D01*
X127910574Y-118260286D01*
X127961267Y-118359777D01*
X127964746Y-118363256D01*
X127964751Y-118363263D01*
X127975919Y-118409776D01*
X127964751Y-118436737D01*
X127964746Y-118436744D01*
X127961267Y-118440223D01*
X127910574Y-118539714D01*
X127893106Y-118650000D01*
X127419191Y-118650000D01*
X127439426Y-118610286D01*
X127456894Y-118500000D01*
X127439426Y-118389714D01*
X127388733Y-118290223D01*
X127309777Y-118211267D01*
X127210286Y-118160574D01*
X127100000Y-118143106D01*
X126989714Y-118160574D01*
X126890223Y-118211267D01*
X126811267Y-118290223D01*
X126760574Y-118389714D01*
X126743106Y-118500000D01*
X126760574Y-118610286D01*
X126811267Y-118709777D01*
X126890223Y-118788733D01*
X126894605Y-118790966D01*
X126894608Y-118790968D01*
X126901173Y-118794313D01*
X126932239Y-118830687D01*
X126928485Y-118878375D01*
X126901173Y-118905687D01*
X126894608Y-118909032D01*
X126894605Y-118909034D01*
X126890223Y-118911267D01*
X126811267Y-118990223D01*
X126760574Y-119089714D01*
X126743106Y-119200000D01*
X126760574Y-119310286D01*
X126811267Y-119409777D01*
X126890223Y-119488733D01*
X126894605Y-119490966D01*
X126894608Y-119490968D01*
X126901173Y-119494313D01*
X126932239Y-119530687D01*
X126928485Y-119578375D01*
X126901173Y-119605687D01*
X126894608Y-119609032D01*
X126894605Y-119609034D01*
X126890223Y-119611267D01*
X126811267Y-119690223D01*
X126760574Y-119789714D01*
X126743106Y-119900000D01*
X117693715Y-119900000D01*
X117739426Y-119810286D01*
X117756894Y-119700000D01*
X117739426Y-119589714D01*
X117688733Y-119490223D01*
X117609777Y-119411267D01*
X117510286Y-119360574D01*
X117400000Y-119343106D01*
X117289714Y-119360574D01*
X117190223Y-119411267D01*
X117111267Y-119490223D01*
X117060574Y-119589714D01*
X117043106Y-119700000D01*
X117060574Y-119810286D01*
X117111267Y-119909777D01*
X117182296Y-119980806D01*
X117200602Y-120025000D01*
X117182296Y-120069194D01*
X117111267Y-120140223D01*
X117060574Y-120239714D01*
X117043106Y-120350000D01*
X117060574Y-120460286D01*
X117111267Y-120559777D01*
X117182296Y-120630806D01*
X117200602Y-120675000D01*
X117182296Y-120719194D01*
X117111267Y-120790223D01*
X117060574Y-120889714D01*
X117043106Y-121000000D01*
X114781929Y-121000000D01*
X114738733Y-120915223D01*
X114659777Y-120836267D01*
X114630145Y-120821169D01*
X114624295Y-120818188D01*
X114593228Y-120781814D01*
X114596981Y-120734126D01*
X114624295Y-120706812D01*
X114655394Y-120690966D01*
X114659777Y-120688733D01*
X114738733Y-120609777D01*
X114789426Y-120510286D01*
X114806894Y-120400000D01*
X114789426Y-120289714D01*
X114738733Y-120190223D01*
X114659777Y-120111267D01*
X114624295Y-120093188D01*
X114593228Y-120056814D01*
X114596981Y-120009126D01*
X114624295Y-119981812D01*
X114655394Y-119965966D01*
X114659777Y-119963733D01*
X114738733Y-119884777D01*
X114789426Y-119785286D01*
X114806894Y-119675000D01*
X114789426Y-119564714D01*
X114738733Y-119465223D01*
X114659777Y-119386267D01*
X114560286Y-119335574D01*
X114493526Y-119325000D01*
X120643106Y-119325000D01*
X120660574Y-119435286D01*
X120711267Y-119534777D01*
X120790223Y-119613733D01*
X120889714Y-119664426D01*
X121000000Y-119681894D01*
X121110286Y-119664426D01*
X121209777Y-119613733D01*
X121288733Y-119534777D01*
X121339426Y-119435286D01*
X121356894Y-119325000D01*
X121339426Y-119214714D01*
X121288733Y-119115223D01*
X121209777Y-119036267D01*
X121110286Y-118985574D01*
X121000000Y-118968106D01*
X120889714Y-118985574D01*
X120790223Y-119036267D01*
X120711267Y-119115223D01*
X120660574Y-119214714D01*
X120643106Y-119325000D01*
X114493526Y-119325000D01*
X114450000Y-119318106D01*
X114339714Y-119335574D01*
X114240223Y-119386267D01*
X114161267Y-119465223D01*
X114110574Y-119564714D01*
X114093106Y-119675000D01*
X114110574Y-119785286D01*
X114161267Y-119884777D01*
X114240223Y-119963733D01*
X114244606Y-119965966D01*
X114275705Y-119981812D01*
X114306772Y-120018186D01*
X114303019Y-120065874D01*
X114275705Y-120093188D01*
X114240223Y-120111267D01*
X114161267Y-120190223D01*
X114110574Y-120289714D01*
X114093106Y-120400000D01*
X114110574Y-120510286D01*
X114161267Y-120609777D01*
X114240223Y-120688733D01*
X114244606Y-120690966D01*
X114275705Y-120706812D01*
X114306772Y-120743186D01*
X114303019Y-120790874D01*
X114275705Y-120818188D01*
X114269855Y-120821169D01*
X114240223Y-120836267D01*
X114161267Y-120915223D01*
X114110574Y-121014714D01*
X114093106Y-121125000D01*
X112362664Y-121125000D01*
X112356799Y-121122012D01*
X112325732Y-121085638D01*
X112323874Y-121054132D01*
X112332500Y-121010767D01*
X112332500Y-118425000D01*
X118193106Y-118425000D01*
X118210574Y-118535286D01*
X118261267Y-118634777D01*
X118340223Y-118713733D01*
X118439714Y-118764426D01*
X118550000Y-118781894D01*
X118660286Y-118764426D01*
X118759777Y-118713733D01*
X118838733Y-118634777D01*
X118889426Y-118535286D01*
X118906894Y-118425000D01*
X122593106Y-118425000D01*
X122610574Y-118535286D01*
X122661267Y-118634777D01*
X122740223Y-118713733D01*
X122839714Y-118764426D01*
X122950000Y-118781894D01*
X123060286Y-118764426D01*
X123159777Y-118713733D01*
X123238733Y-118634777D01*
X123289426Y-118535286D01*
X123306894Y-118425000D01*
X123289426Y-118314714D01*
X123238733Y-118215223D01*
X123159777Y-118136267D01*
X123060286Y-118085574D01*
X122950000Y-118068106D01*
X122839714Y-118085574D01*
X122740223Y-118136267D01*
X122661267Y-118215223D01*
X122610574Y-118314714D01*
X122593106Y-118425000D01*
X118906894Y-118425000D01*
X118889426Y-118314714D01*
X118838733Y-118215223D01*
X118759777Y-118136267D01*
X118660286Y-118085574D01*
X118550000Y-118068106D01*
X118439714Y-118085574D01*
X118340223Y-118136267D01*
X118261267Y-118215223D01*
X118210574Y-118314714D01*
X118193106Y-118425000D01*
X112332500Y-118425000D01*
X112332500Y-116950000D01*
X124343106Y-116950000D01*
X124360574Y-117060286D01*
X124411267Y-117159777D01*
X124490223Y-117238733D01*
X124589714Y-117289426D01*
X124700000Y-117306894D01*
X124810286Y-117289426D01*
X124909777Y-117238733D01*
X124988733Y-117159777D01*
X125039426Y-117060286D01*
X125056894Y-116950000D01*
X125039426Y-116839714D01*
X125038298Y-116837500D01*
X129867500Y-116837500D01*
X129868099Y-116840510D01*
X129868099Y-116840513D01*
X129870579Y-116852978D01*
X129877586Y-116888206D01*
X129895892Y-116932400D01*
X129909467Y-116957261D01*
X129914258Y-116961122D01*
X129964121Y-117001305D01*
X129964124Y-117001307D01*
X129967600Y-117004108D01*
X130011794Y-117022414D01*
X130014798Y-117023012D01*
X130014803Y-117023013D01*
X130059487Y-117031901D01*
X130059490Y-117031901D01*
X130062500Y-117032500D01*
X132505000Y-117032500D01*
X132549194Y-117050806D01*
X132567500Y-117095000D01*
X132567500Y-117892498D01*
X132549194Y-117936692D01*
X132505000Y-117954998D01*
X132495229Y-117954229D01*
X132425000Y-117943106D01*
X132314714Y-117960574D01*
X132215223Y-118011267D01*
X132136267Y-118090223D01*
X132085574Y-118189714D01*
X132068106Y-118300000D01*
X132085574Y-118410286D01*
X132136267Y-118509777D01*
X132215223Y-118588733D01*
X132314714Y-118639426D01*
X132425000Y-118656894D01*
X132495224Y-118645771D01*
X132541737Y-118656939D01*
X132566731Y-118697725D01*
X132567500Y-118707502D01*
X132567500Y-119855247D01*
X132571161Y-119886179D01*
X132571589Y-119887960D01*
X132571590Y-119887968D01*
X132573312Y-119895139D01*
X132577973Y-119914553D01*
X132580543Y-119918748D01*
X132580544Y-119918749D01*
X132617348Y-119978807D01*
X132620759Y-119984374D01*
X132657133Y-120015441D01*
X132658512Y-120016384D01*
X132658516Y-120016387D01*
X132675436Y-120027957D01*
X132675438Y-120027958D01*
X132680517Y-120031431D01*
X132686541Y-120032696D01*
X132686542Y-120032697D01*
X132723106Y-120040378D01*
X132753581Y-120046780D01*
X132769161Y-120045554D01*
X132798212Y-120043268D01*
X132798216Y-120043267D01*
X132801269Y-120043027D01*
X132804213Y-120042197D01*
X132804217Y-120042196D01*
X132848075Y-120029827D01*
X132848079Y-120029825D01*
X132851027Y-120028994D01*
X132922351Y-119992653D01*
X132940941Y-119986612D01*
X132990227Y-119978806D01*
X133009775Y-119978807D01*
X133059057Y-119986613D01*
X133077653Y-119992655D01*
X133122103Y-120015303D01*
X133137923Y-120026797D01*
X133173203Y-120062077D01*
X133184697Y-120077897D01*
X133207345Y-120122347D01*
X133213388Y-120140944D01*
X133221193Y-120190223D01*
X133221193Y-120209777D01*
X133213388Y-120259056D01*
X133207345Y-120277653D01*
X133184697Y-120322103D01*
X133173203Y-120337923D01*
X133137923Y-120373203D01*
X133122103Y-120384697D01*
X133077653Y-120407345D01*
X133059057Y-120413387D01*
X133009775Y-120421193D01*
X132990227Y-120421194D01*
X132940941Y-120413388D01*
X132922351Y-120407347D01*
X132852674Y-120371845D01*
X132852671Y-120371844D01*
X132851027Y-120371006D01*
X132849297Y-120370368D01*
X132849293Y-120370366D01*
X132823530Y-120360862D01*
X132821806Y-120360226D01*
X132793432Y-120353414D01*
X132791769Y-120353065D01*
X132790839Y-120352869D01*
X132790837Y-120352869D01*
X132786025Y-120351858D01*
X132752923Y-120355417D01*
X132716237Y-120359361D01*
X132716235Y-120359362D01*
X132711794Y-120359839D01*
X132667600Y-120378145D01*
X132642739Y-120391720D01*
X132638878Y-120396511D01*
X132598695Y-120446374D01*
X132598693Y-120446377D01*
X132595892Y-120449853D01*
X132577586Y-120494047D01*
X132576988Y-120497051D01*
X132576987Y-120497056D01*
X132570633Y-120529000D01*
X132567500Y-120544753D01*
X132567500Y-125662500D01*
X132568099Y-125665510D01*
X132568099Y-125665513D01*
X132573020Y-125690249D01*
X132577586Y-125713206D01*
X132595892Y-125757400D01*
X132609467Y-125782261D01*
X132614258Y-125786122D01*
X132664121Y-125826305D01*
X132664124Y-125826307D01*
X132667600Y-125829108D01*
X132711794Y-125847414D01*
X132714798Y-125848012D01*
X132714803Y-125848013D01*
X132759487Y-125856901D01*
X132759490Y-125856901D01*
X132762500Y-125857500D01*
X135737500Y-125857500D01*
X135740510Y-125856901D01*
X135740513Y-125856901D01*
X135785197Y-125848013D01*
X135785202Y-125848012D01*
X135788206Y-125847414D01*
X135832400Y-125829108D01*
X135857261Y-125815533D01*
X135862498Y-125809034D01*
X135901305Y-125760879D01*
X135901307Y-125760876D01*
X135904108Y-125757400D01*
X135922414Y-125713206D01*
X135926981Y-125690249D01*
X135931901Y-125665513D01*
X135931901Y-125665510D01*
X135932500Y-125662500D01*
X135932500Y-125437500D01*
X145067500Y-125437500D01*
X145068099Y-125440510D01*
X145068099Y-125440513D01*
X145076703Y-125483765D01*
X145077586Y-125488206D01*
X145095892Y-125532400D01*
X145109467Y-125557261D01*
X145114258Y-125561122D01*
X145164121Y-125601305D01*
X145164124Y-125601307D01*
X145167600Y-125604108D01*
X145211794Y-125622414D01*
X145214798Y-125623012D01*
X145214803Y-125623013D01*
X145259487Y-125631901D01*
X145259490Y-125631901D01*
X145262500Y-125632500D01*
X149461567Y-125632500D01*
X149464158Y-125632059D01*
X149466664Y-125631848D01*
X149512240Y-125646375D01*
X149533390Y-125682843D01*
X149533651Y-125684268D01*
X149533907Y-125687311D01*
X149534748Y-125690245D01*
X149534749Y-125690249D01*
X149540469Y-125710197D01*
X149586746Y-125871583D01*
X149674370Y-126042082D01*
X149793443Y-126192314D01*
X149795773Y-126194297D01*
X149931462Y-126309777D01*
X149939428Y-126316557D01*
X149942092Y-126318046D01*
X149942095Y-126318048D01*
X150098432Y-126405422D01*
X150106765Y-126410079D01*
X150109669Y-126411023D01*
X150109670Y-126411023D01*
X150286168Y-126468371D01*
X150286173Y-126468372D01*
X150289081Y-126469317D01*
X150479430Y-126492015D01*
X150482472Y-126491781D01*
X150482475Y-126491781D01*
X150667514Y-126477543D01*
X150667519Y-126477542D01*
X150670562Y-126477308D01*
X150699182Y-126469317D01*
X150852260Y-126426577D01*
X150852264Y-126426576D01*
X150855199Y-126425756D01*
X151026305Y-126339324D01*
X151028703Y-126337451D01*
X151028707Y-126337448D01*
X151107523Y-126275869D01*
X151177365Y-126221303D01*
X151186875Y-126210286D01*
X151300630Y-126078500D01*
X151300634Y-126078495D01*
X151302624Y-126076189D01*
X151323544Y-126039364D01*
X151395801Y-125912170D01*
X151395803Y-125912165D01*
X151397312Y-125909509D01*
X151457821Y-125727612D01*
X151463098Y-125685841D01*
X151486799Y-125644290D01*
X151531649Y-125633705D01*
X151531856Y-125631600D01*
X151534909Y-125631901D01*
X151537922Y-125632500D01*
X153337500Y-125632500D01*
X153340510Y-125631901D01*
X153340513Y-125631901D01*
X153385197Y-125623013D01*
X153385202Y-125623012D01*
X153388206Y-125622414D01*
X153432400Y-125604108D01*
X153457261Y-125590533D01*
X153480962Y-125561122D01*
X153501305Y-125535879D01*
X153501307Y-125535876D01*
X153504108Y-125532400D01*
X153522414Y-125488206D01*
X153523298Y-125483765D01*
X153531901Y-125440513D01*
X153531901Y-125440510D01*
X153532500Y-125437500D01*
X153532500Y-124270229D01*
X153528839Y-124239297D01*
X153528411Y-124237516D01*
X153528410Y-124237508D01*
X153523176Y-124215709D01*
X153522027Y-124210923D01*
X153514310Y-124198330D01*
X153481812Y-124145297D01*
X153481811Y-124145296D01*
X153479241Y-124141102D01*
X153442867Y-124110035D01*
X153438936Y-124107347D01*
X153424564Y-124097519D01*
X153424562Y-124097518D01*
X153419483Y-124094045D01*
X153413459Y-124092780D01*
X153413458Y-124092779D01*
X153363137Y-124082208D01*
X153346419Y-124078696D01*
X153334742Y-124079615D01*
X153301788Y-124082208D01*
X153301784Y-124082209D01*
X153298731Y-124082449D01*
X153295787Y-124083279D01*
X153295783Y-124083280D01*
X153251925Y-124095649D01*
X153251921Y-124095651D01*
X153248973Y-124096482D01*
X153246237Y-124097876D01*
X153227649Y-124107347D01*
X153209059Y-124113388D01*
X153159773Y-124121194D01*
X153140225Y-124121193D01*
X153090943Y-124113387D01*
X153072347Y-124107345D01*
X153027897Y-124084697D01*
X153012077Y-124073203D01*
X152976797Y-124037923D01*
X152965303Y-124022103D01*
X152942655Y-123977653D01*
X152936612Y-123959056D01*
X152928807Y-123909777D01*
X152928807Y-123900000D01*
X156943106Y-123900000D01*
X156960574Y-124010286D01*
X157011267Y-124109777D01*
X157090223Y-124188733D01*
X157189714Y-124239426D01*
X157300000Y-124256894D01*
X157410286Y-124239426D01*
X157509777Y-124188733D01*
X157588733Y-124109777D01*
X157639426Y-124010286D01*
X157656894Y-123900000D01*
X157639426Y-123789714D01*
X157588733Y-123690223D01*
X157509777Y-123611267D01*
X157410286Y-123560574D01*
X157300000Y-123543106D01*
X157189714Y-123560574D01*
X157090223Y-123611267D01*
X157011267Y-123690223D01*
X156960574Y-123789714D01*
X156943106Y-123900000D01*
X152928807Y-123900000D01*
X152928807Y-123890223D01*
X152936612Y-123840944D01*
X152942655Y-123822347D01*
X152965303Y-123777897D01*
X152976797Y-123762077D01*
X153012077Y-123726797D01*
X153027897Y-123715303D01*
X153072347Y-123692655D01*
X153090943Y-123686613D01*
X153140225Y-123678807D01*
X153159773Y-123678806D01*
X153209059Y-123686612D01*
X153227649Y-123692653D01*
X153248973Y-123703518D01*
X153250703Y-123704156D01*
X153250707Y-123704158D01*
X153274605Y-123712974D01*
X153278194Y-123714298D01*
X153306568Y-123721110D01*
X153308231Y-123721459D01*
X153309161Y-123721655D01*
X153309163Y-123721655D01*
X153313975Y-123722666D01*
X153347838Y-123719025D01*
X153383763Y-123715163D01*
X153383765Y-123715162D01*
X153388206Y-123714685D01*
X153432400Y-123696379D01*
X153457261Y-123682804D01*
X153472630Y-123663733D01*
X153501305Y-123628150D01*
X153501307Y-123628147D01*
X153504108Y-123624671D01*
X153522414Y-123580477D01*
X153523624Y-123574398D01*
X153531901Y-123532784D01*
X153531901Y-123532781D01*
X153532500Y-123529771D01*
X153532500Y-123350000D01*
X155043106Y-123350000D01*
X155060574Y-123460286D01*
X155111267Y-123559777D01*
X155190223Y-123638733D01*
X155289714Y-123689426D01*
X155400000Y-123706894D01*
X155510286Y-123689426D01*
X155609777Y-123638733D01*
X155655806Y-123592704D01*
X155700000Y-123574398D01*
X155744194Y-123592704D01*
X155815223Y-123663733D01*
X155914714Y-123714426D01*
X156025000Y-123731894D01*
X156135286Y-123714426D01*
X156234777Y-123663733D01*
X156313733Y-123584777D01*
X156364426Y-123485286D01*
X156381894Y-123375000D01*
X156364426Y-123264714D01*
X156313733Y-123165223D01*
X156234777Y-123086267D01*
X156135286Y-123035574D01*
X156025000Y-123018106D01*
X155914714Y-123035574D01*
X155815223Y-123086267D01*
X155769194Y-123132296D01*
X155725000Y-123150602D01*
X155680806Y-123132296D01*
X155609777Y-123061267D01*
X155510286Y-123010574D01*
X155400000Y-122993106D01*
X155289714Y-123010574D01*
X155190223Y-123061267D01*
X155111267Y-123140223D01*
X155060574Y-123239714D01*
X155043106Y-123350000D01*
X153532500Y-123350000D01*
X153532500Y-122662500D01*
X153531087Y-122655394D01*
X153523013Y-122614803D01*
X153523012Y-122614798D01*
X153522414Y-122611794D01*
X153504108Y-122567600D01*
X153490533Y-122542739D01*
X153485383Y-122538589D01*
X153435879Y-122498695D01*
X153435876Y-122498693D01*
X153432400Y-122495892D01*
X153388206Y-122477586D01*
X153385202Y-122476988D01*
X153385197Y-122476987D01*
X153340513Y-122468099D01*
X153340510Y-122468099D01*
X153337500Y-122467500D01*
X151493571Y-122467500D01*
X151492429Y-122467584D01*
X151492426Y-122467584D01*
X151475355Y-122468838D01*
X151475354Y-122468838D01*
X151474212Y-122468922D01*
X151456147Y-122471590D01*
X151452291Y-122473295D01*
X151452290Y-122473295D01*
X151416993Y-122488900D01*
X151369171Y-122490027D01*
X151336537Y-122461079D01*
X151319555Y-122429140D01*
X151319553Y-122429137D01*
X151318120Y-122426442D01*
X151196962Y-122277887D01*
X151049256Y-122155694D01*
X150880629Y-122064518D01*
X150807733Y-122041953D01*
X150700420Y-122008734D01*
X150700417Y-122008733D01*
X150697505Y-122007832D01*
X150694472Y-122007513D01*
X150694471Y-122007513D01*
X150610125Y-121998648D01*
X150506857Y-121987794D01*
X150503824Y-121988070D01*
X150503820Y-121988070D01*
X150421118Y-121995597D01*
X150315948Y-122005168D01*
X150132050Y-122059292D01*
X149962167Y-122148105D01*
X149812770Y-122268223D01*
X149689549Y-122415072D01*
X149672240Y-122446557D01*
X149663964Y-122461611D01*
X149626632Y-122491519D01*
X149585277Y-122489243D01*
X149584449Y-122488900D01*
X149557135Y-122477586D01*
X149554131Y-122476988D01*
X149554126Y-122476987D01*
X149509442Y-122468099D01*
X149509439Y-122468099D01*
X149506429Y-122467500D01*
X145262500Y-122467500D01*
X145259490Y-122468099D01*
X145259487Y-122468099D01*
X145214803Y-122476987D01*
X145214798Y-122476988D01*
X145211794Y-122477586D01*
X145167600Y-122495892D01*
X145142739Y-122509467D01*
X145138878Y-122514258D01*
X145098695Y-122564121D01*
X145098693Y-122564124D01*
X145095892Y-122567600D01*
X145077586Y-122611794D01*
X145076988Y-122614798D01*
X145076987Y-122614803D01*
X145068913Y-122655394D01*
X145067500Y-122662500D01*
X145067500Y-125437500D01*
X135932500Y-125437500D01*
X135932500Y-123400000D01*
X138143106Y-123400000D01*
X138160574Y-123510286D01*
X138211267Y-123609777D01*
X138290223Y-123688733D01*
X138389714Y-123739426D01*
X138500000Y-123756894D01*
X138610286Y-123739426D01*
X138709777Y-123688733D01*
X138788733Y-123609777D01*
X138839426Y-123510286D01*
X138856894Y-123400000D01*
X138839426Y-123289714D01*
X138788733Y-123190223D01*
X138709777Y-123111267D01*
X138610286Y-123060574D01*
X138500000Y-123043106D01*
X138389714Y-123060574D01*
X138290223Y-123111267D01*
X138211267Y-123190223D01*
X138160574Y-123289714D01*
X138143106Y-123400000D01*
X135932500Y-123400000D01*
X135932500Y-121825000D01*
X137518106Y-121825000D01*
X137535574Y-121935286D01*
X137586267Y-122034777D01*
X137665223Y-122113733D01*
X137764714Y-122164426D01*
X137875000Y-122181894D01*
X137985286Y-122164426D01*
X138084777Y-122113733D01*
X138163733Y-122034777D01*
X138214426Y-121935286D01*
X138231894Y-121825000D01*
X138214426Y-121714714D01*
X138163733Y-121615223D01*
X138123510Y-121575000D01*
X138768106Y-121575000D01*
X138785574Y-121685286D01*
X138836267Y-121784777D01*
X138915223Y-121863733D01*
X139014714Y-121914426D01*
X139125000Y-121931894D01*
X139235286Y-121914426D01*
X139334777Y-121863733D01*
X139413733Y-121784777D01*
X139464426Y-121685286D01*
X139473771Y-121626286D01*
X153442866Y-121626286D01*
X153448711Y-121695892D01*
X153458444Y-121811794D01*
X153458907Y-121817311D01*
X153511746Y-122001583D01*
X153544839Y-122065975D01*
X153587048Y-122148105D01*
X153599370Y-122172082D01*
X153718443Y-122322314D01*
X153864428Y-122446557D01*
X153867092Y-122448046D01*
X153867095Y-122448048D01*
X153996457Y-122520346D01*
X154031765Y-122540079D01*
X154034669Y-122541023D01*
X154034670Y-122541023D01*
X154211168Y-122598371D01*
X154211173Y-122598372D01*
X154214081Y-122599317D01*
X154404430Y-122622015D01*
X154407472Y-122621781D01*
X154407475Y-122621781D01*
X154592514Y-122607543D01*
X154592519Y-122607542D01*
X154595562Y-122607308D01*
X154624182Y-122599317D01*
X154777260Y-122556577D01*
X154777264Y-122556576D01*
X154780199Y-122555756D01*
X154862351Y-122514258D01*
X154948585Y-122470698D01*
X154951305Y-122469324D01*
X154953703Y-122467451D01*
X154953707Y-122467448D01*
X154976039Y-122450000D01*
X156043106Y-122450000D01*
X156060574Y-122560286D01*
X156111267Y-122659777D01*
X156190223Y-122738733D01*
X156289714Y-122789426D01*
X156400000Y-122806894D01*
X156510286Y-122789426D01*
X156609777Y-122738733D01*
X156688733Y-122659777D01*
X156739426Y-122560286D01*
X156756894Y-122450000D01*
X156739426Y-122339714D01*
X156688733Y-122240223D01*
X156609777Y-122161267D01*
X156510286Y-122110574D01*
X156400000Y-122093106D01*
X156289714Y-122110574D01*
X156190223Y-122161267D01*
X156111267Y-122240223D01*
X156060574Y-122339714D01*
X156043106Y-122450000D01*
X154976039Y-122450000D01*
X155032523Y-122405869D01*
X155102365Y-122351303D01*
X155108170Y-122344578D01*
X155225630Y-122208500D01*
X155225634Y-122208495D01*
X155227624Y-122206189D01*
X155247000Y-122172082D01*
X155320801Y-122042170D01*
X155320803Y-122042165D01*
X155322312Y-122039509D01*
X155382821Y-121857612D01*
X155387542Y-121820247D01*
X155406627Y-121669167D01*
X155406627Y-121669166D01*
X155406847Y-121667425D01*
X155407230Y-121640000D01*
X155405886Y-121626286D01*
X155388822Y-121452257D01*
X155388524Y-121449217D01*
X155372604Y-121396486D01*
X155334001Y-121268629D01*
X155333117Y-121265701D01*
X155266145Y-121139745D01*
X155244555Y-121099140D01*
X155244553Y-121099137D01*
X155243120Y-121096442D01*
X155121962Y-120947887D01*
X154974256Y-120825694D01*
X154805629Y-120734518D01*
X154716125Y-120706812D01*
X154625420Y-120678734D01*
X154625417Y-120678733D01*
X154622505Y-120677832D01*
X154619472Y-120677513D01*
X154619471Y-120677513D01*
X154571787Y-120672501D01*
X154431857Y-120657794D01*
X154428824Y-120658070D01*
X154428820Y-120658070D01*
X154346118Y-120665597D01*
X154240948Y-120675168D01*
X154057050Y-120729292D01*
X153887167Y-120818105D01*
X153737770Y-120938223D01*
X153614549Y-121085072D01*
X153522198Y-121253058D01*
X153464234Y-121435783D01*
X153463894Y-121438815D01*
X153445254Y-121605000D01*
X153442866Y-121626286D01*
X139473771Y-121626286D01*
X139481894Y-121575000D01*
X139464426Y-121464714D01*
X139413733Y-121365223D01*
X139334777Y-121286267D01*
X139235286Y-121235574D01*
X139125000Y-121218106D01*
X139014714Y-121235574D01*
X138915223Y-121286267D01*
X138836267Y-121365223D01*
X138785574Y-121464714D01*
X138768106Y-121575000D01*
X138123510Y-121575000D01*
X138084777Y-121536267D01*
X137985286Y-121485574D01*
X137875000Y-121468106D01*
X137764714Y-121485574D01*
X137665223Y-121536267D01*
X137586267Y-121615223D01*
X137535574Y-121714714D01*
X137518106Y-121825000D01*
X135932500Y-121825000D01*
X135932500Y-120276583D01*
X139088489Y-120276583D01*
X139088736Y-120280507D01*
X139097096Y-120413387D01*
X139098369Y-120433629D01*
X139099584Y-120437367D01*
X139099584Y-120437369D01*
X139137933Y-120555394D01*
X139146995Y-120583283D01*
X139192758Y-120655395D01*
X139228216Y-120711267D01*
X139231310Y-120716143D01*
X139346018Y-120823860D01*
X139483910Y-120899667D01*
X139636322Y-120938800D01*
X139754183Y-120938800D01*
X139756135Y-120938553D01*
X139756141Y-120938553D01*
X139821087Y-120930348D01*
X139871115Y-120924028D01*
X139874771Y-120922581D01*
X139874773Y-120922580D01*
X139968861Y-120885328D01*
X140017421Y-120866102D01*
X140020599Y-120863793D01*
X140020601Y-120863792D01*
X140141541Y-120775923D01*
X140141543Y-120775921D01*
X140144724Y-120773610D01*
X140245027Y-120652365D01*
X140252168Y-120637191D01*
X140303360Y-120528401D01*
X140312026Y-120509985D01*
X140321267Y-120461543D01*
X140340774Y-120359282D01*
X140340774Y-120359280D01*
X140341511Y-120355417D01*
X140335033Y-120252448D01*
X140331878Y-120202295D01*
X140331878Y-120202294D01*
X140331631Y-120198371D01*
X140328500Y-120188733D01*
X140284219Y-120052453D01*
X140284219Y-120052452D01*
X140283005Y-120048717D01*
X140218372Y-119946871D01*
X140200796Y-119919175D01*
X140200795Y-119919173D01*
X140198690Y-119915857D01*
X140083982Y-119808140D01*
X139946090Y-119732333D01*
X139793678Y-119693200D01*
X139675817Y-119693200D01*
X139673865Y-119693447D01*
X139673859Y-119693447D01*
X139615364Y-119700837D01*
X139558885Y-119707972D01*
X139555229Y-119709419D01*
X139555227Y-119709420D01*
X139512573Y-119726308D01*
X139412579Y-119765898D01*
X139409401Y-119768207D01*
X139409399Y-119768208D01*
X139288459Y-119856077D01*
X139288457Y-119856079D01*
X139285276Y-119858390D01*
X139184973Y-119979635D01*
X139183300Y-119983191D01*
X139183299Y-119983192D01*
X139149874Y-120054224D01*
X139117974Y-120122015D01*
X139117238Y-120125873D01*
X139089968Y-120268832D01*
X139088489Y-120276583D01*
X135932500Y-120276583D01*
X135932500Y-119595000D01*
X135950806Y-119550806D01*
X135995000Y-119532500D01*
X140673250Y-119532500D01*
X140675364Y-119532141D01*
X140720840Y-119546630D01*
X140742802Y-119589155D01*
X140743258Y-119594578D01*
X140743907Y-119602311D01*
X140796746Y-119786583D01*
X140884370Y-119957082D01*
X141003443Y-120107314D01*
X141005773Y-120109297D01*
X141142644Y-120225783D01*
X141149428Y-120231557D01*
X141152092Y-120233046D01*
X141152095Y-120233048D01*
X141277313Y-120303030D01*
X141316765Y-120325079D01*
X141319669Y-120326023D01*
X141319670Y-120326023D01*
X141496168Y-120383371D01*
X141496173Y-120383372D01*
X141499081Y-120384317D01*
X141689430Y-120407015D01*
X141692472Y-120406781D01*
X141692475Y-120406781D01*
X141877514Y-120392543D01*
X141877519Y-120392542D01*
X141880562Y-120392308D01*
X141909182Y-120384317D01*
X142062260Y-120341577D01*
X142062264Y-120341576D01*
X142065199Y-120340756D01*
X142236305Y-120254324D01*
X142238703Y-120252451D01*
X142238707Y-120252448D01*
X142324709Y-120185255D01*
X142387365Y-120136303D01*
X142389362Y-120133990D01*
X142510630Y-119993500D01*
X142510634Y-119993495D01*
X142512624Y-119991189D01*
X142514345Y-119988160D01*
X142605801Y-119827170D01*
X142605803Y-119827165D01*
X142607312Y-119824509D01*
X142667821Y-119642612D01*
X142674944Y-119586230D01*
X142698645Y-119544679D01*
X142743079Y-119531865D01*
X142743435Y-119531900D01*
X142746451Y-119532500D01*
X143083501Y-119532500D01*
X143127695Y-119550806D01*
X143146001Y-119595000D01*
X143146001Y-120296945D01*
X143146600Y-120303030D01*
X143159536Y-120368068D01*
X143164157Y-120379224D01*
X143213457Y-120453007D01*
X143221993Y-120461543D01*
X143295775Y-120510843D01*
X143306933Y-120515464D01*
X143371970Y-120528401D01*
X143378054Y-120529000D01*
X144110569Y-120529000D01*
X144119359Y-120525359D01*
X144123000Y-120516569D01*
X144123000Y-119360500D01*
X144141306Y-119316306D01*
X144185500Y-119298000D01*
X144314500Y-119298000D01*
X144358694Y-119316306D01*
X144377000Y-119360500D01*
X144377000Y-120516568D01*
X144380641Y-120525358D01*
X144389431Y-120528999D01*
X145121945Y-120528999D01*
X145128030Y-120528400D01*
X145193068Y-120515464D01*
X145204224Y-120510843D01*
X145278007Y-120461543D01*
X145286543Y-120453007D01*
X145335843Y-120379225D01*
X145340464Y-120368067D01*
X145353401Y-120303030D01*
X145354000Y-120296946D01*
X145354000Y-119595000D01*
X145372306Y-119550806D01*
X145416500Y-119532500D01*
X149878721Y-119532500D01*
X149922915Y-119550806D01*
X149941221Y-119595000D01*
X149922915Y-119639194D01*
X149917884Y-119643709D01*
X149856330Y-119693200D01*
X149812770Y-119728223D01*
X149689549Y-119875072D01*
X149652147Y-119943106D01*
X149604930Y-120028994D01*
X149597198Y-120043058D01*
X149539234Y-120225783D01*
X149538419Y-120233048D01*
X149518365Y-120411840D01*
X149517866Y-120416286D01*
X149521929Y-120464672D01*
X149532168Y-120586599D01*
X149533907Y-120607311D01*
X149586746Y-120791583D01*
X149604746Y-120826607D01*
X149666086Y-120945962D01*
X149674370Y-120962082D01*
X149793443Y-121112314D01*
X149795773Y-121114297D01*
X149907962Y-121209777D01*
X149939428Y-121236557D01*
X149942092Y-121238046D01*
X149942095Y-121238048D01*
X150026562Y-121285255D01*
X150106765Y-121330079D01*
X150109669Y-121331023D01*
X150109670Y-121331023D01*
X150286168Y-121388371D01*
X150286173Y-121388372D01*
X150289081Y-121389317D01*
X150479430Y-121412015D01*
X150482472Y-121411781D01*
X150482475Y-121411781D01*
X150667514Y-121397543D01*
X150667519Y-121397542D01*
X150670562Y-121397308D01*
X150699182Y-121389317D01*
X150852260Y-121346577D01*
X150852264Y-121346576D01*
X150855199Y-121345756D01*
X151026305Y-121259324D01*
X151028703Y-121257451D01*
X151028707Y-121257448D01*
X151107523Y-121195869D01*
X151177365Y-121141303D01*
X151181712Y-121136267D01*
X151300630Y-120998500D01*
X151300634Y-120998495D01*
X151302624Y-120996189D01*
X151310514Y-120982301D01*
X151395801Y-120832170D01*
X151395803Y-120832165D01*
X151397312Y-120829509D01*
X151457821Y-120647612D01*
X151459138Y-120637191D01*
X151481627Y-120459167D01*
X151481627Y-120459166D01*
X151481847Y-120457425D01*
X151482127Y-120437369D01*
X151482206Y-120431738D01*
X151482206Y-120431733D01*
X151482230Y-120430000D01*
X151482026Y-120427910D01*
X151463822Y-120242257D01*
X151463524Y-120239217D01*
X151454636Y-120209777D01*
X151409001Y-120058629D01*
X151408117Y-120055701D01*
X151366061Y-119976605D01*
X151319555Y-119889140D01*
X151319553Y-119889137D01*
X151318120Y-119886442D01*
X151196962Y-119737887D01*
X151082453Y-119643157D01*
X151060069Y-119600882D01*
X151074135Y-119555161D01*
X151116410Y-119532777D01*
X151122292Y-119532500D01*
X153258501Y-119532500D01*
X153302695Y-119550806D01*
X153321001Y-119595000D01*
X153321001Y-119971945D01*
X153321600Y-119978030D01*
X153334536Y-120043068D01*
X153339157Y-120054224D01*
X153388457Y-120128007D01*
X153396993Y-120136543D01*
X153470775Y-120185843D01*
X153481933Y-120190464D01*
X153546970Y-120203401D01*
X153553054Y-120204000D01*
X154285569Y-120204000D01*
X154294359Y-120200359D01*
X154298000Y-120191569D01*
X154298000Y-119035500D01*
X154316306Y-118991306D01*
X154360500Y-118973000D01*
X154489500Y-118973000D01*
X154533694Y-118991306D01*
X154552000Y-119035500D01*
X154552000Y-120191568D01*
X154555641Y-120200358D01*
X154564431Y-120203999D01*
X155296945Y-120203999D01*
X155303030Y-120203400D01*
X155368068Y-120190464D01*
X155379224Y-120185843D01*
X155453007Y-120136543D01*
X155461543Y-120128007D01*
X155510843Y-120054225D01*
X155515464Y-120043067D01*
X155528401Y-119978030D01*
X155529000Y-119971946D01*
X155529000Y-119595000D01*
X155547306Y-119550806D01*
X155591500Y-119532500D01*
X156037500Y-119532500D01*
X156040510Y-119531901D01*
X156040513Y-119531901D01*
X156085197Y-119523013D01*
X156085202Y-119523012D01*
X156088206Y-119522414D01*
X156132400Y-119504108D01*
X156157261Y-119490533D01*
X156174125Y-119469606D01*
X156201305Y-119435879D01*
X156201307Y-119435876D01*
X156204108Y-119432400D01*
X156222414Y-119388206D01*
X156224208Y-119379191D01*
X156231901Y-119340513D01*
X156231901Y-119340510D01*
X156232500Y-119337500D01*
X156232500Y-117181452D01*
X161396030Y-117181452D01*
X161435779Y-117347022D01*
X161437504Y-117350364D01*
X161437505Y-117350367D01*
X161474827Y-117422676D01*
X161513875Y-117498330D01*
X161625809Y-117626642D01*
X161628891Y-117628808D01*
X161628892Y-117628809D01*
X161635871Y-117633714D01*
X161765119Y-117724551D01*
X161855733Y-117759880D01*
X161920252Y-117785035D01*
X161920256Y-117785036D01*
X161923762Y-117786403D01*
X161927499Y-117786895D01*
X162051597Y-117803233D01*
X162051603Y-117803233D01*
X162053628Y-117803500D01*
X162142698Y-117803500D01*
X162269041Y-117788211D01*
X162428323Y-117728023D01*
X162568650Y-117631579D01*
X162681921Y-117504446D01*
X162761598Y-117353964D01*
X162803079Y-117188820D01*
X162803138Y-117177681D01*
X162803729Y-117064672D01*
X162803970Y-117018548D01*
X162800504Y-117004108D01*
X162765100Y-116856641D01*
X162764221Y-116852978D01*
X162759886Y-116844578D01*
X162708286Y-116744606D01*
X162686125Y-116701670D01*
X162648695Y-116658764D01*
X162576667Y-116576196D01*
X162576666Y-116576195D01*
X162574191Y-116573358D01*
X162567167Y-116568421D01*
X162437967Y-116477618D01*
X162437968Y-116477618D01*
X162434881Y-116475449D01*
X162344267Y-116440120D01*
X162279748Y-116414965D01*
X162279744Y-116414964D01*
X162276238Y-116413597D01*
X162259064Y-116411336D01*
X162148403Y-116396767D01*
X162148397Y-116396767D01*
X162146372Y-116396500D01*
X162057302Y-116396500D01*
X161930959Y-116411789D01*
X161771677Y-116471977D01*
X161631350Y-116568421D01*
X161518079Y-116695554D01*
X161438402Y-116846036D01*
X161396921Y-117011180D01*
X161396901Y-117014945D01*
X161396901Y-117014947D01*
X161396689Y-117055422D01*
X161396030Y-117181452D01*
X156232500Y-117181452D01*
X156232500Y-114762558D01*
X159572500Y-114762558D01*
X159579898Y-114799748D01*
X159608078Y-114841922D01*
X159650252Y-114870102D01*
X159656285Y-114871302D01*
X159656287Y-114871303D01*
X159682384Y-114876494D01*
X159687442Y-114877500D01*
X162112558Y-114877500D01*
X162117616Y-114876494D01*
X162143713Y-114871303D01*
X162143715Y-114871302D01*
X162149748Y-114870102D01*
X162191922Y-114841922D01*
X162220102Y-114799748D01*
X162227500Y-114762558D01*
X162227500Y-112337442D01*
X162220102Y-112300252D01*
X162191922Y-112258078D01*
X162149748Y-112229898D01*
X162143715Y-112228698D01*
X162143713Y-112228697D01*
X162115569Y-112223099D01*
X162112558Y-112222500D01*
X159687442Y-112222500D01*
X159684431Y-112223099D01*
X159656287Y-112228697D01*
X159656285Y-112228698D01*
X159650252Y-112229898D01*
X159608078Y-112258078D01*
X159579898Y-112300252D01*
X159572500Y-112337442D01*
X159572500Y-114762558D01*
X156232500Y-114762558D01*
X156232500Y-112562500D01*
X156222414Y-112511794D01*
X156204108Y-112467600D01*
X156190533Y-112442739D01*
X156155191Y-112414258D01*
X156135879Y-112398695D01*
X156135876Y-112398693D01*
X156132400Y-112395892D01*
X156088206Y-112377586D01*
X156085202Y-112376988D01*
X156085197Y-112376987D01*
X156040513Y-112368099D01*
X156040510Y-112368099D01*
X156037500Y-112367500D01*
X148810273Y-112367500D01*
X148787002Y-112371185D01*
X148779091Y-112372438D01*
X148732577Y-112361270D01*
X148713627Y-112339081D01*
X148690966Y-112294605D01*
X148690965Y-112294604D01*
X148688733Y-112290223D01*
X148609777Y-112211267D01*
X148510286Y-112160574D01*
X148400000Y-112143106D01*
X148289714Y-112160574D01*
X148190223Y-112211267D01*
X148111267Y-112290223D01*
X148109034Y-112294605D01*
X148109032Y-112294608D01*
X148105687Y-112301173D01*
X148069313Y-112332239D01*
X148021625Y-112328485D01*
X147994313Y-112301173D01*
X147990968Y-112294608D01*
X147990966Y-112294605D01*
X147988733Y-112290223D01*
X147909777Y-112211267D01*
X147810286Y-112160574D01*
X147700000Y-112143106D01*
X147589714Y-112160574D01*
X147490223Y-112211267D01*
X147411267Y-112290223D01*
X147409034Y-112294605D01*
X147409032Y-112294608D01*
X147405687Y-112301173D01*
X147369313Y-112332239D01*
X147321625Y-112328485D01*
X147294313Y-112301173D01*
X147290968Y-112294608D01*
X147290966Y-112294605D01*
X147288733Y-112290223D01*
X147209777Y-112211267D01*
X147110286Y-112160574D01*
X147000000Y-112143106D01*
X146889714Y-112160574D01*
X146790223Y-112211267D01*
X146711267Y-112290223D01*
X146709034Y-112294606D01*
X146685810Y-112340185D01*
X146649435Y-112371252D01*
X146617930Y-112373110D01*
X146589727Y-112367500D01*
X143860273Y-112367500D01*
X143837002Y-112371185D01*
X143829091Y-112372438D01*
X143782577Y-112361270D01*
X143763627Y-112339081D01*
X143740966Y-112294605D01*
X143740965Y-112294604D01*
X143738733Y-112290223D01*
X143717704Y-112269194D01*
X143699398Y-112225000D01*
X143717704Y-112180806D01*
X143738733Y-112159777D01*
X143789426Y-112060286D01*
X143806894Y-111950000D01*
X143789426Y-111839714D01*
X143738733Y-111740223D01*
X143717704Y-111719194D01*
X143699398Y-111675000D01*
X143717704Y-111630806D01*
X143738733Y-111609777D01*
X143789426Y-111510286D01*
X143806894Y-111400000D01*
X146643106Y-111400000D01*
X146660574Y-111510286D01*
X146711267Y-111609777D01*
X146790223Y-111688733D01*
X146889714Y-111739426D01*
X147000000Y-111756894D01*
X147110286Y-111739426D01*
X147209777Y-111688733D01*
X147288733Y-111609777D01*
X147290966Y-111605395D01*
X147290968Y-111605392D01*
X147294313Y-111598827D01*
X147330687Y-111567761D01*
X147378375Y-111571515D01*
X147405687Y-111598827D01*
X147409032Y-111605392D01*
X147409034Y-111605395D01*
X147411267Y-111609777D01*
X147490223Y-111688733D01*
X147589714Y-111739426D01*
X147700000Y-111756894D01*
X147810286Y-111739426D01*
X147909777Y-111688733D01*
X147988733Y-111609777D01*
X147990966Y-111605395D01*
X147990968Y-111605392D01*
X147994313Y-111598827D01*
X148030687Y-111567761D01*
X148078375Y-111571515D01*
X148105687Y-111598827D01*
X148109032Y-111605392D01*
X148109034Y-111605395D01*
X148111267Y-111609777D01*
X148190223Y-111688733D01*
X148289714Y-111739426D01*
X148400000Y-111756894D01*
X148510286Y-111739426D01*
X148609777Y-111688733D01*
X148688733Y-111609777D01*
X148719191Y-111550000D01*
X151793106Y-111550000D01*
X151810574Y-111660286D01*
X151861267Y-111759777D01*
X151940223Y-111838733D01*
X152039714Y-111889426D01*
X152150000Y-111906894D01*
X152260286Y-111889426D01*
X152359777Y-111838733D01*
X152438733Y-111759777D01*
X152489426Y-111660286D01*
X152506894Y-111550000D01*
X152489426Y-111439714D01*
X152438733Y-111340223D01*
X152359777Y-111261267D01*
X152260286Y-111210574D01*
X152150000Y-111193106D01*
X152039714Y-111210574D01*
X151940223Y-111261267D01*
X151861267Y-111340223D01*
X151810574Y-111439714D01*
X151793106Y-111550000D01*
X148719191Y-111550000D01*
X148739426Y-111510286D01*
X148756894Y-111400000D01*
X148739426Y-111289714D01*
X148688733Y-111190223D01*
X148609777Y-111111267D01*
X148510286Y-111060574D01*
X148400000Y-111043106D01*
X148289714Y-111060574D01*
X148190223Y-111111267D01*
X148111267Y-111190223D01*
X148109034Y-111194605D01*
X148109032Y-111194608D01*
X148105687Y-111201173D01*
X148069313Y-111232239D01*
X148021625Y-111228485D01*
X147994313Y-111201173D01*
X147990968Y-111194608D01*
X147990966Y-111194605D01*
X147988733Y-111190223D01*
X147909777Y-111111267D01*
X147810286Y-111060574D01*
X147700000Y-111043106D01*
X147589714Y-111060574D01*
X147490223Y-111111267D01*
X147411267Y-111190223D01*
X147409034Y-111194605D01*
X147409032Y-111194608D01*
X147405687Y-111201173D01*
X147369313Y-111232239D01*
X147321625Y-111228485D01*
X147294313Y-111201173D01*
X147290968Y-111194608D01*
X147290966Y-111194605D01*
X147288733Y-111190223D01*
X147209777Y-111111267D01*
X147110286Y-111060574D01*
X147000000Y-111043106D01*
X146889714Y-111060574D01*
X146790223Y-111111267D01*
X146711267Y-111190223D01*
X146660574Y-111289714D01*
X146643106Y-111400000D01*
X143806894Y-111400000D01*
X143789426Y-111289714D01*
X143738733Y-111190223D01*
X143659777Y-111111267D01*
X143560286Y-111060574D01*
X143450000Y-111043106D01*
X143339714Y-111060574D01*
X143240223Y-111111267D01*
X143161267Y-111190223D01*
X143110574Y-111289714D01*
X143093106Y-111400000D01*
X143110574Y-111510286D01*
X143161267Y-111609777D01*
X143182296Y-111630806D01*
X143200602Y-111675000D01*
X143182296Y-111719194D01*
X143161267Y-111740223D01*
X143110574Y-111839714D01*
X143093106Y-111950000D01*
X143110574Y-112060286D01*
X143161267Y-112159777D01*
X143182296Y-112180806D01*
X143200602Y-112225000D01*
X143182296Y-112269194D01*
X143161267Y-112290223D01*
X143159034Y-112294606D01*
X143135810Y-112340185D01*
X143099435Y-112371252D01*
X143067930Y-112373110D01*
X143039727Y-112367500D01*
X142962500Y-112367500D01*
X142918306Y-112349194D01*
X142900000Y-112305000D01*
X142900000Y-110200000D01*
X134100000Y-110200000D01*
X134100000Y-112305000D01*
X134081694Y-112349194D01*
X134037500Y-112367500D01*
X131862500Y-112367500D01*
X131859490Y-112368099D01*
X131859487Y-112368099D01*
X131814803Y-112376987D01*
X131814798Y-112376988D01*
X131811794Y-112377586D01*
X131767600Y-112395892D01*
X131742739Y-112409467D01*
X131738878Y-112414258D01*
X131698695Y-112464121D01*
X131698693Y-112464124D01*
X131695892Y-112467600D01*
X131677586Y-112511794D01*
X131667500Y-112562500D01*
X131667500Y-114205000D01*
X131649194Y-114249194D01*
X131605000Y-114267500D01*
X130062500Y-114267500D01*
X130059490Y-114268099D01*
X130059487Y-114268099D01*
X130014803Y-114276987D01*
X130014798Y-114276988D01*
X130011794Y-114277586D01*
X129967600Y-114295892D01*
X129942739Y-114309467D01*
X129938878Y-114314258D01*
X129898695Y-114364121D01*
X129898693Y-114364124D01*
X129895892Y-114367600D01*
X129877586Y-114411794D01*
X129867500Y-114462500D01*
X129867500Y-116837500D01*
X125038298Y-116837500D01*
X124988733Y-116740223D01*
X124909777Y-116661267D01*
X124810286Y-116610574D01*
X124700000Y-116593106D01*
X124589714Y-116610574D01*
X124490223Y-116661267D01*
X124411267Y-116740223D01*
X124360574Y-116839714D01*
X124343106Y-116950000D01*
X112332500Y-116950000D01*
X112332500Y-115025000D01*
X119643106Y-115025000D01*
X119660574Y-115135286D01*
X119711267Y-115234777D01*
X119790223Y-115313733D01*
X119889714Y-115364426D01*
X120000000Y-115381894D01*
X120110286Y-115364426D01*
X120209777Y-115313733D01*
X120288733Y-115234777D01*
X120339426Y-115135286D01*
X120356894Y-115025000D01*
X120339426Y-114914714D01*
X120288733Y-114815223D01*
X120209777Y-114736267D01*
X120110286Y-114685574D01*
X120000000Y-114668106D01*
X119889714Y-114685574D01*
X119790223Y-114736267D01*
X119711267Y-114815223D01*
X119660574Y-114914714D01*
X119643106Y-115025000D01*
X112332500Y-115025000D01*
X112332500Y-107062500D01*
X112350806Y-107018306D01*
X112395000Y-107000000D01*
X112605000Y-107000000D01*
X112649194Y-107018306D01*
G37*
%TD.AperFunction*%
%TD*%
%TA.AperFunction,Conductor*%
%TO.N,+5V*%
G36*
X112181694Y-101018306D02*
G01*
X112200000Y-101062500D01*
X112200000Y-121010767D01*
X112181694Y-121054961D01*
X112147277Y-121072497D01*
X112064714Y-121085574D01*
X111965223Y-121136267D01*
X111886267Y-121215223D01*
X111835574Y-121314714D01*
X111818106Y-121425000D01*
X111835574Y-121535286D01*
X111886267Y-121634777D01*
X111965223Y-121713733D01*
X112064714Y-121764426D01*
X112128260Y-121774491D01*
X112164670Y-121780258D01*
X112178723Y-121788870D01*
X112179724Y-121786452D01*
X112200000Y-121794851D01*
X112200000Y-121800000D01*
X122537500Y-121800000D01*
X122581694Y-121818306D01*
X122600000Y-121862500D01*
X122600000Y-125337500D01*
X122581694Y-125381694D01*
X122537500Y-125400000D01*
X121347677Y-125400000D01*
X121303483Y-125381694D01*
X121285177Y-125337500D01*
X121303483Y-125293306D01*
X121307447Y-125289920D01*
X121309777Y-125288733D01*
X121388733Y-125209777D01*
X121439426Y-125110286D01*
X121456894Y-125000000D01*
X121439426Y-124889714D01*
X121388733Y-124790223D01*
X121309777Y-124711267D01*
X121210286Y-124660574D01*
X121100000Y-124643106D01*
X120989714Y-124660574D01*
X120890223Y-124711267D01*
X120857798Y-124743692D01*
X120813604Y-124761998D01*
X120769410Y-124743692D01*
X120757916Y-124727872D01*
X120751850Y-124715966D01*
X120738733Y-124690223D01*
X120659777Y-124611267D01*
X120560286Y-124560574D01*
X120450000Y-124543106D01*
X120420273Y-124547814D01*
X120373761Y-124536648D01*
X120348767Y-124495861D01*
X120348767Y-124476311D01*
X120356894Y-124425000D01*
X120339426Y-124314714D01*
X120288733Y-124215223D01*
X120209777Y-124136267D01*
X120110286Y-124085574D01*
X120000000Y-124068106D01*
X119889714Y-124085574D01*
X119790223Y-124136267D01*
X119711267Y-124215223D01*
X119660574Y-124314714D01*
X119643106Y-124425000D01*
X119660574Y-124535286D01*
X119711267Y-124634777D01*
X119790223Y-124713733D01*
X119889714Y-124764426D01*
X120000000Y-124781894D01*
X120029727Y-124777186D01*
X120076239Y-124788352D01*
X120101233Y-124829139D01*
X120101233Y-124848689D01*
X120093106Y-124900000D01*
X120110574Y-125010286D01*
X120161267Y-125109777D01*
X120240223Y-125188733D01*
X120339714Y-125239426D01*
X120450000Y-125256894D01*
X120560286Y-125239426D01*
X120659777Y-125188733D01*
X120692202Y-125156308D01*
X120736396Y-125138002D01*
X120780590Y-125156308D01*
X120792084Y-125172128D01*
X120811267Y-125209777D01*
X120890223Y-125288733D01*
X120890184Y-125288772D01*
X120914054Y-125327724D01*
X120902886Y-125374237D01*
X120862099Y-125399231D01*
X120852323Y-125400000D01*
X115143194Y-125400000D01*
X115099000Y-125381694D01*
X115080694Y-125337500D01*
X115081125Y-125332018D01*
X115081125Y-125329856D01*
X115081894Y-125325000D01*
X115064426Y-125214714D01*
X115013733Y-125115223D01*
X114934777Y-125036267D01*
X114835286Y-124985574D01*
X114725000Y-124968106D01*
X114614714Y-124985574D01*
X114515223Y-125036267D01*
X114436267Y-125115223D01*
X114385574Y-125214714D01*
X114368106Y-125325000D01*
X114368875Y-125329857D01*
X114368875Y-125334780D01*
X114366844Y-125334780D01*
X114357366Y-125374242D01*
X114316577Y-125399232D01*
X114306806Y-125400000D01*
X109153603Y-125400000D01*
X109109409Y-125381694D01*
X109091103Y-125337500D01*
X109109409Y-125293306D01*
X109125229Y-125281812D01*
X109209777Y-125238733D01*
X109288733Y-125159777D01*
X109339426Y-125060286D01*
X109356894Y-124950000D01*
X109339426Y-124839714D01*
X109288733Y-124740223D01*
X109209777Y-124661267D01*
X109110286Y-124610574D01*
X109000000Y-124593106D01*
X108889714Y-124610574D01*
X108790223Y-124661267D01*
X108711267Y-124740223D01*
X108660574Y-124839714D01*
X108643106Y-124950000D01*
X108648214Y-124982248D01*
X108637046Y-125028760D01*
X108596260Y-125053754D01*
X108576710Y-125053754D01*
X108500000Y-125041604D01*
X108389714Y-125059072D01*
X108290223Y-125109765D01*
X108211267Y-125188721D01*
X108160574Y-125288212D01*
X108151218Y-125347280D01*
X108126226Y-125388064D01*
X108089489Y-125400000D01*
X106662500Y-125400000D01*
X106618306Y-125381694D01*
X106600000Y-125337500D01*
X106600000Y-124411644D01*
X106618306Y-124367450D01*
X106627099Y-124360136D01*
X106668650Y-124331579D01*
X106781921Y-124204446D01*
X106837223Y-124100000D01*
X115343106Y-124100000D01*
X115360574Y-124210286D01*
X115411267Y-124309777D01*
X115490223Y-124388733D01*
X115589714Y-124439426D01*
X115700000Y-124456894D01*
X115810286Y-124439426D01*
X115909777Y-124388733D01*
X115973510Y-124325000D01*
X118193106Y-124325000D01*
X118210574Y-124435286D01*
X118261267Y-124534777D01*
X118340223Y-124613733D01*
X118439714Y-124664426D01*
X118550000Y-124681894D01*
X118660286Y-124664426D01*
X118759777Y-124613733D01*
X118838733Y-124534777D01*
X118889426Y-124435286D01*
X118906894Y-124325000D01*
X118889426Y-124214714D01*
X118838733Y-124115223D01*
X118759777Y-124036267D01*
X118660286Y-123985574D01*
X118550000Y-123968106D01*
X118439714Y-123985574D01*
X118340223Y-124036267D01*
X118261267Y-124115223D01*
X118210574Y-124214714D01*
X118193106Y-124325000D01*
X115973510Y-124325000D01*
X115988733Y-124309777D01*
X116039426Y-124210286D01*
X116056894Y-124100000D01*
X116039426Y-123989714D01*
X115988733Y-123890223D01*
X115909777Y-123811267D01*
X115810286Y-123760574D01*
X115700000Y-123743106D01*
X115589714Y-123760574D01*
X115490223Y-123811267D01*
X115411267Y-123890223D01*
X115360574Y-123989714D01*
X115343106Y-124100000D01*
X106837223Y-124100000D01*
X106861598Y-124053964D01*
X106903079Y-123888820D01*
X106903970Y-123718548D01*
X106889169Y-123656894D01*
X106865100Y-123556641D01*
X106864221Y-123552978D01*
X106843719Y-123513255D01*
X106825173Y-123477324D01*
X106786125Y-123401670D01*
X106701673Y-123304861D01*
X106676667Y-123276196D01*
X106676666Y-123276195D01*
X106674191Y-123273358D01*
X106667167Y-123268421D01*
X106626562Y-123239884D01*
X106600931Y-123199496D01*
X106600000Y-123188750D01*
X106600000Y-123075000D01*
X114743106Y-123075000D01*
X114760574Y-123185286D01*
X114811267Y-123284777D01*
X114890223Y-123363733D01*
X114989714Y-123414426D01*
X115100000Y-123431894D01*
X115210286Y-123414426D01*
X115309777Y-123363733D01*
X115373510Y-123300000D01*
X120643106Y-123300000D01*
X120660574Y-123410286D01*
X120711267Y-123509777D01*
X120790223Y-123588733D01*
X120889714Y-123639426D01*
X121000000Y-123656894D01*
X121110286Y-123639426D01*
X121209777Y-123588733D01*
X121288733Y-123509777D01*
X121339426Y-123410286D01*
X121356894Y-123300000D01*
X121339426Y-123189714D01*
X121288733Y-123090223D01*
X121209777Y-123011267D01*
X121110286Y-122960574D01*
X121000000Y-122943106D01*
X120889714Y-122960574D01*
X120790223Y-123011267D01*
X120711267Y-123090223D01*
X120660574Y-123189714D01*
X120643106Y-123300000D01*
X115373510Y-123300000D01*
X115388733Y-123284777D01*
X115439426Y-123185286D01*
X115456894Y-123075000D01*
X115439426Y-122964714D01*
X115388733Y-122865223D01*
X115309777Y-122786267D01*
X115210286Y-122735574D01*
X115100000Y-122718106D01*
X114989714Y-122735574D01*
X114890223Y-122786267D01*
X114811267Y-122865223D01*
X114760574Y-122964714D01*
X114743106Y-123075000D01*
X106600000Y-123075000D01*
X106600000Y-122650000D01*
X108793106Y-122650000D01*
X108810574Y-122760286D01*
X108861267Y-122859777D01*
X108940223Y-122938733D01*
X109039714Y-122989426D01*
X109150000Y-123006894D01*
X109260286Y-122989426D01*
X109359777Y-122938733D01*
X109438733Y-122859777D01*
X109489426Y-122760286D01*
X109506894Y-122650000D01*
X109489426Y-122539714D01*
X109469191Y-122500000D01*
X110243106Y-122500000D01*
X110260574Y-122610286D01*
X110311267Y-122709777D01*
X110390223Y-122788733D01*
X110489714Y-122839426D01*
X110600000Y-122856894D01*
X110710286Y-122839426D01*
X110809777Y-122788733D01*
X110888733Y-122709777D01*
X110939426Y-122610286D01*
X110952934Y-122525000D01*
X117668106Y-122525000D01*
X117685574Y-122635286D01*
X117736267Y-122734777D01*
X117815223Y-122813733D01*
X117914714Y-122864426D01*
X118025000Y-122881894D01*
X118135286Y-122864426D01*
X118234777Y-122813733D01*
X118313733Y-122734777D01*
X118364426Y-122635286D01*
X118381894Y-122525000D01*
X118364426Y-122414714D01*
X118313733Y-122315223D01*
X118234777Y-122236267D01*
X118135286Y-122185574D01*
X118025000Y-122168106D01*
X117914714Y-122185574D01*
X117815223Y-122236267D01*
X117736267Y-122315223D01*
X117685574Y-122414714D01*
X117668106Y-122525000D01*
X110952934Y-122525000D01*
X110956894Y-122500000D01*
X110939426Y-122389714D01*
X110888733Y-122290223D01*
X110809777Y-122211267D01*
X110710286Y-122160574D01*
X110600000Y-122143106D01*
X110489714Y-122160574D01*
X110390223Y-122211267D01*
X110311267Y-122290223D01*
X110260574Y-122389714D01*
X110243106Y-122500000D01*
X109469191Y-122500000D01*
X109438733Y-122440223D01*
X109359777Y-122361267D01*
X109260286Y-122310574D01*
X109150000Y-122293106D01*
X109039714Y-122310574D01*
X108940223Y-122361267D01*
X108861267Y-122440223D01*
X108810574Y-122539714D01*
X108793106Y-122650000D01*
X106600000Y-122650000D01*
X106600000Y-120900000D01*
X110043106Y-120900000D01*
X110060574Y-121010286D01*
X110111267Y-121109777D01*
X110190223Y-121188733D01*
X110289714Y-121239426D01*
X110400000Y-121256894D01*
X110510286Y-121239426D01*
X110609777Y-121188733D01*
X110688733Y-121109777D01*
X110739426Y-121010286D01*
X110756894Y-120900000D01*
X110739426Y-120789714D01*
X110688733Y-120690223D01*
X110609777Y-120611267D01*
X110510286Y-120560574D01*
X110400000Y-120543106D01*
X110289714Y-120560574D01*
X110190223Y-120611267D01*
X110111267Y-120690223D01*
X110060574Y-120789714D01*
X110043106Y-120900000D01*
X106600000Y-120900000D01*
X106600000Y-117300000D01*
X109443106Y-117300000D01*
X109460574Y-117410286D01*
X109511267Y-117509777D01*
X109590223Y-117588733D01*
X109689714Y-117639426D01*
X109800000Y-117656894D01*
X109910286Y-117639426D01*
X110009777Y-117588733D01*
X110088733Y-117509777D01*
X110139426Y-117410286D01*
X110156894Y-117300000D01*
X110139426Y-117189714D01*
X110093715Y-117100000D01*
X110543106Y-117100000D01*
X110560574Y-117210286D01*
X110611267Y-117309777D01*
X110690223Y-117388733D01*
X110789714Y-117439426D01*
X110900000Y-117456894D01*
X111010286Y-117439426D01*
X111109777Y-117388733D01*
X111188733Y-117309777D01*
X111239426Y-117210286D01*
X111256894Y-117100000D01*
X111239426Y-116989714D01*
X111188733Y-116890223D01*
X111109777Y-116811267D01*
X111010286Y-116760574D01*
X110900000Y-116743106D01*
X110789714Y-116760574D01*
X110690223Y-116811267D01*
X110611267Y-116890223D01*
X110560574Y-116989714D01*
X110543106Y-117100000D01*
X110093715Y-117100000D01*
X110088733Y-117090223D01*
X110009777Y-117011267D01*
X109910286Y-116960574D01*
X109800000Y-116943106D01*
X109689714Y-116960574D01*
X109590223Y-117011267D01*
X109511267Y-117090223D01*
X109460574Y-117189714D01*
X109443106Y-117300000D01*
X106600000Y-117300000D01*
X106600000Y-116425000D01*
X109193106Y-116425000D01*
X109210574Y-116535286D01*
X109261267Y-116634777D01*
X109340223Y-116713733D01*
X109439714Y-116764426D01*
X109550000Y-116781894D01*
X109660286Y-116764426D01*
X109759777Y-116713733D01*
X109838733Y-116634777D01*
X109889426Y-116535286D01*
X109906894Y-116425000D01*
X109889426Y-116314714D01*
X109838733Y-116215223D01*
X109759777Y-116136267D01*
X109660286Y-116085574D01*
X109550000Y-116068106D01*
X109439714Y-116085574D01*
X109340223Y-116136267D01*
X109261267Y-116215223D01*
X109210574Y-116314714D01*
X109193106Y-116425000D01*
X106600000Y-116425000D01*
X106600000Y-114275000D01*
X111068106Y-114275000D01*
X111085574Y-114385286D01*
X111136267Y-114484777D01*
X111215223Y-114563733D01*
X111314714Y-114614426D01*
X111425000Y-114631894D01*
X111535286Y-114614426D01*
X111634777Y-114563733D01*
X111713733Y-114484777D01*
X111764426Y-114385286D01*
X111781894Y-114275000D01*
X111764426Y-114164714D01*
X111713733Y-114065223D01*
X111634777Y-113986267D01*
X111535286Y-113935574D01*
X111425000Y-113918106D01*
X111314714Y-113935574D01*
X111215223Y-113986267D01*
X111136267Y-114065223D01*
X111085574Y-114164714D01*
X111068106Y-114275000D01*
X106600000Y-114275000D01*
X106600000Y-113300000D01*
X110043106Y-113300000D01*
X110060574Y-113410286D01*
X110111267Y-113509777D01*
X110190223Y-113588733D01*
X110289714Y-113639426D01*
X110400000Y-113656894D01*
X110510286Y-113639426D01*
X110609777Y-113588733D01*
X110688733Y-113509777D01*
X110739426Y-113410286D01*
X110756894Y-113300000D01*
X110739426Y-113189714D01*
X110688733Y-113090223D01*
X110609777Y-113011267D01*
X110510286Y-112960574D01*
X110400000Y-112943106D01*
X110289714Y-112960574D01*
X110190223Y-113011267D01*
X110111267Y-113090223D01*
X110060574Y-113189714D01*
X110043106Y-113300000D01*
X106600000Y-113300000D01*
X106600000Y-112249398D01*
X106618306Y-112205204D01*
X106662500Y-112186898D01*
X106706694Y-112205204D01*
X106715223Y-112213733D01*
X106814714Y-112264426D01*
X106925000Y-112281894D01*
X107035286Y-112264426D01*
X107134777Y-112213733D01*
X107213733Y-112134777D01*
X107264426Y-112035286D01*
X107281894Y-111925000D01*
X107264426Y-111814714D01*
X107213733Y-111715223D01*
X107134777Y-111636267D01*
X107068136Y-111602312D01*
X107037070Y-111565937D01*
X107040823Y-111518249D01*
X107073328Y-111490491D01*
X107072786Y-111489426D01*
X107167894Y-111440966D01*
X107172277Y-111438733D01*
X107251233Y-111359777D01*
X107301926Y-111260286D01*
X107319394Y-111150000D01*
X107301926Y-111039714D01*
X107251233Y-110940223D01*
X107172277Y-110861267D01*
X107106011Y-110827503D01*
X107074945Y-110791128D01*
X107078698Y-110743440D01*
X107106011Y-110716128D01*
X107138846Y-110699398D01*
X107155395Y-110690966D01*
X107155398Y-110690964D01*
X107159777Y-110688733D01*
X107238733Y-110609777D01*
X107289426Y-110510286D01*
X107306894Y-110400000D01*
X107289426Y-110289714D01*
X107238733Y-110190223D01*
X107159777Y-110111267D01*
X107060286Y-110060574D01*
X107055422Y-110059804D01*
X107054309Y-110059442D01*
X107017934Y-110028376D01*
X107014179Y-109980688D01*
X107045245Y-109944313D01*
X107054309Y-109940558D01*
X107055422Y-109940196D01*
X107060286Y-109939426D01*
X107159777Y-109888733D01*
X107238733Y-109809777D01*
X107289426Y-109710286D01*
X107306894Y-109600000D01*
X107289426Y-109489714D01*
X107238733Y-109390223D01*
X107159777Y-109311267D01*
X107124295Y-109293188D01*
X107093228Y-109256814D01*
X107096981Y-109209126D01*
X107124295Y-109181812D01*
X107155394Y-109165966D01*
X107159777Y-109163733D01*
X107238733Y-109084777D01*
X107289426Y-108985286D01*
X107306894Y-108875000D01*
X107289426Y-108764714D01*
X107238733Y-108665223D01*
X107159777Y-108586267D01*
X107060286Y-108535574D01*
X106950000Y-108518106D01*
X106839714Y-108535574D01*
X106740223Y-108586267D01*
X106706694Y-108619796D01*
X106662500Y-108638102D01*
X106618306Y-108619796D01*
X106600000Y-108575602D01*
X106600000Y-105662558D01*
X107422500Y-105662558D01*
X107429898Y-105699748D01*
X107458078Y-105741922D01*
X107500252Y-105770102D01*
X107506285Y-105771302D01*
X107506287Y-105771303D01*
X107532384Y-105776494D01*
X107537442Y-105777500D01*
X109262558Y-105777500D01*
X109267616Y-105776494D01*
X109293713Y-105771303D01*
X109293715Y-105771302D01*
X109299748Y-105770102D01*
X109341922Y-105741922D01*
X109370102Y-105699748D01*
X109377500Y-105662558D01*
X109377500Y-104786286D01*
X109957866Y-104786286D01*
X109973907Y-104977311D01*
X110026746Y-105161583D01*
X110114370Y-105332082D01*
X110233443Y-105482314D01*
X110379428Y-105606557D01*
X110382092Y-105608046D01*
X110382095Y-105608048D01*
X110474136Y-105659488D01*
X110546765Y-105700079D01*
X110549669Y-105701023D01*
X110549670Y-105701023D01*
X110726168Y-105758371D01*
X110726173Y-105758372D01*
X110729081Y-105759317D01*
X110919430Y-105782015D01*
X110922472Y-105781781D01*
X110922475Y-105781781D01*
X111107514Y-105767543D01*
X111107519Y-105767542D01*
X111110562Y-105767308D01*
X111139182Y-105759317D01*
X111292260Y-105716577D01*
X111292264Y-105716576D01*
X111295199Y-105715756D01*
X111466305Y-105629324D01*
X111468703Y-105627451D01*
X111468707Y-105627448D01*
X111547523Y-105565869D01*
X111617365Y-105511303D01*
X111644455Y-105479919D01*
X111740630Y-105368500D01*
X111740634Y-105368495D01*
X111742624Y-105366189D01*
X111763544Y-105329364D01*
X111835801Y-105202170D01*
X111835803Y-105202165D01*
X111837312Y-105199509D01*
X111897821Y-105017612D01*
X111902542Y-104980247D01*
X111921627Y-104829167D01*
X111921627Y-104829166D01*
X111921847Y-104827425D01*
X111922230Y-104800000D01*
X111920886Y-104786286D01*
X111903822Y-104612257D01*
X111903524Y-104609217D01*
X111848117Y-104425701D01*
X111758120Y-104256442D01*
X111636962Y-104107887D01*
X111489256Y-103985694D01*
X111320629Y-103894518D01*
X111270189Y-103878904D01*
X111140420Y-103838734D01*
X111140417Y-103838733D01*
X111137505Y-103837832D01*
X111134472Y-103837513D01*
X111134471Y-103837513D01*
X111062018Y-103829898D01*
X110946857Y-103817794D01*
X110943824Y-103818070D01*
X110943820Y-103818070D01*
X110861118Y-103825597D01*
X110755948Y-103835168D01*
X110572050Y-103889292D01*
X110402167Y-103978105D01*
X110252770Y-104098223D01*
X110129549Y-104245072D01*
X110037198Y-104413058D01*
X109979234Y-104595783D01*
X109957866Y-104786286D01*
X109377500Y-104786286D01*
X109377500Y-103937442D01*
X109370102Y-103900252D01*
X109341922Y-103858078D01*
X109299748Y-103829898D01*
X109293715Y-103828698D01*
X109293713Y-103828697D01*
X109265569Y-103823099D01*
X109262558Y-103822500D01*
X107537442Y-103822500D01*
X107534431Y-103823099D01*
X107506287Y-103828697D01*
X107506285Y-103828698D01*
X107500252Y-103829898D01*
X107458078Y-103858078D01*
X107429898Y-103900252D01*
X107422500Y-103937442D01*
X107422500Y-105662558D01*
X106600000Y-105662558D01*
X106600000Y-102400471D01*
X107302759Y-102400471D01*
X107304732Y-102430581D01*
X107305626Y-102436224D01*
X107354159Y-102627323D01*
X107356066Y-102632707D01*
X107438612Y-102811761D01*
X107441468Y-102816708D01*
X107555257Y-102977717D01*
X107558970Y-102982065D01*
X107700203Y-103119647D01*
X107704636Y-103123236D01*
X107868576Y-103232778D01*
X107873598Y-103235504D01*
X108054744Y-103313331D01*
X108060183Y-103315098D01*
X108252492Y-103358614D01*
X108258141Y-103359357D01*
X108260577Y-103359453D01*
X108268827Y-103356409D01*
X108273000Y-103346869D01*
X108273000Y-103344779D01*
X108527000Y-103344779D01*
X108530641Y-103353569D01*
X108536208Y-103355875D01*
X108655992Y-103338507D01*
X108661541Y-103337175D01*
X108848247Y-103273796D01*
X108853460Y-103271475D01*
X109025492Y-103175133D01*
X109030194Y-103171902D01*
X109181793Y-103045819D01*
X109185819Y-103041793D01*
X109311902Y-102890194D01*
X109315133Y-102885492D01*
X109411475Y-102713460D01*
X109413796Y-102708247D01*
X109477175Y-102521541D01*
X109478507Y-102515992D01*
X109495257Y-102400471D01*
X109842759Y-102400471D01*
X109844732Y-102430581D01*
X109845626Y-102436224D01*
X109894159Y-102627323D01*
X109896066Y-102632707D01*
X109978612Y-102811761D01*
X109981468Y-102816708D01*
X110095257Y-102977717D01*
X110098970Y-102982065D01*
X110240203Y-103119647D01*
X110244636Y-103123236D01*
X110408576Y-103232778D01*
X110413598Y-103235504D01*
X110594744Y-103313331D01*
X110600183Y-103315098D01*
X110792492Y-103358614D01*
X110798141Y-103359357D01*
X110800577Y-103359453D01*
X110808827Y-103356409D01*
X110813000Y-103346869D01*
X110813000Y-103344779D01*
X111067000Y-103344779D01*
X111070641Y-103353569D01*
X111076208Y-103355875D01*
X111195992Y-103338507D01*
X111201541Y-103337175D01*
X111388247Y-103273796D01*
X111393460Y-103271475D01*
X111565492Y-103175133D01*
X111570194Y-103171902D01*
X111721793Y-103045819D01*
X111725819Y-103041793D01*
X111851902Y-102890194D01*
X111855133Y-102885492D01*
X111951475Y-102713460D01*
X111953796Y-102708247D01*
X112017175Y-102521541D01*
X112018507Y-102515992D01*
X112035426Y-102399304D01*
X112033084Y-102390082D01*
X112027904Y-102387000D01*
X111079431Y-102387000D01*
X111070641Y-102390641D01*
X111067000Y-102399431D01*
X111067000Y-103344779D01*
X110813000Y-103344779D01*
X110813000Y-102399431D01*
X110809359Y-102390641D01*
X110800569Y-102387000D01*
X109854307Y-102387000D01*
X109846632Y-102390179D01*
X109842759Y-102400471D01*
X109495257Y-102400471D01*
X109495426Y-102399304D01*
X109493084Y-102390082D01*
X109487904Y-102387000D01*
X108539431Y-102387000D01*
X108530641Y-102390641D01*
X108527000Y-102399431D01*
X108527000Y-103344779D01*
X108273000Y-103344779D01*
X108273000Y-102399431D01*
X108269359Y-102390641D01*
X108260569Y-102387000D01*
X107314307Y-102387000D01*
X107306632Y-102390179D01*
X107302759Y-102400471D01*
X106600000Y-102400471D01*
X106600000Y-102120655D01*
X107304707Y-102120655D01*
X107307290Y-102129811D01*
X107312984Y-102133000D01*
X108260569Y-102133000D01*
X108269359Y-102129359D01*
X108273000Y-102120569D01*
X108527000Y-102120569D01*
X108530641Y-102129359D01*
X108539431Y-102133000D01*
X109484629Y-102133000D01*
X109493419Y-102129359D01*
X109496125Y-102122826D01*
X109495926Y-102120655D01*
X109844707Y-102120655D01*
X109847290Y-102129811D01*
X109852984Y-102133000D01*
X110800569Y-102133000D01*
X110809359Y-102129359D01*
X110813000Y-102120569D01*
X111067000Y-102120569D01*
X111070641Y-102129359D01*
X111079431Y-102133000D01*
X112024629Y-102133000D01*
X112033419Y-102129359D01*
X112036125Y-102122826D01*
X112030426Y-102060805D01*
X112029385Y-102055187D01*
X111975867Y-101865424D01*
X111973824Y-101860102D01*
X111886616Y-101683261D01*
X111883630Y-101678389D01*
X111765664Y-101520414D01*
X111761841Y-101516169D01*
X111617060Y-101382334D01*
X111612525Y-101378854D01*
X111445774Y-101273642D01*
X111440696Y-101271054D01*
X111257553Y-101197988D01*
X111252087Y-101196369D01*
X111079193Y-101161978D01*
X111069861Y-101163834D01*
X111067000Y-101168117D01*
X111067000Y-102120569D01*
X110813000Y-102120569D01*
X110813000Y-101173994D01*
X110809359Y-101165204D01*
X110804214Y-101163073D01*
X110655870Y-101188563D01*
X110650347Y-101190042D01*
X110465367Y-101258285D01*
X110460218Y-101260741D01*
X110290770Y-101361552D01*
X110286148Y-101364911D01*
X110137910Y-101494912D01*
X110133983Y-101499050D01*
X110011913Y-101653895D01*
X110008809Y-101658674D01*
X109916998Y-101833177D01*
X109914819Y-101838437D01*
X109856346Y-102026752D01*
X109855162Y-102032322D01*
X109844707Y-102120655D01*
X109495926Y-102120655D01*
X109490426Y-102060805D01*
X109489385Y-102055187D01*
X109435867Y-101865424D01*
X109433824Y-101860102D01*
X109346616Y-101683261D01*
X109343630Y-101678389D01*
X109225664Y-101520414D01*
X109221841Y-101516169D01*
X109077060Y-101382334D01*
X109072525Y-101378854D01*
X108905774Y-101273642D01*
X108900696Y-101271054D01*
X108717553Y-101197988D01*
X108712087Y-101196369D01*
X108539193Y-101161978D01*
X108529861Y-101163834D01*
X108527000Y-101168117D01*
X108527000Y-102120569D01*
X108273000Y-102120569D01*
X108273000Y-101173994D01*
X108269359Y-101165204D01*
X108264214Y-101163073D01*
X108115870Y-101188563D01*
X108110347Y-101190042D01*
X107925367Y-101258285D01*
X107920218Y-101260741D01*
X107750770Y-101361552D01*
X107746148Y-101364911D01*
X107597910Y-101494912D01*
X107593983Y-101499050D01*
X107471913Y-101653895D01*
X107468809Y-101658674D01*
X107376998Y-101833177D01*
X107374819Y-101838437D01*
X107316346Y-102026752D01*
X107315162Y-102032322D01*
X107304707Y-102120655D01*
X106600000Y-102120655D01*
X106600000Y-101062500D01*
X106618306Y-101018306D01*
X106662500Y-101000000D01*
X112137500Y-101000000D01*
X112181694Y-101018306D01*
G37*
%TD.AperFunction*%
%TD*%
%TA.AperFunction,Conductor*%
%TO.N,/+SOLAR*%
G36*
X131381694Y-106518306D02*
G01*
X131400000Y-106562500D01*
X131400000Y-113937500D01*
X131381694Y-113981694D01*
X131337500Y-114000000D01*
X120820229Y-114000000D01*
X120776035Y-113981694D01*
X120764541Y-113965874D01*
X120740966Y-113919606D01*
X120738733Y-113915223D01*
X120659777Y-113836267D01*
X120560286Y-113785574D01*
X120450000Y-113768106D01*
X120339714Y-113785574D01*
X120240223Y-113836267D01*
X120161267Y-113915223D01*
X120159034Y-113919606D01*
X120135459Y-113965874D01*
X120099085Y-113996941D01*
X120079771Y-114000000D01*
X112862500Y-114000000D01*
X112818306Y-113981694D01*
X112800000Y-113937500D01*
X112800000Y-113300000D01*
X117343106Y-113300000D01*
X117360574Y-113410286D01*
X117411267Y-113509777D01*
X117490223Y-113588733D01*
X117589714Y-113639426D01*
X117700000Y-113656894D01*
X117810286Y-113639426D01*
X117909777Y-113588733D01*
X117988733Y-113509777D01*
X118039426Y-113410286D01*
X118056894Y-113300000D01*
X118039426Y-113189714D01*
X117988733Y-113090223D01*
X117909777Y-113011267D01*
X117810286Y-112960574D01*
X117700000Y-112943106D01*
X117589714Y-112960574D01*
X117490223Y-113011267D01*
X117411267Y-113090223D01*
X117360574Y-113189714D01*
X117343106Y-113300000D01*
X112800000Y-113300000D01*
X112800000Y-112600000D01*
X126893106Y-112600000D01*
X126910574Y-112710286D01*
X126961267Y-112809777D01*
X127040223Y-112888733D01*
X127139714Y-112939426D01*
X127250000Y-112956894D01*
X127360286Y-112939426D01*
X127459777Y-112888733D01*
X127538733Y-112809777D01*
X127589426Y-112710286D01*
X127606894Y-112600000D01*
X127589426Y-112489714D01*
X127538733Y-112390223D01*
X127459777Y-112311267D01*
X127360286Y-112260574D01*
X127250000Y-112243106D01*
X127139714Y-112260574D01*
X127040223Y-112311267D01*
X126961267Y-112390223D01*
X126910574Y-112489714D01*
X126893106Y-112600000D01*
X112800000Y-112600000D01*
X112800000Y-111150000D01*
X123668106Y-111150000D01*
X123685574Y-111260286D01*
X123736267Y-111359777D01*
X123815223Y-111438733D01*
X123914714Y-111489426D01*
X124025000Y-111506894D01*
X124135286Y-111489426D01*
X124234777Y-111438733D01*
X124313733Y-111359777D01*
X124364426Y-111260286D01*
X124381894Y-111150000D01*
X124364426Y-111039714D01*
X124313733Y-110940223D01*
X124234777Y-110861267D01*
X124150229Y-110818188D01*
X124119162Y-110781814D01*
X124122915Y-110734126D01*
X124150229Y-110706812D01*
X124230394Y-110665966D01*
X124234777Y-110663733D01*
X124248510Y-110650000D01*
X130393106Y-110650000D01*
X130410574Y-110760286D01*
X130461267Y-110859777D01*
X130540223Y-110938733D01*
X130639714Y-110989426D01*
X130750000Y-111006894D01*
X130860286Y-110989426D01*
X130959777Y-110938733D01*
X131038733Y-110859777D01*
X131089426Y-110760286D01*
X131106894Y-110650000D01*
X131089426Y-110539714D01*
X131038733Y-110440223D01*
X130959777Y-110361267D01*
X130860286Y-110310574D01*
X130750000Y-110293106D01*
X130639714Y-110310574D01*
X130540223Y-110361267D01*
X130461267Y-110440223D01*
X130410574Y-110539714D01*
X130393106Y-110650000D01*
X124248510Y-110650000D01*
X124313733Y-110584777D01*
X124364426Y-110485286D01*
X124381894Y-110375000D01*
X124364426Y-110264714D01*
X124313733Y-110165223D01*
X124234777Y-110086267D01*
X124174762Y-110055688D01*
X124143695Y-110019314D01*
X124147448Y-109971626D01*
X124174762Y-109944312D01*
X124178318Y-109942500D01*
X124234777Y-109913733D01*
X124313733Y-109834777D01*
X124364426Y-109735286D01*
X124381894Y-109625000D01*
X124364426Y-109514714D01*
X124313733Y-109415223D01*
X124234777Y-109336267D01*
X124150229Y-109293188D01*
X124119162Y-109256814D01*
X124122915Y-109209126D01*
X124150229Y-109181812D01*
X124170992Y-109171233D01*
X124234777Y-109138733D01*
X124313733Y-109059777D01*
X124364426Y-108960286D01*
X124381894Y-108850000D01*
X124364426Y-108739714D01*
X124313733Y-108640223D01*
X124234777Y-108561267D01*
X124150229Y-108518188D01*
X124119162Y-108481814D01*
X124122915Y-108434126D01*
X124150229Y-108406812D01*
X124230394Y-108365966D01*
X124234777Y-108363733D01*
X124298510Y-108300000D01*
X126893106Y-108300000D01*
X126910574Y-108410286D01*
X126961267Y-108509777D01*
X127040223Y-108588733D01*
X127139714Y-108639426D01*
X127250000Y-108656894D01*
X127360286Y-108639426D01*
X127459777Y-108588733D01*
X127538733Y-108509777D01*
X127589426Y-108410286D01*
X127606894Y-108300000D01*
X127589426Y-108189714D01*
X127538733Y-108090223D01*
X127459777Y-108011267D01*
X127360286Y-107960574D01*
X127250000Y-107943106D01*
X127139714Y-107960574D01*
X127040223Y-108011267D01*
X126961267Y-108090223D01*
X126910574Y-108189714D01*
X126893106Y-108300000D01*
X124298510Y-108300000D01*
X124313733Y-108284777D01*
X124364426Y-108185286D01*
X124381894Y-108075000D01*
X124364426Y-107964714D01*
X124313733Y-107865223D01*
X124234777Y-107786267D01*
X124174762Y-107755688D01*
X124143695Y-107719314D01*
X124147448Y-107671626D01*
X124174762Y-107644312D01*
X124234777Y-107613733D01*
X124313733Y-107534777D01*
X124364426Y-107435286D01*
X124381894Y-107325000D01*
X124364426Y-107214714D01*
X124313733Y-107115223D01*
X124234777Y-107036267D01*
X124135286Y-106985574D01*
X124025000Y-106968106D01*
X123914714Y-106985574D01*
X123815223Y-107036267D01*
X123736267Y-107115223D01*
X123685574Y-107214714D01*
X123668106Y-107325000D01*
X123685574Y-107435286D01*
X123736267Y-107534777D01*
X123815223Y-107613733D01*
X123875238Y-107644312D01*
X123906305Y-107680686D01*
X123902552Y-107728374D01*
X123875238Y-107755688D01*
X123815223Y-107786267D01*
X123736267Y-107865223D01*
X123685574Y-107964714D01*
X123668106Y-108075000D01*
X123685574Y-108185286D01*
X123736267Y-108284777D01*
X123815223Y-108363733D01*
X123819606Y-108365966D01*
X123899771Y-108406812D01*
X123930838Y-108443186D01*
X123927085Y-108490874D01*
X123899771Y-108518188D01*
X123815223Y-108561267D01*
X123736267Y-108640223D01*
X123685574Y-108739714D01*
X123668106Y-108850000D01*
X123685574Y-108960286D01*
X123736267Y-109059777D01*
X123815223Y-109138733D01*
X123879008Y-109171233D01*
X123899771Y-109181812D01*
X123930838Y-109218186D01*
X123927085Y-109265874D01*
X123899771Y-109293188D01*
X123815223Y-109336267D01*
X123736267Y-109415223D01*
X123685574Y-109514714D01*
X123668106Y-109625000D01*
X123685574Y-109735286D01*
X123736267Y-109834777D01*
X123815223Y-109913733D01*
X123871682Y-109942500D01*
X123875238Y-109944312D01*
X123906305Y-109980686D01*
X123902552Y-110028374D01*
X123875238Y-110055688D01*
X123815223Y-110086267D01*
X123736267Y-110165223D01*
X123685574Y-110264714D01*
X123668106Y-110375000D01*
X123685574Y-110485286D01*
X123736267Y-110584777D01*
X123815223Y-110663733D01*
X123819606Y-110665966D01*
X123899771Y-110706812D01*
X123930838Y-110743186D01*
X123927085Y-110790874D01*
X123899771Y-110818188D01*
X123815223Y-110861267D01*
X123736267Y-110940223D01*
X123685574Y-111039714D01*
X123668106Y-111150000D01*
X112800000Y-111150000D01*
X112800000Y-109942500D01*
X113700606Y-109942500D01*
X113718074Y-110052786D01*
X113768767Y-110152277D01*
X113847723Y-110231233D01*
X113947214Y-110281926D01*
X114057500Y-110299394D01*
X114167786Y-110281926D01*
X114267277Y-110231233D01*
X114346233Y-110152277D01*
X114396926Y-110052786D01*
X114414394Y-109942500D01*
X114396926Y-109832214D01*
X114346233Y-109732723D01*
X114267277Y-109653767D01*
X114167786Y-109603074D01*
X114057500Y-109585606D01*
X113947214Y-109603074D01*
X113847723Y-109653767D01*
X113768767Y-109732723D01*
X113718074Y-109832214D01*
X113700606Y-109942500D01*
X112800000Y-109942500D01*
X112800000Y-108950000D01*
X113718106Y-108950000D01*
X113735574Y-109060286D01*
X113786267Y-109159777D01*
X113865223Y-109238733D01*
X113964714Y-109289426D01*
X114075000Y-109306894D01*
X114185286Y-109289426D01*
X114284777Y-109238733D01*
X114363733Y-109159777D01*
X114414426Y-109060286D01*
X114431894Y-108950000D01*
X114421203Y-108882500D01*
X116960606Y-108882500D01*
X116978074Y-108992786D01*
X117028767Y-109092277D01*
X117107723Y-109171233D01*
X117207214Y-109221926D01*
X117317500Y-109239394D01*
X117427786Y-109221926D01*
X117527277Y-109171233D01*
X117606233Y-109092277D01*
X117656926Y-108992786D01*
X117674394Y-108882500D01*
X117656926Y-108772214D01*
X117606233Y-108672723D01*
X117527277Y-108593767D01*
X117427786Y-108543074D01*
X117317500Y-108525606D01*
X117207214Y-108543074D01*
X117107723Y-108593767D01*
X117028767Y-108672723D01*
X116978074Y-108772214D01*
X116960606Y-108882500D01*
X114421203Y-108882500D01*
X114414426Y-108839714D01*
X114363733Y-108740223D01*
X114284777Y-108661267D01*
X114185286Y-108610574D01*
X114075000Y-108593106D01*
X113964714Y-108610574D01*
X113865223Y-108661267D01*
X113786267Y-108740223D01*
X113735574Y-108839714D01*
X113718106Y-108950000D01*
X112800000Y-108950000D01*
X112800000Y-107967500D01*
X113725606Y-107967500D01*
X113743074Y-108077786D01*
X113793767Y-108177277D01*
X113872723Y-108256233D01*
X113972214Y-108306926D01*
X114082500Y-108324394D01*
X114192786Y-108306926D01*
X114292277Y-108256233D01*
X114371233Y-108177277D01*
X114421926Y-108077786D01*
X114439394Y-107967500D01*
X114437810Y-107957500D01*
X116960606Y-107957500D01*
X116978074Y-108067786D01*
X117028767Y-108167277D01*
X117107723Y-108246233D01*
X117207214Y-108296926D01*
X117317500Y-108314394D01*
X117427786Y-108296926D01*
X117527277Y-108246233D01*
X117606233Y-108167277D01*
X117656926Y-108067786D01*
X117674394Y-107957500D01*
X117656926Y-107847214D01*
X117606233Y-107747723D01*
X117527277Y-107668767D01*
X117427786Y-107618074D01*
X117317500Y-107600606D01*
X117207214Y-107618074D01*
X117107723Y-107668767D01*
X117028767Y-107747723D01*
X116978074Y-107847214D01*
X116960606Y-107957500D01*
X114437810Y-107957500D01*
X114421926Y-107857214D01*
X114371233Y-107757723D01*
X114292277Y-107678767D01*
X114192786Y-107628074D01*
X114082500Y-107610606D01*
X113972214Y-107628074D01*
X113872723Y-107678767D01*
X113793767Y-107757723D01*
X113743074Y-107857214D01*
X113725606Y-107967500D01*
X112800000Y-107967500D01*
X112800000Y-106562500D01*
X112818306Y-106518306D01*
X112862500Y-106500000D01*
X131337500Y-106500000D01*
X131381694Y-106518306D01*
G37*
%TD.AperFunction*%
%TD*%
%TA.AperFunction,Conductor*%
%TO.N,GND*%
G36*
X149550623Y-122618306D02*
G01*
X149568929Y-122662500D01*
X149566003Y-122681396D01*
X149539234Y-122765783D01*
X149538894Y-122768815D01*
X149522916Y-122911267D01*
X149517866Y-122956286D01*
X149533907Y-123147311D01*
X149586746Y-123331583D01*
X149588141Y-123334297D01*
X149667510Y-123488733D01*
X149674370Y-123502082D01*
X149793443Y-123652314D01*
X149939428Y-123776557D01*
X149942092Y-123778046D01*
X149942095Y-123778048D01*
X150099003Y-123865741D01*
X150106765Y-123870079D01*
X150109669Y-123871023D01*
X150109670Y-123871023D01*
X150286168Y-123928371D01*
X150286173Y-123928372D01*
X150289081Y-123929317D01*
X150479430Y-123952015D01*
X150482472Y-123951781D01*
X150482475Y-123951781D01*
X150667514Y-123937543D01*
X150667519Y-123937542D01*
X150670562Y-123937308D01*
X150699182Y-123929317D01*
X150852260Y-123886577D01*
X150852264Y-123886576D01*
X150855199Y-123885756D01*
X151026305Y-123799324D01*
X151028703Y-123797451D01*
X151028707Y-123797448D01*
X151107523Y-123735869D01*
X151177365Y-123681303D01*
X151204455Y-123649919D01*
X151300630Y-123538500D01*
X151300634Y-123538495D01*
X151302624Y-123536189D01*
X151329583Y-123488733D01*
X151395801Y-123372170D01*
X151395803Y-123372165D01*
X151397312Y-123369509D01*
X151457821Y-123187612D01*
X151462542Y-123150247D01*
X151481627Y-122999167D01*
X151481627Y-122999166D01*
X151481847Y-122997425D01*
X151482230Y-122970000D01*
X151480886Y-122956286D01*
X151463822Y-122782257D01*
X151463524Y-122779217D01*
X151433739Y-122680565D01*
X151438489Y-122632966D01*
X151475506Y-122602668D01*
X151493571Y-122600000D01*
X153337500Y-122600000D01*
X153381694Y-122618306D01*
X153400000Y-122662500D01*
X153400000Y-123529771D01*
X153381694Y-123573965D01*
X153337500Y-123592271D01*
X153309126Y-123585459D01*
X153264672Y-123562809D01*
X153264673Y-123562809D01*
X153260286Y-123560574D01*
X153150000Y-123543106D01*
X153039714Y-123560574D01*
X152940223Y-123611267D01*
X152861267Y-123690223D01*
X152810574Y-123789714D01*
X152793106Y-123900000D01*
X152810574Y-124010286D01*
X152861267Y-124109777D01*
X152940223Y-124188733D01*
X153039714Y-124239426D01*
X153150000Y-124256894D01*
X153260286Y-124239426D01*
X153309126Y-124214541D01*
X153356814Y-124210788D01*
X153393188Y-124241855D01*
X153400000Y-124270229D01*
X153400000Y-125437500D01*
X153381694Y-125481694D01*
X153337500Y-125500000D01*
X151537922Y-125500000D01*
X151493728Y-125481694D01*
X151475720Y-125443599D01*
X151463822Y-125322258D01*
X151463524Y-125319217D01*
X151408117Y-125135701D01*
X151318120Y-124966442D01*
X151196962Y-124817887D01*
X151049256Y-124695694D01*
X150880629Y-124604518D01*
X150830189Y-124588904D01*
X150700420Y-124548734D01*
X150700417Y-124548733D01*
X150697505Y-124547832D01*
X150694472Y-124547513D01*
X150694471Y-124547513D01*
X150646787Y-124542501D01*
X150506857Y-124527794D01*
X150503824Y-124528070D01*
X150503820Y-124528070D01*
X150421118Y-124535597D01*
X150315948Y-124545168D01*
X150132050Y-124599292D01*
X149962167Y-124688105D01*
X149812770Y-124808223D01*
X149689549Y-124955072D01*
X149597198Y-125123058D01*
X149539234Y-125305783D01*
X149538894Y-125308817D01*
X149538892Y-125308825D01*
X149523677Y-125444467D01*
X149500559Y-125486345D01*
X149461567Y-125500000D01*
X145262500Y-125500000D01*
X145218306Y-125481694D01*
X145200000Y-125437500D01*
X145200000Y-122662500D01*
X145218306Y-122618306D01*
X145262500Y-122600000D01*
X149506429Y-122600000D01*
X149550623Y-122618306D01*
G37*
%TD.AperFunction*%
%TD*%
%TA.AperFunction,Conductor*%
%TO.N,+BATT*%
G36*
X134081694Y-112518306D02*
G01*
X134100000Y-112562500D01*
X134100001Y-114400000D01*
X134100001Y-116249409D01*
X142900001Y-116249409D01*
X142900001Y-115300000D01*
X144343106Y-115300000D01*
X144360574Y-115410286D01*
X144411267Y-115509777D01*
X144490223Y-115588733D01*
X144589714Y-115639426D01*
X144700000Y-115656894D01*
X144810286Y-115639426D01*
X144909777Y-115588733D01*
X144988733Y-115509777D01*
X145039426Y-115410286D01*
X145051147Y-115336286D01*
X149517866Y-115336286D01*
X149521321Y-115377425D01*
X149532727Y-115513255D01*
X149533907Y-115527311D01*
X149586746Y-115711583D01*
X149674370Y-115882082D01*
X149793443Y-116032314D01*
X149939428Y-116156557D01*
X149942092Y-116158046D01*
X149942095Y-116158048D01*
X150083324Y-116236978D01*
X150106765Y-116250079D01*
X150109669Y-116251023D01*
X150109670Y-116251023D01*
X150286168Y-116308371D01*
X150286173Y-116308372D01*
X150289081Y-116309317D01*
X150479430Y-116332015D01*
X150482472Y-116331781D01*
X150482475Y-116331781D01*
X150667514Y-116317543D01*
X150667519Y-116317542D01*
X150670562Y-116317308D01*
X150699182Y-116309317D01*
X150852260Y-116266577D01*
X150852264Y-116266576D01*
X150855199Y-116265756D01*
X151026305Y-116179324D01*
X151028703Y-116177451D01*
X151028707Y-116177448D01*
X151107523Y-116115869D01*
X151177365Y-116061303D01*
X151204455Y-116029919D01*
X151300630Y-115918500D01*
X151300634Y-115918495D01*
X151302624Y-115916189D01*
X151323544Y-115879364D01*
X151395801Y-115752170D01*
X151395803Y-115752165D01*
X151397312Y-115749509D01*
X151457821Y-115567612D01*
X151462542Y-115530247D01*
X151481627Y-115379167D01*
X151481627Y-115379166D01*
X151481847Y-115377425D01*
X151482230Y-115350000D01*
X151480886Y-115336286D01*
X151463822Y-115162257D01*
X151463524Y-115159217D01*
X151408117Y-114975701D01*
X151318120Y-114806442D01*
X151196962Y-114657887D01*
X151049256Y-114535694D01*
X150880629Y-114444518D01*
X150770043Y-114410286D01*
X150700420Y-114388734D01*
X150700417Y-114388733D01*
X150697505Y-114387832D01*
X150694472Y-114387513D01*
X150694471Y-114387513D01*
X150646787Y-114382501D01*
X150506857Y-114367794D01*
X150503824Y-114368070D01*
X150503820Y-114368070D01*
X150421118Y-114375597D01*
X150315948Y-114385168D01*
X150132050Y-114439292D01*
X149962167Y-114528105D01*
X149812770Y-114648223D01*
X149689549Y-114795072D01*
X149633277Y-114897430D01*
X149608167Y-114943106D01*
X149597198Y-114963058D01*
X149539234Y-115145783D01*
X149517866Y-115336286D01*
X145051147Y-115336286D01*
X145056894Y-115300000D01*
X145039426Y-115189714D01*
X144988733Y-115090223D01*
X144909777Y-115011267D01*
X144810286Y-114960574D01*
X144700000Y-114943106D01*
X144589714Y-114960574D01*
X144490223Y-115011267D01*
X144411267Y-115090223D01*
X144360574Y-115189714D01*
X144343106Y-115300000D01*
X142900001Y-115300000D01*
X142900001Y-114300000D01*
X147343106Y-114300000D01*
X147360574Y-114410286D01*
X147411267Y-114509777D01*
X147490223Y-114588733D01*
X147589714Y-114639426D01*
X147700000Y-114656894D01*
X147810286Y-114639426D01*
X147909777Y-114588733D01*
X147988733Y-114509777D01*
X148039426Y-114410286D01*
X148056894Y-114300000D01*
X148039426Y-114189714D01*
X147988733Y-114090223D01*
X147909777Y-114011267D01*
X147810286Y-113960574D01*
X147700000Y-113943106D01*
X147589714Y-113960574D01*
X147490223Y-114011267D01*
X147411267Y-114090223D01*
X147360574Y-114189714D01*
X147343106Y-114300000D01*
X142900001Y-114300000D01*
X142900000Y-112562499D01*
X142918306Y-112518306D01*
X142962500Y-112500000D01*
X143039727Y-112500000D01*
X143083921Y-112518306D01*
X143101456Y-112552719D01*
X143110574Y-112610286D01*
X143161267Y-112709777D01*
X143182296Y-112730806D01*
X143200602Y-112775000D01*
X143182296Y-112819194D01*
X143161267Y-112840223D01*
X143110574Y-112939714D01*
X143093106Y-113050000D01*
X143110574Y-113160286D01*
X143161267Y-113259777D01*
X143182296Y-113280806D01*
X143200602Y-113325000D01*
X143182296Y-113369194D01*
X143161267Y-113390223D01*
X143110574Y-113489714D01*
X143093106Y-113600000D01*
X143110574Y-113710286D01*
X143161267Y-113809777D01*
X143240223Y-113888733D01*
X143339714Y-113939426D01*
X143450000Y-113956894D01*
X143560286Y-113939426D01*
X143659777Y-113888733D01*
X143738733Y-113809777D01*
X143789426Y-113710286D01*
X143806894Y-113600000D01*
X143789426Y-113489714D01*
X143738733Y-113390223D01*
X143717704Y-113369194D01*
X143699398Y-113325000D01*
X143717704Y-113280806D01*
X143738733Y-113259777D01*
X143789426Y-113160286D01*
X143806894Y-113050000D01*
X143789426Y-112939714D01*
X143738733Y-112840223D01*
X143717704Y-112819194D01*
X143699398Y-112775000D01*
X143717704Y-112730806D01*
X143738733Y-112709777D01*
X143789426Y-112610286D01*
X143798544Y-112552720D01*
X143823536Y-112511936D01*
X143860273Y-112500000D01*
X146589727Y-112500000D01*
X146633921Y-112518306D01*
X146651456Y-112552719D01*
X146660574Y-112610286D01*
X146711267Y-112709777D01*
X146790223Y-112788733D01*
X146889714Y-112839426D01*
X147000000Y-112856894D01*
X147110286Y-112839426D01*
X147209777Y-112788733D01*
X147288733Y-112709777D01*
X147290966Y-112705395D01*
X147290968Y-112705392D01*
X147294313Y-112698827D01*
X147330687Y-112667761D01*
X147378375Y-112671515D01*
X147405687Y-112698827D01*
X147409032Y-112705392D01*
X147409034Y-112705395D01*
X147411267Y-112709777D01*
X147490223Y-112788733D01*
X147589714Y-112839426D01*
X147700000Y-112856894D01*
X147810286Y-112839426D01*
X147909777Y-112788733D01*
X147988733Y-112709777D01*
X147990966Y-112705395D01*
X147990968Y-112705392D01*
X147994313Y-112698827D01*
X148030687Y-112667761D01*
X148078375Y-112671515D01*
X148105687Y-112698827D01*
X148109032Y-112705392D01*
X148109034Y-112705395D01*
X148111267Y-112709777D01*
X148190223Y-112788733D01*
X148289714Y-112839426D01*
X148400000Y-112856894D01*
X148510286Y-112839426D01*
X148609777Y-112788733D01*
X148688733Y-112709777D01*
X148739426Y-112610286D01*
X148748544Y-112552720D01*
X148773536Y-112511936D01*
X148810273Y-112500000D01*
X156037500Y-112500000D01*
X156081694Y-112518306D01*
X156100000Y-112562500D01*
X156100000Y-119337500D01*
X156081694Y-119381694D01*
X156037500Y-119400000D01*
X155465000Y-119400000D01*
X155420806Y-119381694D01*
X155402500Y-119337500D01*
X155402500Y-118237442D01*
X155400025Y-118225000D01*
X155396303Y-118206287D01*
X155396302Y-118206285D01*
X155395102Y-118200252D01*
X155366922Y-118158078D01*
X155324748Y-118129898D01*
X155318715Y-118128698D01*
X155318713Y-118128697D01*
X155290569Y-118123099D01*
X155287558Y-118122500D01*
X153562442Y-118122500D01*
X153559431Y-118123099D01*
X153531287Y-118128697D01*
X153531285Y-118128698D01*
X153525252Y-118129898D01*
X153483078Y-118158078D01*
X153454898Y-118200252D01*
X153453698Y-118206285D01*
X153453697Y-118206287D01*
X153449975Y-118225000D01*
X153447500Y-118237442D01*
X153447500Y-119337500D01*
X153429194Y-119381694D01*
X153385000Y-119400000D01*
X145290000Y-119400000D01*
X145245806Y-119381694D01*
X145227500Y-119337500D01*
X145227500Y-118562442D01*
X145220102Y-118525252D01*
X145191922Y-118483078D01*
X145149748Y-118454898D01*
X145143715Y-118453698D01*
X145143713Y-118453697D01*
X145115569Y-118448099D01*
X145112558Y-118447500D01*
X143387442Y-118447500D01*
X143384431Y-118448099D01*
X143356287Y-118453697D01*
X143356285Y-118453698D01*
X143350252Y-118454898D01*
X143308078Y-118483078D01*
X143279898Y-118525252D01*
X143272500Y-118562442D01*
X143272500Y-119337500D01*
X143254194Y-119381694D01*
X143210000Y-119400000D01*
X142746451Y-119400000D01*
X142702257Y-119381694D01*
X142684249Y-119343599D01*
X142673822Y-119237258D01*
X142673524Y-119234217D01*
X142618117Y-119050701D01*
X142539676Y-118903175D01*
X142529555Y-118884140D01*
X142529553Y-118884137D01*
X142528120Y-118881442D01*
X142406962Y-118732887D01*
X142259256Y-118610694D01*
X142090629Y-118519518D01*
X142027576Y-118500000D01*
X141910420Y-118463734D01*
X141910417Y-118463733D01*
X141907505Y-118462832D01*
X141904472Y-118462513D01*
X141904471Y-118462513D01*
X141832018Y-118454898D01*
X141716857Y-118442794D01*
X141713824Y-118443070D01*
X141713820Y-118443070D01*
X141631118Y-118450597D01*
X141525948Y-118460168D01*
X141523019Y-118461030D01*
X141478519Y-118474127D01*
X141342050Y-118514292D01*
X141172167Y-118603105D01*
X141022770Y-118723223D01*
X140899549Y-118870072D01*
X140849778Y-118960605D01*
X140824331Y-119006894D01*
X140807198Y-119038058D01*
X140749234Y-119220783D01*
X140748894Y-119223815D01*
X140735361Y-119344467D01*
X140712243Y-119386345D01*
X140673250Y-119400000D01*
X135800000Y-119400000D01*
X135800000Y-125662500D01*
X135781694Y-125706694D01*
X135737500Y-125725000D01*
X132762500Y-125725000D01*
X132718306Y-125706694D01*
X132700000Y-125662500D01*
X132700000Y-120544753D01*
X132718306Y-120500559D01*
X132762500Y-120482253D01*
X132790874Y-120489065D01*
X132844351Y-120516313D01*
X132889714Y-120539426D01*
X133000000Y-120556894D01*
X133110286Y-120539426D01*
X133209777Y-120488733D01*
X133288733Y-120409777D01*
X133339426Y-120310286D01*
X133356894Y-120200000D01*
X133339426Y-120089714D01*
X133288733Y-119990223D01*
X133209777Y-119911267D01*
X133110286Y-119860574D01*
X133000000Y-119843106D01*
X132889714Y-119860574D01*
X132885327Y-119862809D01*
X132885328Y-119862809D01*
X132790874Y-119910935D01*
X132743186Y-119914688D01*
X132706812Y-119883621D01*
X132700000Y-119855247D01*
X132700000Y-119260583D01*
X134008489Y-119260583D01*
X134018369Y-119417629D01*
X134019584Y-119421367D01*
X134019584Y-119421369D01*
X134034681Y-119467832D01*
X134066995Y-119567283D01*
X134151310Y-119700143D01*
X134266018Y-119807860D01*
X134403910Y-119883667D01*
X134556322Y-119922800D01*
X134674183Y-119922800D01*
X134676135Y-119922553D01*
X134676141Y-119922553D01*
X134738396Y-119914688D01*
X134791115Y-119908028D01*
X134794771Y-119906581D01*
X134794773Y-119906580D01*
X134912916Y-119859804D01*
X134937421Y-119850102D01*
X134940599Y-119847793D01*
X134940601Y-119847792D01*
X135061541Y-119759923D01*
X135061543Y-119759921D01*
X135064724Y-119757610D01*
X135165027Y-119636365D01*
X135232026Y-119493985D01*
X135240837Y-119447794D01*
X135260774Y-119343282D01*
X135260774Y-119343280D01*
X135261511Y-119339417D01*
X135251631Y-119182371D01*
X135208849Y-119050701D01*
X135204219Y-119036453D01*
X135204219Y-119036452D01*
X135203005Y-119032717D01*
X135123096Y-118906800D01*
X135120796Y-118903175D01*
X135120795Y-118903173D01*
X135118690Y-118899857D01*
X135003982Y-118792140D01*
X134866090Y-118716333D01*
X134713678Y-118677200D01*
X134595817Y-118677200D01*
X134593865Y-118677447D01*
X134593859Y-118677447D01*
X134535364Y-118684837D01*
X134478885Y-118691972D01*
X134475229Y-118693419D01*
X134475227Y-118693420D01*
X134433914Y-118709777D01*
X134332579Y-118749898D01*
X134329401Y-118752207D01*
X134329399Y-118752208D01*
X134208459Y-118840077D01*
X134208457Y-118840079D01*
X134205276Y-118842390D01*
X134104973Y-118963635D01*
X134103300Y-118967191D01*
X134103299Y-118967192D01*
X134065273Y-119048001D01*
X134037974Y-119106015D01*
X134037238Y-119109873D01*
X134013519Y-119234217D01*
X134008489Y-119260583D01*
X132700000Y-119260583D01*
X132700000Y-118624398D01*
X132718306Y-118580204D01*
X132762500Y-118561898D01*
X132806694Y-118580204D01*
X132815223Y-118588733D01*
X132914714Y-118639426D01*
X133025000Y-118656894D01*
X133135286Y-118639426D01*
X133234777Y-118588733D01*
X133268306Y-118555204D01*
X133312500Y-118536898D01*
X133356694Y-118555204D01*
X133390223Y-118588733D01*
X133489714Y-118639426D01*
X133600000Y-118656894D01*
X133710286Y-118639426D01*
X133809777Y-118588733D01*
X133888733Y-118509777D01*
X133939426Y-118410286D01*
X133956894Y-118300000D01*
X133948117Y-118244583D01*
X139088489Y-118244583D01*
X139098369Y-118401629D01*
X139099584Y-118405367D01*
X139099584Y-118405369D01*
X139133509Y-118509777D01*
X139146995Y-118551283D01*
X139192758Y-118623395D01*
X139227061Y-118677447D01*
X139231310Y-118684143D01*
X139346018Y-118791860D01*
X139483910Y-118867667D01*
X139636322Y-118906800D01*
X139754183Y-118906800D01*
X139756135Y-118906553D01*
X139756141Y-118906553D01*
X139814636Y-118899163D01*
X139871115Y-118892028D01*
X139874771Y-118890581D01*
X139874773Y-118890580D01*
X139978075Y-118849680D01*
X140017421Y-118834102D01*
X140020599Y-118831793D01*
X140020601Y-118831792D01*
X140141541Y-118743923D01*
X140141543Y-118743921D01*
X140144724Y-118741610D01*
X140245027Y-118620365D01*
X140275690Y-118555204D01*
X140299128Y-118505394D01*
X140312026Y-118477985D01*
X140312762Y-118474127D01*
X140340774Y-118327282D01*
X140340774Y-118327280D01*
X140341511Y-118323417D01*
X140335913Y-118234431D01*
X140331878Y-118170295D01*
X140331878Y-118170294D01*
X140331631Y-118166371D01*
X140329748Y-118160574D01*
X140284219Y-118020453D01*
X140284219Y-118020452D01*
X140283005Y-118016717D01*
X140218595Y-117915223D01*
X140200796Y-117887175D01*
X140200795Y-117887173D01*
X140198690Y-117883857D01*
X140190628Y-117876286D01*
X149517866Y-117876286D01*
X149521321Y-117917425D01*
X149533554Y-118063102D01*
X149533907Y-118067311D01*
X149586746Y-118251583D01*
X149674370Y-118422082D01*
X149793443Y-118572314D01*
X149795773Y-118574297D01*
X149934041Y-118691972D01*
X149939428Y-118696557D01*
X149942092Y-118698046D01*
X149942095Y-118698048D01*
X150034870Y-118749898D01*
X150106765Y-118790079D01*
X150109669Y-118791023D01*
X150109670Y-118791023D01*
X150286168Y-118848371D01*
X150286173Y-118848372D01*
X150289081Y-118849317D01*
X150479430Y-118872015D01*
X150482472Y-118871781D01*
X150482475Y-118871781D01*
X150667514Y-118857543D01*
X150667519Y-118857542D01*
X150670562Y-118857308D01*
X150699182Y-118849317D01*
X150852260Y-118806577D01*
X150852264Y-118806576D01*
X150855199Y-118805756D01*
X151026305Y-118719324D01*
X151028703Y-118717451D01*
X151028707Y-118717448D01*
X151131430Y-118637191D01*
X151177365Y-118601303D01*
X151186288Y-118590966D01*
X151300630Y-118458500D01*
X151300634Y-118458495D01*
X151302624Y-118456189D01*
X151307560Y-118447500D01*
X151395801Y-118292170D01*
X151395803Y-118292165D01*
X151397312Y-118289509D01*
X151452868Y-118122500D01*
X151456858Y-118110507D01*
X151457821Y-118107612D01*
X151460174Y-118088990D01*
X151481627Y-117919167D01*
X151481627Y-117919166D01*
X151481847Y-117917425D01*
X151482230Y-117890000D01*
X151481436Y-117881894D01*
X151463822Y-117702257D01*
X151463524Y-117699217D01*
X151408117Y-117515701D01*
X151318120Y-117346442D01*
X151196962Y-117197887D01*
X151049256Y-117075694D01*
X150880629Y-116984518D01*
X150830189Y-116968904D01*
X150700420Y-116928734D01*
X150700417Y-116928733D01*
X150697505Y-116927832D01*
X150694472Y-116927513D01*
X150694471Y-116927513D01*
X150646787Y-116922501D01*
X150506857Y-116907794D01*
X150503824Y-116908070D01*
X150503820Y-116908070D01*
X150421118Y-116915597D01*
X150315948Y-116925168D01*
X150132050Y-116979292D01*
X149962167Y-117068105D01*
X149812770Y-117188223D01*
X149689549Y-117335072D01*
X149597198Y-117503058D01*
X149539234Y-117685783D01*
X149538894Y-117688815D01*
X149518784Y-117868106D01*
X149517866Y-117876286D01*
X140190628Y-117876286D01*
X140083982Y-117776140D01*
X139946090Y-117700333D01*
X139793678Y-117661200D01*
X139675817Y-117661200D01*
X139673865Y-117661447D01*
X139673859Y-117661447D01*
X139615364Y-117668837D01*
X139558885Y-117675972D01*
X139555229Y-117677419D01*
X139555227Y-117677420D01*
X139500174Y-117699217D01*
X139412579Y-117733898D01*
X139409401Y-117736207D01*
X139409399Y-117736208D01*
X139288459Y-117824077D01*
X139288457Y-117824079D01*
X139285276Y-117826390D01*
X139184973Y-117947635D01*
X139183300Y-117951191D01*
X139183299Y-117951192D01*
X139171813Y-117975602D01*
X139117974Y-118090015D01*
X139117238Y-118093873D01*
X139089266Y-118240512D01*
X139088489Y-118244583D01*
X133948117Y-118244583D01*
X133939426Y-118189714D01*
X133888733Y-118090223D01*
X133809777Y-118011267D01*
X133710286Y-117960574D01*
X133600000Y-117943106D01*
X133489714Y-117960574D01*
X133390223Y-118011267D01*
X133356694Y-118044796D01*
X133312500Y-118063102D01*
X133268306Y-118044796D01*
X133234777Y-118011267D01*
X133135286Y-117960574D01*
X133025000Y-117943106D01*
X132914714Y-117960574D01*
X132815223Y-118011267D01*
X132806694Y-118019796D01*
X132762500Y-118038102D01*
X132718306Y-118019796D01*
X132700000Y-117975602D01*
X132700000Y-117525000D01*
X135543106Y-117525000D01*
X135560574Y-117635286D01*
X135611267Y-117734777D01*
X135690223Y-117813733D01*
X135789714Y-117864426D01*
X135900000Y-117881894D01*
X136010286Y-117864426D01*
X136109777Y-117813733D01*
X136188733Y-117734777D01*
X136239426Y-117635286D01*
X136256894Y-117525000D01*
X136818106Y-117525000D01*
X136835574Y-117635286D01*
X136886267Y-117734777D01*
X136965223Y-117813733D01*
X137064714Y-117864426D01*
X137175000Y-117881894D01*
X137285286Y-117864426D01*
X137384777Y-117813733D01*
X137463733Y-117734777D01*
X137514426Y-117635286D01*
X137531894Y-117525000D01*
X137514426Y-117414714D01*
X137463733Y-117315223D01*
X137384777Y-117236267D01*
X137285286Y-117185574D01*
X137175000Y-117168106D01*
X137064714Y-117185574D01*
X136965223Y-117236267D01*
X136886267Y-117315223D01*
X136835574Y-117414714D01*
X136818106Y-117525000D01*
X136256894Y-117525000D01*
X136239426Y-117414714D01*
X136188733Y-117315223D01*
X136109777Y-117236267D01*
X136010286Y-117185574D01*
X135900000Y-117168106D01*
X135789714Y-117185574D01*
X135690223Y-117236267D01*
X135611267Y-117315223D01*
X135560574Y-117414714D01*
X135543106Y-117525000D01*
X132700000Y-117525000D01*
X132700000Y-116900000D01*
X130062500Y-116900000D01*
X130018306Y-116881694D01*
X130000000Y-116837500D01*
X130000000Y-114462500D01*
X130018306Y-114418306D01*
X130062500Y-114400000D01*
X131800000Y-114400000D01*
X131800000Y-112562500D01*
X131818306Y-112518306D01*
X131862500Y-112500000D01*
X134037500Y-112500000D01*
X134081694Y-112518306D01*
G37*
%TD.AperFunction*%
%TD*%
M02*
