%TF.GenerationSoftware,KiCad,Pcbnew,(6.0.5)*%
%TF.CreationDate,2022-05-29T19:21:05+02:00*%
%TF.ProjectId,SolarCamPiV2,536f6c61-7243-4616-9d50-6956322e6b69,rev?*%
%TF.SameCoordinates,Original*%
%TF.FileFunction,Paste,Top*%
%TF.FilePolarity,Positive*%
%FSLAX46Y46*%
G04 Gerber Fmt 4.6, Leading zero omitted, Abs format (unit mm)*
G04 Created by KiCad (PCBNEW (6.0.5)) date 2022-05-29 19:21:05*
%MOMM*%
%LPD*%
G01*
G04 APERTURE LIST*
G04 Aperture macros list*
%AMRoundRect*
0 Rectangle with rounded corners*
0 $1 Rounding radius*
0 $2 $3 $4 $5 $6 $7 $8 $9 X,Y pos of 4 corners*
0 Add a 4 corners polygon primitive as box body*
4,1,4,$2,$3,$4,$5,$6,$7,$8,$9,$2,$3,0*
0 Add four circle primitives for the rounded corners*
1,1,$1+$1,$2,$3*
1,1,$1+$1,$4,$5*
1,1,$1+$1,$6,$7*
1,1,$1+$1,$8,$9*
0 Add four rect primitives between the rounded corners*
20,1,$1+$1,$2,$3,$4,$5,0*
20,1,$1+$1,$4,$5,$6,$7,0*
20,1,$1+$1,$6,$7,$8,$9,0*
20,1,$1+$1,$8,$9,$2,$3,0*%
%AMFreePoly0*
4,1,9,3.862500,-0.866500,0.737500,-0.866500,0.737500,-0.450000,-0.737500,-0.450000,-0.737500,0.450000,0.737500,0.450000,0.737500,0.866500,3.862500,0.866500,3.862500,-0.866500,3.862500,-0.866500,$1*%
G04 Aperture macros list end*
%ADD10RoundRect,0.140000X-0.170000X0.140000X-0.170000X-0.140000X0.170000X-0.140000X0.170000X0.140000X0*%
%ADD11RoundRect,0.250000X0.475000X-0.250000X0.475000X0.250000X-0.475000X0.250000X-0.475000X-0.250000X0*%
%ADD12RoundRect,0.140000X0.170000X-0.140000X0.170000X0.140000X-0.170000X0.140000X-0.170000X-0.140000X0*%
%ADD13RoundRect,0.135000X0.185000X-0.135000X0.185000X0.135000X-0.185000X0.135000X-0.185000X-0.135000X0*%
%ADD14R,2.500000X3.300000*%
%ADD15R,1.200000X3.700000*%
%ADD16RoundRect,0.250000X-0.312500X-0.625000X0.312500X-0.625000X0.312500X0.625000X-0.312500X0.625000X0*%
%ADD17RoundRect,0.135000X-0.185000X0.135000X-0.185000X-0.135000X0.185000X-0.135000X0.185000X0.135000X0*%
%ADD18RoundRect,0.250000X0.312500X0.625000X-0.312500X0.625000X-0.312500X-0.625000X0.312500X-0.625000X0*%
%ADD19RoundRect,0.135000X0.135000X0.185000X-0.135000X0.185000X-0.135000X-0.185000X0.135000X-0.185000X0*%
%ADD20RoundRect,0.140000X-0.140000X-0.170000X0.140000X-0.170000X0.140000X0.170000X-0.140000X0.170000X0*%
%ADD21R,1.800000X2.500000*%
%ADD22R,2.500000X1.800000*%
%ADD23RoundRect,0.135000X-0.135000X-0.185000X0.135000X-0.185000X0.135000X0.185000X-0.135000X0.185000X0*%
%ADD24RoundRect,0.100000X-0.637500X-0.100000X0.637500X-0.100000X0.637500X0.100000X-0.637500X0.100000X0*%
%ADD25RoundRect,0.225000X0.250000X-0.225000X0.250000X0.225000X-0.250000X0.225000X-0.250000X-0.225000X0*%
%ADD26RoundRect,0.250000X1.000000X-1.750000X1.000000X1.750000X-1.000000X1.750000X-1.000000X-1.750000X0*%
%ADD27RoundRect,0.150000X0.150000X-0.587500X0.150000X0.587500X-0.150000X0.587500X-0.150000X-0.587500X0*%
%ADD28R,0.900000X1.300000*%
%ADD29FreePoly0,270.000000*%
%ADD30RoundRect,0.225000X0.225000X0.250000X-0.225000X0.250000X-0.225000X-0.250000X0.225000X-0.250000X0*%
%ADD31RoundRect,0.200000X-0.800000X0.200000X-0.800000X-0.200000X0.800000X-0.200000X0.800000X0.200000X0*%
%ADD32R,1.100000X0.510000*%
%ADD33RoundRect,0.218750X0.218750X0.256250X-0.218750X0.256250X-0.218750X-0.256250X0.218750X-0.256250X0*%
%ADD34RoundRect,0.250000X0.375000X0.625000X-0.375000X0.625000X-0.375000X-0.625000X0.375000X-0.625000X0*%
%ADD35RoundRect,0.218750X0.218750X0.381250X-0.218750X0.381250X-0.218750X-0.381250X0.218750X-0.381250X0*%
%ADD36R,2.300000X2.500000*%
%ADD37RoundRect,0.150000X-0.512500X-0.150000X0.512500X-0.150000X0.512500X0.150000X-0.512500X0.150000X0*%
%ADD38RoundRect,0.250000X-0.625000X0.312500X-0.625000X-0.312500X0.625000X-0.312500X0.625000X0.312500X0*%
%ADD39RoundRect,0.250000X-0.325000X-0.650000X0.325000X-0.650000X0.325000X0.650000X-0.325000X0.650000X0*%
%ADD40RoundRect,0.140000X0.140000X0.170000X-0.140000X0.170000X-0.140000X-0.170000X0.140000X-0.170000X0*%
%ADD41R,1.800000X1.000000*%
%ADD42RoundRect,0.150000X-0.587500X-0.150000X0.587500X-0.150000X0.587500X0.150000X-0.587500X0.150000X0*%
%ADD43RoundRect,0.150000X0.587500X0.150000X-0.587500X0.150000X-0.587500X-0.150000X0.587500X-0.150000X0*%
%ADD44R,2.950000X3.500000*%
%ADD45RoundRect,0.250000X-0.475000X0.250000X-0.475000X-0.250000X0.475000X-0.250000X0.475000X0.250000X0*%
%ADD46RoundRect,0.250000X0.625000X-0.312500X0.625000X0.312500X-0.625000X0.312500X-0.625000X-0.312500X0*%
G04 APERTURE END LIST*
D10*
%TO.C,C19*%
X126400000Y-125920000D03*
X126400000Y-126880000D03*
%TD*%
D11*
%TO.C,C8*%
X130918820Y-117631320D03*
X130918820Y-115731320D03*
%TD*%
D10*
%TO.C,C10*%
X108500000Y-127470000D03*
X108500000Y-128430000D03*
%TD*%
D12*
%TO.C,C22*%
X109800000Y-123560000D03*
X109800000Y-122600000D03*
%TD*%
D13*
%TO.C,R17*%
X122100000Y-121510000D03*
X122100000Y-120490000D03*
%TD*%
D14*
%TO.C,D6*%
X101799999Y-110400000D03*
X108599999Y-110400000D03*
%TD*%
D15*
%TO.C,L2*%
X130600000Y-122600000D03*
X127800000Y-122600000D03*
%TD*%
D16*
%TO.C,R13*%
X108837500Y-119600000D03*
X111762500Y-119600000D03*
%TD*%
D17*
%TO.C,R9*%
X126400000Y-122090000D03*
X126400000Y-123110000D03*
%TD*%
D18*
%TO.C,R8*%
X129062500Y-119200000D03*
X126137500Y-119200000D03*
%TD*%
D19*
%TO.C,R14*%
X131360000Y-114450000D03*
X130340000Y-114450000D03*
%TD*%
D20*
%TO.C,C21*%
X111220000Y-122000000D03*
X112180000Y-122000000D03*
%TD*%
D17*
%TO.C,R33*%
X147000000Y-107190000D03*
X147000000Y-108210000D03*
%TD*%
D13*
%TO.C,R34*%
X148000000Y-109110000D03*
X148000000Y-108090000D03*
%TD*%
D21*
%TO.C,D7*%
X155000000Y-112100000D03*
X155000000Y-108100000D03*
%TD*%
%TO.C,D2*%
X144718820Y-108481320D03*
X144718820Y-112481320D03*
%TD*%
D22*
%TO.C,D1*%
X140018820Y-108481320D03*
X136018820Y-108481320D03*
%TD*%
D17*
%TO.C,R30*%
X152800000Y-108800000D03*
X152800000Y-109820000D03*
%TD*%
D23*
%TO.C,R24*%
X144690000Y-114525000D03*
X145710000Y-114525000D03*
%TD*%
D11*
%TO.C,C15*%
X134000000Y-128450000D03*
X134000000Y-126550000D03*
%TD*%
D24*
%TO.C,U4*%
X111237500Y-123075000D03*
X111237500Y-123725000D03*
X111237500Y-124375000D03*
X111237500Y-125025000D03*
X111237500Y-125675000D03*
X111237500Y-126325000D03*
X111237500Y-126975000D03*
X111237500Y-127625000D03*
X111237500Y-128275000D03*
X111237500Y-128925000D03*
X116962500Y-128925000D03*
X116962500Y-128275000D03*
X116962500Y-127625000D03*
X116962500Y-126975000D03*
X116962500Y-126325000D03*
X116962500Y-125675000D03*
X116962500Y-125025000D03*
X116962500Y-124375000D03*
X116962500Y-123725000D03*
X116962500Y-123075000D03*
%TD*%
D25*
%TO.C,C4*%
X130750000Y-113225000D03*
X130750000Y-111675000D03*
%TD*%
D17*
%TO.C,R20*%
X108800000Y-116090000D03*
X108800000Y-117110000D03*
%TD*%
D26*
%TO.C,C26*%
X115700000Y-116932500D03*
X115700000Y-108932500D03*
%TD*%
D27*
%TO.C,Q4*%
X132250000Y-124737500D03*
X134150000Y-124737500D03*
X133200000Y-122862500D03*
%TD*%
D19*
%TO.C,R22*%
X117535000Y-122000000D03*
X116515000Y-122000000D03*
%TD*%
D10*
%TO.C,C7*%
X129418820Y-114820000D03*
X129418820Y-115780000D03*
%TD*%
D13*
%TO.C,R23*%
X130425000Y-119885000D03*
X130425000Y-118865000D03*
%TD*%
D28*
%TO.C,U2*%
X156800000Y-125350000D03*
D29*
X155300000Y-125437500D03*
D28*
X153800000Y-125350000D03*
%TD*%
D17*
%TO.C,R29*%
X132025000Y-121389769D03*
X132025000Y-122409769D03*
%TD*%
D23*
%TO.C,R28*%
X127490000Y-128800000D03*
X128510000Y-128800000D03*
%TD*%
D20*
%TO.C,C6*%
X123738820Y-117581320D03*
X124698820Y-117581320D03*
%TD*%
D18*
%TO.C,R6*%
X116462500Y-120400000D03*
X113537500Y-120400000D03*
%TD*%
D17*
%TO.C,R19*%
X108800000Y-114190000D03*
X108800000Y-115210000D03*
%TD*%
D12*
%TO.C,C13*%
X119500000Y-128880000D03*
X119500000Y-127920000D03*
%TD*%
D23*
%TO.C,R25*%
X132990000Y-121400000D03*
X134010000Y-121400000D03*
%TD*%
D13*
%TO.C,R3*%
X121750000Y-116035000D03*
X121750000Y-115015000D03*
%TD*%
D30*
%TO.C,C5*%
X129175000Y-110900000D03*
X127625000Y-110900000D03*
%TD*%
D31*
%TO.C,SW1*%
X119700000Y-122600000D03*
X119700000Y-126800000D03*
%TD*%
D10*
%TO.C,C20*%
X107550000Y-127470000D03*
X107550000Y-128430000D03*
%TD*%
D27*
%TO.C,D3*%
X135750000Y-128237500D03*
X137650000Y-128237500D03*
X136700000Y-126362500D03*
%TD*%
D23*
%TO.C,R21*%
X108790000Y-118000000D03*
X109810000Y-118000000D03*
%TD*%
D32*
%TO.C,U1*%
X123068820Y-112381320D03*
X123068820Y-113381320D03*
X123068820Y-114381320D03*
X123068820Y-115381320D03*
X123068820Y-116381320D03*
X128168820Y-116381320D03*
X128168820Y-115381320D03*
X128168820Y-114381320D03*
X128168820Y-113381320D03*
X128168820Y-112381320D03*
%TD*%
D33*
%TO.C,D5*%
X124887500Y-121100000D03*
X123312500Y-121100000D03*
%TD*%
D34*
%TO.C,F1*%
X155850000Y-115025000D03*
X153050000Y-115025000D03*
%TD*%
D13*
%TO.C,R4*%
X121750000Y-114110000D03*
X121750000Y-113090000D03*
%TD*%
D12*
%TO.C,C3*%
X129418820Y-117580000D03*
X129418820Y-116620000D03*
%TD*%
D11*
%TO.C,C9*%
X133018820Y-117431320D03*
X133018820Y-115531320D03*
%TD*%
D35*
%TO.C,FB1*%
X124012499Y-119050000D03*
X121887499Y-119050000D03*
%TD*%
D17*
%TO.C,R7*%
X126400000Y-123990000D03*
X126400000Y-125010000D03*
%TD*%
D36*
%TO.C,D4*%
X123600000Y-123450000D03*
X123600000Y-127750000D03*
%TD*%
D23*
%TO.C,R5*%
X109340000Y-121600000D03*
X110360000Y-121600000D03*
%TD*%
D37*
%TO.C,U3*%
X129862500Y-126550000D03*
X129862500Y-127500000D03*
X129862500Y-128450000D03*
X132137500Y-128450000D03*
X132137500Y-127500000D03*
X132137500Y-126550000D03*
%TD*%
D19*
%TO.C,R10*%
X115535000Y-122000000D03*
X114515000Y-122000000D03*
%TD*%
D38*
%TO.C,R15*%
X132918820Y-111018820D03*
X132918820Y-113943820D03*
%TD*%
D39*
%TO.C,C1*%
X123106320Y-108081320D03*
X126056320Y-108081320D03*
%TD*%
D40*
%TO.C,C14*%
X156680000Y-123900000D03*
X155720000Y-123900000D03*
%TD*%
D39*
%TO.C,C2*%
X123106320Y-110381320D03*
X126056320Y-110381320D03*
%TD*%
D10*
%TO.C,C24*%
X109800000Y-124620000D03*
X109800000Y-125580000D03*
%TD*%
D41*
%TO.C,Y1*%
X108200000Y-126250000D03*
X108200000Y-123750000D03*
%TD*%
D23*
%TO.C,R2*%
X127508820Y-117581320D03*
X128528820Y-117581320D03*
%TD*%
D20*
%TO.C,C17*%
X129420000Y-125300000D03*
X130380000Y-125300000D03*
%TD*%
D23*
%TO.C,R1*%
X125608820Y-117581320D03*
X126628820Y-117581320D03*
%TD*%
D40*
%TO.C,C16*%
X154780000Y-123900000D03*
X153820000Y-123900000D03*
%TD*%
D17*
%TO.C,R27*%
X126400000Y-127790000D03*
X126400000Y-128810000D03*
%TD*%
D42*
%TO.C,Q2*%
X127881320Y-107531320D03*
X127881320Y-109431320D03*
X129756320Y-108481320D03*
%TD*%
D43*
%TO.C,Q6*%
X151337500Y-109250000D03*
X151337500Y-107350000D03*
X149462500Y-108300000D03*
%TD*%
D23*
%TO.C,R26*%
X136190000Y-124900000D03*
X137210000Y-124900000D03*
%TD*%
D20*
%TO.C,C25*%
X112870000Y-122000000D03*
X113830000Y-122000000D03*
%TD*%
D23*
%TO.C,R11*%
X121808820Y-117581320D03*
X122828820Y-117581320D03*
%TD*%
D12*
%TO.C,C23*%
X108450000Y-122530000D03*
X108450000Y-121570000D03*
%TD*%
D44*
%TO.C,L1*%
X141268820Y-113781320D03*
X135818820Y-113781320D03*
%TD*%
D45*
%TO.C,C18*%
X127900000Y-125650000D03*
X127900000Y-127550000D03*
%TD*%
D42*
%TO.C,Q1*%
X131681320Y-107531320D03*
X131681320Y-109431320D03*
X133556320Y-108481320D03*
%TD*%
D27*
%TO.C,Q3*%
X135650000Y-123437500D03*
X137550000Y-123437500D03*
X136600000Y-121562500D03*
%TD*%
D43*
%TO.C,Q5*%
X152137500Y-112750000D03*
X152137500Y-110850000D03*
X150262500Y-111800000D03*
%TD*%
D12*
%TO.C,C11*%
X109800000Y-127880000D03*
X109800000Y-126920000D03*
%TD*%
D19*
%TO.C,R32*%
X149010000Y-107200000D03*
X147990000Y-107200000D03*
%TD*%
D10*
%TO.C,C12*%
X118500000Y-127920000D03*
X118500000Y-128880000D03*
%TD*%
D13*
%TO.C,R31*%
X152800000Y-107920000D03*
X152800000Y-106900000D03*
%TD*%
%TO.C,R12*%
X129450000Y-113910000D03*
X129450000Y-112890000D03*
%TD*%
D46*
%TO.C,R16*%
X147700000Y-113362500D03*
X147700000Y-110437500D03*
%TD*%
M02*
