%TF.GenerationSoftware,KiCad,Pcbnew,(6.0.5)*%
%TF.CreationDate,2022-05-29T19:21:05+02:00*%
%TF.ProjectId,SolarCamPiV2,536f6c61-7243-4616-9d50-6956322e6b69,rev?*%
%TF.SameCoordinates,Original*%
%TF.FileFunction,Legend,Bot*%
%TF.FilePolarity,Positive*%
%FSLAX46Y46*%
G04 Gerber Fmt 4.6, Leading zero omitted, Abs format (unit mm)*
G04 Created by KiCad (PCBNEW (6.0.5)) date 2022-05-29 19:21:05*
%MOMM*%
%LPD*%
G01*
G04 APERTURE LIST*
%ADD10C,0.150000*%
%ADD11C,0.120000*%
G04 APERTURE END LIST*
D10*
X131104761Y-106480952D02*
X131152380Y-106623809D01*
X131152380Y-106861904D01*
X131104761Y-106957142D01*
X131057142Y-107004761D01*
X130961904Y-107052380D01*
X130866666Y-107052380D01*
X130771428Y-107004761D01*
X130723809Y-106957142D01*
X130676190Y-106861904D01*
X130628571Y-106671428D01*
X130580952Y-106576190D01*
X130533333Y-106528571D01*
X130438095Y-106480952D01*
X130342857Y-106480952D01*
X130247619Y-106528571D01*
X130200000Y-106576190D01*
X130152380Y-106671428D01*
X130152380Y-106909523D01*
X130200000Y-107052380D01*
X130152380Y-107385714D02*
X131152380Y-107623809D01*
X130438095Y-107814285D01*
X131152380Y-108004761D01*
X130152380Y-108242857D01*
X131152380Y-108623809D02*
X130152380Y-108623809D01*
X130152380Y-108861904D01*
X130200000Y-109004761D01*
X130295238Y-109100000D01*
X130390476Y-109147619D01*
X130580952Y-109195238D01*
X130723809Y-109195238D01*
X130914285Y-109147619D01*
X131009523Y-109100000D01*
X131104761Y-109004761D01*
X131152380Y-108861904D01*
X131152380Y-108623809D01*
X131152380Y-109623809D02*
X130152380Y-109623809D01*
X130152380Y-110290476D02*
X130152380Y-110480952D01*
X130200000Y-110576190D01*
X130295238Y-110671428D01*
X130485714Y-110719047D01*
X130819047Y-110719047D01*
X131009523Y-110671428D01*
X131104761Y-110576190D01*
X131152380Y-110480952D01*
X131152380Y-110290476D01*
X131104761Y-110195238D01*
X131009523Y-110100000D01*
X130819047Y-110052380D01*
X130485714Y-110052380D01*
X130295238Y-110100000D01*
X130200000Y-110195238D01*
X130152380Y-110290476D01*
X116304761Y-108523809D02*
X116352380Y-108666666D01*
X116352380Y-108904761D01*
X116304761Y-109000000D01*
X116257142Y-109047619D01*
X116161904Y-109095238D01*
X116066666Y-109095238D01*
X115971428Y-109047619D01*
X115923809Y-109000000D01*
X115876190Y-108904761D01*
X115828571Y-108714285D01*
X115780952Y-108619047D01*
X115733333Y-108571428D01*
X115638095Y-108523809D01*
X115542857Y-108523809D01*
X115447619Y-108571428D01*
X115400000Y-108619047D01*
X115352380Y-108714285D01*
X115352380Y-108952380D01*
X115400000Y-109095238D01*
X115352380Y-109380952D02*
X115352380Y-109952380D01*
X116352380Y-109666666D02*
X115352380Y-109666666D01*
X116352380Y-110285714D02*
X115352380Y-110285714D01*
X116066666Y-110619047D01*
X115352380Y-110952380D01*
X116352380Y-110952380D01*
X115070000Y-111952380D02*
X115070000Y-112952380D01*
X116352380Y-112761904D02*
X115876190Y-112428571D01*
X116352380Y-112190476D02*
X115352380Y-112190476D01*
X115352380Y-112571428D01*
X115400000Y-112666666D01*
X115447619Y-112714285D01*
X115542857Y-112761904D01*
X115685714Y-112761904D01*
X115780952Y-112714285D01*
X115828571Y-112666666D01*
X115876190Y-112571428D01*
X115876190Y-112190476D01*
X115070000Y-112952380D02*
X115070000Y-113904761D01*
X116304761Y-113142857D02*
X116352380Y-113285714D01*
X116352380Y-113523809D01*
X116304761Y-113619047D01*
X116257142Y-113666666D01*
X116161904Y-113714285D01*
X116066666Y-113714285D01*
X115971428Y-113666666D01*
X115923809Y-113619047D01*
X115876190Y-113523809D01*
X115828571Y-113333333D01*
X115780952Y-113238095D01*
X115733333Y-113190476D01*
X115638095Y-113142857D01*
X115542857Y-113142857D01*
X115447619Y-113190476D01*
X115400000Y-113238095D01*
X115352380Y-113333333D01*
X115352380Y-113571428D01*
X115400000Y-113714285D01*
X115070000Y-113904761D02*
X115070000Y-114666666D01*
X115352380Y-114000000D02*
X115352380Y-114571428D01*
X116352380Y-114285714D02*
X115352380Y-114285714D01*
X122652380Y-107761904D02*
X121652380Y-107761904D01*
X121652380Y-108142857D01*
X121700000Y-108238095D01*
X121747619Y-108285714D01*
X121842857Y-108333333D01*
X121985714Y-108333333D01*
X122080952Y-108285714D01*
X122128571Y-108238095D01*
X122176190Y-108142857D01*
X122176190Y-107761904D01*
X121652380Y-108952380D02*
X121652380Y-109142857D01*
X121700000Y-109238095D01*
X121795238Y-109333333D01*
X121985714Y-109380952D01*
X122319047Y-109380952D01*
X122509523Y-109333333D01*
X122604761Y-109238095D01*
X122652380Y-109142857D01*
X122652380Y-108952380D01*
X122604761Y-108857142D01*
X122509523Y-108761904D01*
X122319047Y-108714285D01*
X121985714Y-108714285D01*
X121795238Y-108761904D01*
X121700000Y-108857142D01*
X121652380Y-108952380D01*
X121652380Y-109714285D02*
X122652380Y-109952380D01*
X121938095Y-110142857D01*
X122652380Y-110333333D01*
X121652380Y-110571428D01*
X122128571Y-110952380D02*
X122128571Y-111285714D01*
X122652380Y-111428571D02*
X122652380Y-110952380D01*
X121652380Y-110952380D01*
X121652380Y-111428571D01*
X122652380Y-112428571D02*
X122176190Y-112095238D01*
X122652380Y-111857142D02*
X121652380Y-111857142D01*
X121652380Y-112238095D01*
X121700000Y-112333333D01*
X121747619Y-112380952D01*
X121842857Y-112428571D01*
X121985714Y-112428571D01*
X122080952Y-112380952D01*
X122128571Y-112333333D01*
X122176190Y-112238095D01*
X122176190Y-111857142D01*
X121652380Y-113809523D02*
X121652380Y-114000000D01*
X121700000Y-114095238D01*
X121795238Y-114190476D01*
X121985714Y-114238095D01*
X122319047Y-114238095D01*
X122509523Y-114190476D01*
X122604761Y-114095238D01*
X122652380Y-114000000D01*
X122652380Y-113809523D01*
X122604761Y-113714285D01*
X122509523Y-113619047D01*
X122319047Y-113571428D01*
X121985714Y-113571428D01*
X121795238Y-113619047D01*
X121700000Y-113714285D01*
X121652380Y-113809523D01*
X122652380Y-114666666D02*
X121652380Y-114666666D01*
X122652380Y-115238095D01*
X121652380Y-115238095D01*
X142704761Y-106538095D02*
X142752380Y-106680952D01*
X142752380Y-106919047D01*
X142704761Y-107014285D01*
X142657142Y-107061904D01*
X142561904Y-107109523D01*
X142466666Y-107109523D01*
X142371428Y-107061904D01*
X142323809Y-107014285D01*
X142276190Y-106919047D01*
X142228571Y-106728571D01*
X142180952Y-106633333D01*
X142133333Y-106585714D01*
X142038095Y-106538095D01*
X141942857Y-106538095D01*
X141847619Y-106585714D01*
X141800000Y-106633333D01*
X141752380Y-106728571D01*
X141752380Y-106966666D01*
X141800000Y-107109523D01*
X141752380Y-107442857D02*
X142752380Y-107680952D01*
X142038095Y-107871428D01*
X142752380Y-108061904D01*
X141752380Y-108300000D01*
X142657142Y-109252380D02*
X142704761Y-109204761D01*
X142752380Y-109061904D01*
X142752380Y-108966666D01*
X142704761Y-108823809D01*
X142609523Y-108728571D01*
X142514285Y-108680952D01*
X142323809Y-108633333D01*
X142180952Y-108633333D01*
X141990476Y-108680952D01*
X141895238Y-108728571D01*
X141800000Y-108823809D01*
X141752380Y-108966666D01*
X141752380Y-109061904D01*
X141800000Y-109204761D01*
X141847619Y-109252380D01*
X142752380Y-110157142D02*
X142752380Y-109680952D01*
X141752380Y-109680952D01*
X142752380Y-110490476D02*
X141752380Y-110490476D01*
X142752380Y-111061904D02*
X142180952Y-110633333D01*
X141752380Y-111061904D02*
X142323809Y-110490476D01*
X144257142Y-126947380D02*
X144257142Y-125947380D01*
X143923809Y-126661666D01*
X143590476Y-125947380D01*
X143590476Y-126947380D01*
X143114285Y-126947380D02*
X143114285Y-125947380D01*
X142733333Y-125947380D01*
X142638095Y-125995000D01*
X142590476Y-126042619D01*
X142542857Y-126137857D01*
X142542857Y-126280714D01*
X142590476Y-126375952D01*
X142638095Y-126423571D01*
X142733333Y-126471190D01*
X143114285Y-126471190D01*
X142114285Y-126947380D02*
X142114285Y-125947380D01*
X141733333Y-125947380D01*
X141638095Y-125995000D01*
X141590476Y-126042619D01*
X141542857Y-126137857D01*
X141542857Y-126280714D01*
X141590476Y-126375952D01*
X141638095Y-126423571D01*
X141733333Y-126471190D01*
X142114285Y-126471190D01*
X141257142Y-125947380D02*
X140685714Y-125947380D01*
X140971428Y-126947380D02*
X140971428Y-125947380D01*
X139638095Y-126899761D02*
X139495238Y-126947380D01*
X139257142Y-126947380D01*
X139161904Y-126899761D01*
X139114285Y-126852142D01*
X139066666Y-126756904D01*
X139066666Y-126661666D01*
X139114285Y-126566428D01*
X139161904Y-126518809D01*
X139257142Y-126471190D01*
X139447619Y-126423571D01*
X139542857Y-126375952D01*
X139590476Y-126328333D01*
X139638095Y-126233095D01*
X139638095Y-126137857D01*
X139590476Y-126042619D01*
X139542857Y-125995000D01*
X139447619Y-125947380D01*
X139209523Y-125947380D01*
X139066666Y-125995000D01*
X138495238Y-126947380D02*
X138590476Y-126899761D01*
X138638095Y-126852142D01*
X138685714Y-126756904D01*
X138685714Y-126471190D01*
X138638095Y-126375952D01*
X138590476Y-126328333D01*
X138495238Y-126280714D01*
X138352380Y-126280714D01*
X138257142Y-126328333D01*
X138209523Y-126375952D01*
X138161904Y-126471190D01*
X138161904Y-126756904D01*
X138209523Y-126852142D01*
X138257142Y-126899761D01*
X138352380Y-126947380D01*
X138495238Y-126947380D01*
X137590476Y-126947380D02*
X137685714Y-126899761D01*
X137733333Y-126804523D01*
X137733333Y-125947380D01*
X136780952Y-126947380D02*
X136780952Y-126423571D01*
X136828571Y-126328333D01*
X136923809Y-126280714D01*
X137114285Y-126280714D01*
X137209523Y-126328333D01*
X136780952Y-126899761D02*
X136876190Y-126947380D01*
X137114285Y-126947380D01*
X137209523Y-126899761D01*
X137257142Y-126804523D01*
X137257142Y-126709285D01*
X137209523Y-126614047D01*
X137114285Y-126566428D01*
X136876190Y-126566428D01*
X136780952Y-126518809D01*
X136304761Y-126947380D02*
X136304761Y-126280714D01*
X136304761Y-126471190D02*
X136257142Y-126375952D01*
X136209523Y-126328333D01*
X136114285Y-126280714D01*
X136019047Y-126280714D01*
X134352380Y-126852142D02*
X134400000Y-126899761D01*
X134542857Y-126947380D01*
X134638095Y-126947380D01*
X134780952Y-126899761D01*
X134876190Y-126804523D01*
X134923809Y-126709285D01*
X134971428Y-126518809D01*
X134971428Y-126375952D01*
X134923809Y-126185476D01*
X134876190Y-126090238D01*
X134780952Y-125995000D01*
X134638095Y-125947380D01*
X134542857Y-125947380D01*
X134400000Y-125995000D01*
X134352380Y-126042619D01*
X133495238Y-126947380D02*
X133495238Y-126423571D01*
X133542857Y-126328333D01*
X133638095Y-126280714D01*
X133828571Y-126280714D01*
X133923809Y-126328333D01*
X133495238Y-126899761D02*
X133590476Y-126947380D01*
X133828571Y-126947380D01*
X133923809Y-126899761D01*
X133971428Y-126804523D01*
X133971428Y-126709285D01*
X133923809Y-126614047D01*
X133828571Y-126566428D01*
X133590476Y-126566428D01*
X133495238Y-126518809D01*
X133019047Y-126947380D02*
X133019047Y-126280714D01*
X133019047Y-126375952D02*
X132971428Y-126328333D01*
X132876190Y-126280714D01*
X132733333Y-126280714D01*
X132638095Y-126328333D01*
X132590476Y-126423571D01*
X132590476Y-126947380D01*
X132590476Y-126423571D02*
X132542857Y-126328333D01*
X132447619Y-126280714D01*
X132304761Y-126280714D01*
X132209523Y-126328333D01*
X132161904Y-126423571D01*
X132161904Y-126947380D01*
X130923809Y-126947380D02*
X130923809Y-125947380D01*
X130542857Y-125947380D01*
X130447619Y-125995000D01*
X130400000Y-126042619D01*
X130352380Y-126137857D01*
X130352380Y-126280714D01*
X130400000Y-126375952D01*
X130447619Y-126423571D01*
X130542857Y-126471190D01*
X130923809Y-126471190D01*
X129923809Y-126947380D02*
X129923809Y-126280714D01*
X129923809Y-125947380D02*
X129971428Y-125995000D01*
X129923809Y-126042619D01*
X129876190Y-125995000D01*
X129923809Y-125947380D01*
X129923809Y-126042619D01*
X128828571Y-125947380D02*
X128495238Y-126947380D01*
X128161904Y-125947380D01*
X127876190Y-126042619D02*
X127828571Y-125995000D01*
X127733333Y-125947380D01*
X127495238Y-125947380D01*
X127400000Y-125995000D01*
X127352380Y-126042619D01*
X127304761Y-126137857D01*
X127304761Y-126233095D01*
X127352380Y-126375952D01*
X127923809Y-126947380D01*
X127304761Y-126947380D01*
X123257142Y-126947380D02*
X123590476Y-126471190D01*
X123828571Y-126947380D02*
X123828571Y-125947380D01*
X123447619Y-125947380D01*
X123352380Y-125995000D01*
X123304761Y-126042619D01*
X123257142Y-126137857D01*
X123257142Y-126280714D01*
X123304761Y-126375952D01*
X123352380Y-126423571D01*
X123447619Y-126471190D01*
X123828571Y-126471190D01*
X122447619Y-126899761D02*
X122542857Y-126947380D01*
X122733333Y-126947380D01*
X122828571Y-126899761D01*
X122876190Y-126804523D01*
X122876190Y-126423571D01*
X122828571Y-126328333D01*
X122733333Y-126280714D01*
X122542857Y-126280714D01*
X122447619Y-126328333D01*
X122400000Y-126423571D01*
X122400000Y-126518809D01*
X122876190Y-126614047D01*
X122066666Y-126280714D02*
X121828571Y-126947380D01*
X121590476Y-126280714D01*
X119923809Y-126947380D02*
X120495238Y-126947380D01*
X120209523Y-126947380D02*
X120209523Y-125947380D01*
X120304761Y-126090238D01*
X120400000Y-126185476D01*
X120495238Y-126233095D01*
X119495238Y-126852142D02*
X119447619Y-126899761D01*
X119495238Y-126947380D01*
X119542857Y-126899761D01*
X119495238Y-126852142D01*
X119495238Y-126947380D01*
X118828571Y-125947380D02*
X118733333Y-125947380D01*
X118638095Y-125995000D01*
X118590476Y-126042619D01*
X118542857Y-126137857D01*
X118495238Y-126328333D01*
X118495238Y-126566428D01*
X118542857Y-126756904D01*
X118590476Y-126852142D01*
X118638095Y-126899761D01*
X118733333Y-126947380D01*
X118828571Y-126947380D01*
X118923809Y-126899761D01*
X118971428Y-126852142D01*
X119019047Y-126756904D01*
X119066666Y-126566428D01*
X119066666Y-126328333D01*
X119019047Y-126137857D01*
X118971428Y-126042619D01*
X118923809Y-125995000D01*
X118828571Y-125947380D01*
X145685714Y-128557380D02*
X145685714Y-127557380D01*
X145447619Y-127557380D01*
X145304761Y-127605000D01*
X145209523Y-127700238D01*
X145161904Y-127795476D01*
X145114285Y-127985952D01*
X145114285Y-128128809D01*
X145161904Y-128319285D01*
X145209523Y-128414523D01*
X145304761Y-128509761D01*
X145447619Y-128557380D01*
X145685714Y-128557380D01*
X144304761Y-128509761D02*
X144400000Y-128557380D01*
X144590476Y-128557380D01*
X144685714Y-128509761D01*
X144733333Y-128414523D01*
X144733333Y-128033571D01*
X144685714Y-127938333D01*
X144590476Y-127890714D01*
X144400000Y-127890714D01*
X144304761Y-127938333D01*
X144257142Y-128033571D01*
X144257142Y-128128809D01*
X144733333Y-128224047D01*
X143876190Y-128509761D02*
X143780952Y-128557380D01*
X143590476Y-128557380D01*
X143495238Y-128509761D01*
X143447619Y-128414523D01*
X143447619Y-128366904D01*
X143495238Y-128271666D01*
X143590476Y-128224047D01*
X143733333Y-128224047D01*
X143828571Y-128176428D01*
X143876190Y-128081190D01*
X143876190Y-128033571D01*
X143828571Y-127938333D01*
X143733333Y-127890714D01*
X143590476Y-127890714D01*
X143495238Y-127938333D01*
X143019047Y-128557380D02*
X143019047Y-127890714D01*
X143019047Y-127557380D02*
X143066666Y-127605000D01*
X143019047Y-127652619D01*
X142971428Y-127605000D01*
X143019047Y-127557380D01*
X143019047Y-127652619D01*
X142114285Y-127890714D02*
X142114285Y-128700238D01*
X142161904Y-128795476D01*
X142209523Y-128843095D01*
X142304761Y-128890714D01*
X142447619Y-128890714D01*
X142542857Y-128843095D01*
X142114285Y-128509761D02*
X142209523Y-128557380D01*
X142400000Y-128557380D01*
X142495238Y-128509761D01*
X142542857Y-128462142D01*
X142590476Y-128366904D01*
X142590476Y-128081190D01*
X142542857Y-127985952D01*
X142495238Y-127938333D01*
X142400000Y-127890714D01*
X142209523Y-127890714D01*
X142114285Y-127938333D01*
X141638095Y-127890714D02*
X141638095Y-128557380D01*
X141638095Y-127985952D02*
X141590476Y-127938333D01*
X141495238Y-127890714D01*
X141352380Y-127890714D01*
X141257142Y-127938333D01*
X141209523Y-128033571D01*
X141209523Y-128557380D01*
X140352380Y-128509761D02*
X140447619Y-128557380D01*
X140638095Y-128557380D01*
X140733333Y-128509761D01*
X140780952Y-128414523D01*
X140780952Y-128033571D01*
X140733333Y-127938333D01*
X140638095Y-127890714D01*
X140447619Y-127890714D01*
X140352380Y-127938333D01*
X140304761Y-128033571D01*
X140304761Y-128128809D01*
X140780952Y-128224047D01*
X139447619Y-128557380D02*
X139447619Y-127557380D01*
X139447619Y-128509761D02*
X139542857Y-128557380D01*
X139733333Y-128557380D01*
X139828571Y-128509761D01*
X139876190Y-128462142D01*
X139923809Y-128366904D01*
X139923809Y-128081190D01*
X139876190Y-127985952D01*
X139828571Y-127938333D01*
X139733333Y-127890714D01*
X139542857Y-127890714D01*
X139447619Y-127938333D01*
X138209523Y-128557380D02*
X138209523Y-127557380D01*
X138209523Y-127938333D02*
X138114285Y-127890714D01*
X137923809Y-127890714D01*
X137828571Y-127938333D01*
X137780952Y-127985952D01*
X137733333Y-128081190D01*
X137733333Y-128366904D01*
X137780952Y-128462142D01*
X137828571Y-128509761D01*
X137923809Y-128557380D01*
X138114285Y-128557380D01*
X138209523Y-128509761D01*
X137400000Y-127890714D02*
X137161904Y-128557380D01*
X136923809Y-127890714D02*
X137161904Y-128557380D01*
X137257142Y-128795476D01*
X137304761Y-128843095D01*
X137400000Y-128890714D01*
X135923809Y-127557380D02*
X135352380Y-127557380D01*
X135638095Y-128557380D02*
X135638095Y-127557380D01*
X134876190Y-128557380D02*
X134971428Y-128509761D01*
X135019047Y-128462142D01*
X135066666Y-128366904D01*
X135066666Y-128081190D01*
X135019047Y-127985952D01*
X134971428Y-127938333D01*
X134876190Y-127890714D01*
X134733333Y-127890714D01*
X134638095Y-127938333D01*
X134590476Y-127985952D01*
X134542857Y-128081190D01*
X134542857Y-128366904D01*
X134590476Y-128462142D01*
X134638095Y-128509761D01*
X134733333Y-128557380D01*
X134876190Y-128557380D01*
X134114285Y-128557380D02*
X134114285Y-127557380D01*
X134114285Y-127938333D02*
X134019047Y-127890714D01*
X133828571Y-127890714D01*
X133733333Y-127938333D01*
X133685714Y-127985952D01*
X133638095Y-128081190D01*
X133638095Y-128366904D01*
X133685714Y-128462142D01*
X133733333Y-128509761D01*
X133828571Y-128557380D01*
X134019047Y-128557380D01*
X134114285Y-128509761D01*
X133209523Y-128557380D02*
X133209523Y-127890714D01*
X133209523Y-127557380D02*
X133257142Y-127605000D01*
X133209523Y-127652619D01*
X133161904Y-127605000D01*
X133209523Y-127557380D01*
X133209523Y-127652619D01*
X132304761Y-128557380D02*
X132304761Y-128033571D01*
X132352380Y-127938333D01*
X132447619Y-127890714D01*
X132638095Y-127890714D01*
X132733333Y-127938333D01*
X132304761Y-128509761D02*
X132400000Y-128557380D01*
X132638095Y-128557380D01*
X132733333Y-128509761D01*
X132780952Y-128414523D01*
X132780952Y-128319285D01*
X132733333Y-128224047D01*
X132638095Y-128176428D01*
X132400000Y-128176428D01*
X132304761Y-128128809D01*
X131876190Y-128509761D02*
X131780952Y-128557380D01*
X131590476Y-128557380D01*
X131495238Y-128509761D01*
X131447619Y-128414523D01*
X131447619Y-128366904D01*
X131495238Y-128271666D01*
X131590476Y-128224047D01*
X131733333Y-128224047D01*
X131828571Y-128176428D01*
X131876190Y-128081190D01*
X131876190Y-128033571D01*
X131828571Y-127938333D01*
X131733333Y-127890714D01*
X131590476Y-127890714D01*
X131495238Y-127938333D01*
X130304761Y-128509761D02*
X130161904Y-128557380D01*
X129923809Y-128557380D01*
X129828571Y-128509761D01*
X129780952Y-128462142D01*
X129733333Y-128366904D01*
X129733333Y-128271666D01*
X129780952Y-128176428D01*
X129828571Y-128128809D01*
X129923809Y-128081190D01*
X130114285Y-128033571D01*
X130209523Y-127985952D01*
X130257142Y-127938333D01*
X130304761Y-127843095D01*
X130304761Y-127747857D01*
X130257142Y-127652619D01*
X130209523Y-127605000D01*
X130114285Y-127557380D01*
X129876190Y-127557380D01*
X129733333Y-127605000D01*
X128876190Y-128509761D02*
X128971428Y-128557380D01*
X129161904Y-128557380D01*
X129257142Y-128509761D01*
X129304761Y-128462142D01*
X129352380Y-128366904D01*
X129352380Y-128081190D01*
X129304761Y-127985952D01*
X129257142Y-127938333D01*
X129161904Y-127890714D01*
X128971428Y-127890714D01*
X128876190Y-127938333D01*
X128447619Y-128557380D02*
X128447619Y-127557380D01*
X128019047Y-128557380D02*
X128019047Y-128033571D01*
X128066666Y-127938333D01*
X128161904Y-127890714D01*
X128304761Y-127890714D01*
X128400000Y-127938333D01*
X128447619Y-127985952D01*
X127542857Y-128557380D02*
X127542857Y-127890714D01*
X127542857Y-128081190D02*
X127495238Y-127985952D01*
X127447619Y-127938333D01*
X127352380Y-127890714D01*
X127257142Y-127890714D01*
X126495238Y-128557380D02*
X126495238Y-128033571D01*
X126542857Y-127938333D01*
X126638095Y-127890714D01*
X126828571Y-127890714D01*
X126923809Y-127938333D01*
X126495238Y-128509761D02*
X126590476Y-128557380D01*
X126828571Y-128557380D01*
X126923809Y-128509761D01*
X126971428Y-128414523D01*
X126971428Y-128319285D01*
X126923809Y-128224047D01*
X126828571Y-128176428D01*
X126590476Y-128176428D01*
X126495238Y-128128809D01*
X126019047Y-128557380D02*
X126019047Y-127890714D01*
X126019047Y-127985952D02*
X125971428Y-127938333D01*
X125876190Y-127890714D01*
X125733333Y-127890714D01*
X125638095Y-127938333D01*
X125590476Y-128033571D01*
X125590476Y-128557380D01*
X125590476Y-128033571D02*
X125542857Y-127938333D01*
X125447619Y-127890714D01*
X125304761Y-127890714D01*
X125209523Y-127938333D01*
X125161904Y-128033571D01*
X125161904Y-128557380D01*
X124685714Y-128557380D02*
X124685714Y-127890714D01*
X124685714Y-127985952D02*
X124638095Y-127938333D01*
X124542857Y-127890714D01*
X124400000Y-127890714D01*
X124304761Y-127938333D01*
X124257142Y-128033571D01*
X124257142Y-128557380D01*
X124257142Y-128033571D02*
X124209523Y-127938333D01*
X124114285Y-127890714D01*
X123971428Y-127890714D01*
X123876190Y-127938333D01*
X123828571Y-128033571D01*
X123828571Y-128557380D01*
X122590476Y-128557380D02*
X122590476Y-127890714D01*
X122590476Y-127557380D02*
X122638095Y-127605000D01*
X122590476Y-127652619D01*
X122542857Y-127605000D01*
X122590476Y-127557380D01*
X122590476Y-127652619D01*
X122114285Y-127890714D02*
X122114285Y-128557380D01*
X122114285Y-127985952D02*
X122066666Y-127938333D01*
X121971428Y-127890714D01*
X121828571Y-127890714D01*
X121733333Y-127938333D01*
X121685714Y-128033571D01*
X121685714Y-128557380D01*
X120495238Y-127652619D02*
X120447619Y-127605000D01*
X120352380Y-127557380D01*
X120114285Y-127557380D01*
X120019047Y-127605000D01*
X119971428Y-127652619D01*
X119923809Y-127747857D01*
X119923809Y-127843095D01*
X119971428Y-127985952D01*
X120542857Y-128557380D01*
X119923809Y-128557380D01*
X119304761Y-127557380D02*
X119209523Y-127557380D01*
X119114285Y-127605000D01*
X119066666Y-127652619D01*
X119019047Y-127747857D01*
X118971428Y-127938333D01*
X118971428Y-128176428D01*
X119019047Y-128366904D01*
X119066666Y-128462142D01*
X119114285Y-128509761D01*
X119209523Y-128557380D01*
X119304761Y-128557380D01*
X119400000Y-128509761D01*
X119447619Y-128462142D01*
X119495238Y-128366904D01*
X119542857Y-128176428D01*
X119542857Y-127938333D01*
X119495238Y-127747857D01*
X119447619Y-127652619D01*
X119400000Y-127605000D01*
X119304761Y-127557380D01*
X118590476Y-127652619D02*
X118542857Y-127605000D01*
X118447619Y-127557380D01*
X118209523Y-127557380D01*
X118114285Y-127605000D01*
X118066666Y-127652619D01*
X118019047Y-127747857D01*
X118019047Y-127843095D01*
X118066666Y-127985952D01*
X118638095Y-128557380D01*
X118019047Y-128557380D01*
X117638095Y-127652619D02*
X117590476Y-127605000D01*
X117495238Y-127557380D01*
X117257142Y-127557380D01*
X117161904Y-127605000D01*
X117114285Y-127652619D01*
X117066666Y-127747857D01*
X117066666Y-127843095D01*
X117114285Y-127985952D01*
X117685714Y-128557380D01*
X117066666Y-128557380D01*
D11*
%TO.C,JP2*%
X116725000Y-110125000D02*
X116725000Y-112925000D01*
X118725000Y-110125000D02*
X116725000Y-110125000D01*
X116725000Y-112925000D02*
X118725000Y-112925000D01*
X118725000Y-112925000D02*
X118725000Y-110125000D01*
%TO.C,J2*%
X107070000Y-104800000D02*
X107070000Y-106130000D01*
X107070000Y-100930000D02*
X157990000Y-100930000D01*
X107070000Y-100930000D02*
X107070000Y-103530000D01*
X157990000Y-100930000D02*
X157990000Y-106130000D01*
X107070000Y-106130000D02*
X108400000Y-106130000D01*
X107070000Y-103530000D02*
X109670000Y-103530000D01*
X109670000Y-106130000D02*
X157990000Y-106130000D01*
X109670000Y-103530000D02*
X109670000Y-106130000D01*
%TO.C,JP5*%
X143000000Y-107100000D02*
X143000000Y-109900000D01*
X145000000Y-107100000D02*
X143000000Y-107100000D01*
X143000000Y-109900000D02*
X145000000Y-109900000D01*
X145000000Y-109900000D02*
X145000000Y-107100000D01*
%TO.C,JP3*%
X119225000Y-110125000D02*
X119225000Y-112925000D01*
X119225000Y-112925000D02*
X121225000Y-112925000D01*
X121225000Y-110125000D02*
X119225000Y-110125000D01*
X121225000Y-112925000D02*
X121225000Y-110125000D01*
%TO.C,JP6*%
X129800000Y-107100000D02*
X127800000Y-107100000D01*
X129800000Y-109900000D02*
X129800000Y-107100000D01*
X127800000Y-109900000D02*
X129800000Y-109900000D01*
X127800000Y-107100000D02*
X127800000Y-109900000D01*
%TD*%
M02*
