M48
; DRILL file {KiCad (6.0.5)} date So 29 Mai 2022 19:21:11 CEST
; FORMAT={-:-/ absolute / metric / decimal}
; #@! TF.CreationDate,2022-05-29T19:21:11+02:00
; #@! TF.GenerationSoftware,Kicad,Pcbnew,(6.0.5)
; #@! TF.FileFunction,Plated,1,4,PTH
FMAT,2
METRIC
; #@! TA.AperFunction,Plated,PTH,ViaDrill
T1C0.200
; #@! TA.AperFunction,Plated,PTH,ComponentDrill
T2C1.000
; #@! TA.AperFunction,Plated,PTH,ComponentDrill
T3C1.200
%
G90
G05
T1
X106.925Y-111.925
X106.95Y-108.875
X106.95Y-109.6
X106.95Y-110.4
X106.962Y-111.15
X107.0Y-129.0
X107.8Y-129.0
X108.5Y-125.398
X108.5Y-129.0
X109.0Y-124.95
X109.0Y-127.3
X109.15Y-122.65
X109.4Y-128.1
X109.55Y-116.425
X109.8Y-117.3
X109.8Y-126.3
X110.4Y-113.3
X110.4Y-120.9
X110.6Y-122.5
X110.9Y-117.1
X111.425Y-114.275
X112.175Y-121.425
X112.8Y-118.0
X113.0Y-125.9
X113.2Y-107.2
X113.2Y-107.9
X113.2Y-108.6
X113.2Y-109.3
X113.2Y-110.0
X113.2Y-110.7
X113.2Y-111.4
X113.2Y-112.1
X113.2Y-112.8
X114.057Y-109.942
X114.075Y-108.95
X114.082Y-107.968
X114.45Y-119.675
X114.45Y-120.4
X114.45Y-121.125
X114.725Y-125.325
X114.725Y-127.825
X115.1Y-123.075
X115.525Y-121.425
X115.7Y-124.1
X115.7Y-129.0
X117.317Y-107.957
X117.317Y-108.882
X117.4Y-119.7
X117.4Y-120.35
X117.4Y-121.0
X117.7Y-113.3
X118.025Y-122.525
X118.075Y-120.3
X118.4Y-127.325
X118.55Y-118.425
X118.55Y-124.325
X119.175Y-121.25
X120.0Y-115.025
X120.0Y-124.425
X120.325Y-127.625
X120.45Y-114.125
X120.45Y-124.9
X120.6Y-129.05
X120.9Y-128.075
X121.0Y-119.325
X121.0Y-123.3
X121.1Y-125.0
X121.125Y-120.3
X121.75Y-116.7
X121.9Y-129.0
X122.0Y-122.425
X122.0Y-123.75
X122.0Y-124.475
X122.6Y-126.1
X122.95Y-118.425
X123.6Y-126.1
X124.025Y-107.325
X124.025Y-108.075
X124.025Y-108.85
X124.025Y-109.625
X124.025Y-110.375
X124.025Y-111.15
X124.5Y-126.1
X124.7Y-116.95
X124.95Y-119.05
X125.125Y-107.325
X125.125Y-108.075
X125.131Y-108.769
X125.131Y-109.669
X125.131Y-110.369
X125.131Y-111.144
X125.2Y-123.1
X125.375Y-128.475
X125.6Y-113.7
X125.625Y-121.125
X127.1Y-118.5
X127.1Y-119.2
X127.1Y-119.9
X127.25Y-108.3
X127.25Y-112.6
X127.4Y-126.7
X128.25Y-118.15
X128.25Y-118.65
X128.4Y-126.7
X128.975Y-118.125
X129.775Y-118.225
X129.9Y-110.3
X130.325Y-116.575
X130.75Y-110.65
X131.175Y-113.75
X131.4Y-119.875
X131.5Y-116.575
X131.5Y-118.5
X131.95Y-114.925
X132.175Y-113.025
X132.425Y-116.375
X132.425Y-118.3
X132.925Y-113.025
X133.0Y-120.2
X133.025Y-118.3
X133.6Y-116.375
X133.6Y-118.3
X133.65Y-113.025
X134.7Y-127.5
X134.8Y-124.15
X134.825Y-124.75
X134.825Y-125.35
X135.9Y-117.525
X136.725Y-128.475
X137.175Y-117.525
X137.875Y-121.825
X138.0Y-115.8
X138.5Y-123.4
X139.0Y-115.8
X139.125Y-121.575
X143.45Y-111.4
X143.45Y-111.95
X143.45Y-112.5
X143.45Y-113.05
X143.45Y-113.6
X144.7Y-115.3
X145.5Y-123.0
X145.5Y-124.05
X145.5Y-125.1
X147.0Y-111.4
X147.0Y-112.5
X147.7Y-111.4
X147.7Y-112.5
X147.7Y-114.3
X148.4Y-111.4
X148.4Y-112.5
X149.075Y-110.125
X149.8Y-110.1
X150.3Y-103.525
X151.35Y-108.025
X152.15Y-111.55
X152.3Y-126.775
X152.5Y-122.9
X152.9Y-124.6
X152.9Y-125.2
X153.15Y-123.9
X153.2Y-113.9
X153.75Y-106.975
X153.75Y-107.54
X153.75Y-108.1
X153.75Y-108.675
X153.8Y-123.2
X154.0Y-116.35
X154.05Y-113.05
X154.15Y-114.35
X154.45Y-116.8
X155.0Y-110.475
X155.0Y-113.5
X155.4Y-123.35
X156.025Y-123.375
X156.4Y-122.45
X157.3Y-123.9
T2
X108.4Y-102.26
X108.4Y-104.8
X110.94Y-102.26
X110.94Y-104.8
X113.48Y-102.26
X113.48Y-104.8
X116.02Y-102.26
X116.02Y-104.8
X118.56Y-102.26
X118.56Y-104.8
X121.1Y-102.26
X121.1Y-104.8
X123.64Y-102.26
X123.64Y-104.8
X126.18Y-102.26
X126.18Y-104.8
X128.72Y-102.26
X128.72Y-104.8
X131.26Y-102.26
X131.26Y-104.8
X133.8Y-102.26
X133.8Y-104.8
X136.34Y-102.26
X136.34Y-104.8
X138.88Y-102.26
X138.88Y-104.8
X141.42Y-102.26
X141.42Y-104.8
X141.71Y-119.425
X143.96Y-102.26
X143.96Y-104.8
X144.25Y-119.425
X146.5Y-102.26
X146.5Y-104.8
X149.04Y-102.26
X149.04Y-104.8
X150.5Y-115.35
X150.5Y-117.89
X150.5Y-120.43
X150.5Y-122.97
X150.5Y-125.51
X150.5Y-128.05
X151.58Y-102.26
X151.58Y-104.8
X154.12Y-102.26
X154.12Y-104.8
X154.425Y-119.1
X154.425Y-121.64
X156.66Y-102.26
X156.66Y-104.8
T3
X104.1Y-116.9
X104.1Y-120.4
X160.9Y-110.05
X160.9Y-113.55
T0
M30
