%TF.GenerationSoftware,KiCad,Pcbnew,(6.0.5)*%
%TF.CreationDate,2022-05-29T19:21:04+02:00*%
%TF.ProjectId,SolarCamPiV2,536f6c61-7243-4616-9d50-6956322e6b69,rev?*%
%TF.SameCoordinates,Original*%
%TF.FileFunction,Copper,L1,Top*%
%TF.FilePolarity,Positive*%
%FSLAX46Y46*%
G04 Gerber Fmt 4.6, Leading zero omitted, Abs format (unit mm)*
G04 Created by KiCad (PCBNEW (6.0.5)) date 2022-05-29 19:21:04*
%MOMM*%
%LPD*%
G01*
G04 APERTURE LIST*
G04 Aperture macros list*
%AMRoundRect*
0 Rectangle with rounded corners*
0 $1 Rounding radius*
0 $2 $3 $4 $5 $6 $7 $8 $9 X,Y pos of 4 corners*
0 Add a 4 corners polygon primitive as box body*
4,1,4,$2,$3,$4,$5,$6,$7,$8,$9,$2,$3,0*
0 Add four circle primitives for the rounded corners*
1,1,$1+$1,$2,$3*
1,1,$1+$1,$4,$5*
1,1,$1+$1,$6,$7*
1,1,$1+$1,$8,$9*
0 Add four rect primitives between the rounded corners*
20,1,$1+$1,$2,$3,$4,$5,0*
20,1,$1+$1,$4,$5,$6,$7,0*
20,1,$1+$1,$6,$7,$8,$9,0*
20,1,$1+$1,$8,$9,$2,$3,0*%
%AMFreePoly0*
4,1,9,3.862500,-0.866500,0.737500,-0.866500,0.737500,-0.450000,-0.737500,-0.450000,-0.737500,0.450000,0.737500,0.450000,0.737500,0.866500,3.862500,0.866500,3.862500,-0.866500,3.862500,-0.866500,$1*%
G04 Aperture macros list end*
%TA.AperFunction,SMDPad,CuDef*%
%ADD10RoundRect,0.140000X-0.170000X0.140000X-0.170000X-0.140000X0.170000X-0.140000X0.170000X0.140000X0*%
%TD*%
%TA.AperFunction,SMDPad,CuDef*%
%ADD11RoundRect,0.250000X0.475000X-0.250000X0.475000X0.250000X-0.475000X0.250000X-0.475000X-0.250000X0*%
%TD*%
%TA.AperFunction,SMDPad,CuDef*%
%ADD12RoundRect,0.140000X0.170000X-0.140000X0.170000X0.140000X-0.170000X0.140000X-0.170000X-0.140000X0*%
%TD*%
%TA.AperFunction,SMDPad,CuDef*%
%ADD13RoundRect,0.135000X0.185000X-0.135000X0.185000X0.135000X-0.185000X0.135000X-0.185000X-0.135000X0*%
%TD*%
%TA.AperFunction,SMDPad,CuDef*%
%ADD14R,2.500000X3.300000*%
%TD*%
%TA.AperFunction,SMDPad,CuDef*%
%ADD15R,1.200000X3.700000*%
%TD*%
%TA.AperFunction,SMDPad,CuDef*%
%ADD16RoundRect,0.250000X-0.312500X-0.625000X0.312500X-0.625000X0.312500X0.625000X-0.312500X0.625000X0*%
%TD*%
%TA.AperFunction,SMDPad,CuDef*%
%ADD17RoundRect,0.135000X-0.185000X0.135000X-0.185000X-0.135000X0.185000X-0.135000X0.185000X0.135000X0*%
%TD*%
%TA.AperFunction,ComponentPad*%
%ADD18R,1.700000X1.700000*%
%TD*%
%TA.AperFunction,ComponentPad*%
%ADD19O,1.700000X1.700000*%
%TD*%
%TA.AperFunction,SMDPad,CuDef*%
%ADD20RoundRect,0.250000X0.312500X0.625000X-0.312500X0.625000X-0.312500X-0.625000X0.312500X-0.625000X0*%
%TD*%
%TA.AperFunction,SMDPad,CuDef*%
%ADD21RoundRect,0.135000X0.135000X0.185000X-0.135000X0.185000X-0.135000X-0.185000X0.135000X-0.185000X0*%
%TD*%
%TA.AperFunction,SMDPad,CuDef*%
%ADD22RoundRect,0.140000X-0.140000X-0.170000X0.140000X-0.170000X0.140000X0.170000X-0.140000X0.170000X0*%
%TD*%
%TA.AperFunction,SMDPad,CuDef*%
%ADD23R,1.800000X2.500000*%
%TD*%
%TA.AperFunction,SMDPad,CuDef*%
%ADD24R,2.500000X1.800000*%
%TD*%
%TA.AperFunction,SMDPad,CuDef*%
%ADD25RoundRect,0.135000X-0.135000X-0.185000X0.135000X-0.185000X0.135000X0.185000X-0.135000X0.185000X0*%
%TD*%
%TA.AperFunction,SMDPad,CuDef*%
%ADD26RoundRect,0.100000X-0.637500X-0.100000X0.637500X-0.100000X0.637500X0.100000X-0.637500X0.100000X0*%
%TD*%
%TA.AperFunction,SMDPad,CuDef*%
%ADD27RoundRect,0.225000X0.250000X-0.225000X0.250000X0.225000X-0.250000X0.225000X-0.250000X-0.225000X0*%
%TD*%
%TA.AperFunction,SMDPad,CuDef*%
%ADD28RoundRect,0.250000X1.000000X-1.750000X1.000000X1.750000X-1.000000X1.750000X-1.000000X-1.750000X0*%
%TD*%
%TA.AperFunction,SMDPad,CuDef*%
%ADD29RoundRect,0.150000X0.150000X-0.587500X0.150000X0.587500X-0.150000X0.587500X-0.150000X-0.587500X0*%
%TD*%
%TA.AperFunction,SMDPad,CuDef*%
%ADD30R,0.900000X1.300000*%
%TD*%
%TA.AperFunction,SMDPad,CuDef*%
%ADD31FreePoly0,270.000000*%
%TD*%
%TA.AperFunction,ConnectorPad*%
%ADD32C,0.787400*%
%TD*%
%TA.AperFunction,SMDPad,CuDef*%
%ADD33RoundRect,0.225000X0.225000X0.250000X-0.225000X0.250000X-0.225000X-0.250000X0.225000X-0.250000X0*%
%TD*%
%TA.AperFunction,SMDPad,CuDef*%
%ADD34RoundRect,0.200000X-0.800000X0.200000X-0.800000X-0.200000X0.800000X-0.200000X0.800000X0.200000X0*%
%TD*%
%TA.AperFunction,SMDPad,CuDef*%
%ADD35R,1.100000X0.510000*%
%TD*%
%TA.AperFunction,SMDPad,CuDef*%
%ADD36RoundRect,0.218750X0.218750X0.256250X-0.218750X0.256250X-0.218750X-0.256250X0.218750X-0.256250X0*%
%TD*%
%TA.AperFunction,SMDPad,CuDef*%
%ADD37RoundRect,0.250000X0.375000X0.625000X-0.375000X0.625000X-0.375000X-0.625000X0.375000X-0.625000X0*%
%TD*%
%TA.AperFunction,SMDPad,CuDef*%
%ADD38RoundRect,0.218750X0.218750X0.381250X-0.218750X0.381250X-0.218750X-0.381250X0.218750X-0.381250X0*%
%TD*%
%TA.AperFunction,SMDPad,CuDef*%
%ADD39R,2.300000X2.500000*%
%TD*%
%TA.AperFunction,SMDPad,CuDef*%
%ADD40RoundRect,0.150000X-0.512500X-0.150000X0.512500X-0.150000X0.512500X0.150000X-0.512500X0.150000X0*%
%TD*%
%TA.AperFunction,ComponentPad*%
%ADD41R,2.400000X2.400000*%
%TD*%
%TA.AperFunction,ComponentPad*%
%ADD42C,2.400000*%
%TD*%
%TA.AperFunction,SMDPad,CuDef*%
%ADD43RoundRect,0.250000X-0.625000X0.312500X-0.625000X-0.312500X0.625000X-0.312500X0.625000X0.312500X0*%
%TD*%
%TA.AperFunction,SMDPad,CuDef*%
%ADD44RoundRect,0.250000X-0.325000X-0.650000X0.325000X-0.650000X0.325000X0.650000X-0.325000X0.650000X0*%
%TD*%
%TA.AperFunction,SMDPad,CuDef*%
%ADD45RoundRect,0.140000X0.140000X0.170000X-0.140000X0.170000X-0.140000X-0.170000X0.140000X-0.170000X0*%
%TD*%
%TA.AperFunction,SMDPad,CuDef*%
%ADD46R,1.800000X1.000000*%
%TD*%
%TA.AperFunction,SMDPad,CuDef*%
%ADD47RoundRect,0.150000X-0.587500X-0.150000X0.587500X-0.150000X0.587500X0.150000X-0.587500X0.150000X0*%
%TD*%
%TA.AperFunction,SMDPad,CuDef*%
%ADD48RoundRect,0.150000X0.587500X0.150000X-0.587500X0.150000X-0.587500X-0.150000X0.587500X-0.150000X0*%
%TD*%
%TA.AperFunction,SMDPad,CuDef*%
%ADD49R,2.950000X3.500000*%
%TD*%
%TA.AperFunction,SMDPad,CuDef*%
%ADD50RoundRect,0.250000X-0.475000X0.250000X-0.475000X-0.250000X0.475000X-0.250000X0.475000X0.250000X0*%
%TD*%
%TA.AperFunction,SMDPad,CuDef*%
%ADD51RoundRect,0.250000X0.625000X-0.312500X0.625000X0.312500X-0.625000X0.312500X-0.625000X-0.312500X0*%
%TD*%
%TA.AperFunction,ViaPad*%
%ADD52C,0.450000*%
%TD*%
%TA.AperFunction,Conductor*%
%ADD53C,0.127000*%
%TD*%
%TA.AperFunction,Conductor*%
%ADD54C,0.250000*%
%TD*%
%TA.AperFunction,Conductor*%
%ADD55C,1.000000*%
%TD*%
%TA.AperFunction,Conductor*%
%ADD56C,0.500000*%
%TD*%
G04 APERTURE END LIST*
D10*
%TO.P,C19,1*%
%TO.N,+5V*%
X126400000Y-125920000D03*
%TO.P,C19,2*%
%TO.N,Net-(C19-Pad2)*%
X126400000Y-126880000D03*
%TD*%
D11*
%TO.P,C8,1*%
%TO.N,GND2*%
X130918820Y-117631320D03*
%TO.P,C8,2*%
%TO.N,+BATT*%
X130918820Y-115731320D03*
%TD*%
D10*
%TO.P,C10,1*%
%TO.N,GND*%
X108500000Y-127470000D03*
%TO.P,C10,2*%
%TO.N,/I_{Solar}*%
X108500000Y-128430000D03*
%TD*%
D12*
%TO.P,C22,1*%
%TO.N,Net-(C22-Pad1)*%
X109800000Y-123560000D03*
%TO.P,C22,2*%
%TO.N,GND*%
X109800000Y-122600000D03*
%TD*%
D13*
%TO.P,R17,1*%
%TO.N,+5V*%
X122100000Y-121510000D03*
%TO.P,R17,2*%
%TO.N,Net-(D5-Pad2)*%
X122100000Y-120490000D03*
%TD*%
D14*
%TO.P,D6,1,K*%
%TO.N,/+SOLAR*%
X101799999Y-110400000D03*
%TO.P,D6,2,A*%
%TO.N,GND*%
X108599999Y-110400000D03*
%TD*%
D15*
%TO.P,L2,1*%
%TO.N,Net-(C17-Pad2)*%
X130600000Y-122600000D03*
%TO.P,L2,2*%
%TO.N,+5V*%
X127800000Y-122600000D03*
%TD*%
D16*
%TO.P,R13,1*%
%TO.N,/+SOLAR*%
X108837500Y-119600000D03*
%TO.P,R13,2*%
%TO.N,Net-(C26-Pad1)*%
X111762500Y-119600000D03*
%TD*%
D17*
%TO.P,R9,1*%
%TO.N,GND*%
X126400000Y-122090000D03*
%TO.P,R9,2*%
%TO.N,Net-(R10-Pad1)*%
X126400000Y-123110000D03*
%TD*%
D18*
%TO.P,JP1,1,A*%
%TO.N,+3V3*%
X144250000Y-119425000D03*
D19*
%TO.P,JP1,2,B*%
%TO.N,/rpi_on_stm*%
X141710000Y-119425000D03*
%TD*%
D20*
%TO.P,R8,1*%
%TO.N,GND2*%
X129062500Y-119200000D03*
%TO.P,R8,2*%
%TO.N,GND1*%
X126137500Y-119200000D03*
%TD*%
D21*
%TO.P,R14,1*%
%TO.N,+BATT*%
X131360000Y-114450000D03*
%TO.P,R14,2*%
%TO.N,Net-(C7-Pad2)*%
X130340000Y-114450000D03*
%TD*%
D22*
%TO.P,C21,1*%
%TO.N,/~{RST}*%
X111220000Y-122000000D03*
%TO.P,C21,2*%
%TO.N,GND*%
X112180000Y-122000000D03*
%TD*%
D17*
%TO.P,R33,1*%
%TO.N,Net-(R32-Pad2)*%
X147000000Y-107190000D03*
%TO.P,R33,2*%
%TO.N,GND*%
X147000000Y-108210000D03*
%TD*%
D13*
%TO.P,R34,1*%
%TO.N,/U_{Batt}*%
X148000000Y-109110000D03*
%TO.P,R34,2*%
%TO.N,Net-(R32-Pad2)*%
X148000000Y-108090000D03*
%TD*%
D23*
%TO.P,D7,1,K*%
%TO.N,+BATT*%
X155000000Y-112100000D03*
%TO.P,D7,2,A*%
%TO.N,GND2*%
X155000000Y-108100000D03*
%TD*%
%TO.P,D2,1,K*%
%TO.N,Net-(D1-Pad1)*%
X144718820Y-108481320D03*
%TO.P,D2,2,A*%
%TO.N,GND1*%
X144718820Y-112481320D03*
%TD*%
D24*
%TO.P,D1,1,K*%
%TO.N,Net-(D1-Pad1)*%
X140018820Y-108481320D03*
%TO.P,D1,2,A*%
%TO.N,Net-(D1-Pad2)*%
X136018820Y-108481320D03*
%TD*%
D17*
%TO.P,R30,1*%
%TO.N,/u_batt_div_on*%
X152800000Y-108800000D03*
%TO.P,R30,2*%
%TO.N,GND*%
X152800000Y-109820000D03*
%TD*%
D25*
%TO.P,R24,1*%
%TO.N,/I_{Load}*%
X144690000Y-114525000D03*
%TO.P,R24,2*%
%TO.N,GND3*%
X145710000Y-114525000D03*
%TD*%
D11*
%TO.P,C15,1*%
%TO.N,GND3*%
X134000000Y-128450000D03*
%TO.P,C15,2*%
%TO.N,Net-(C15-Pad2)*%
X134000000Y-126550000D03*
%TD*%
D26*
%TO.P,U4,1,PB7/PB8*%
%TO.N,/SDA*%
X111237500Y-123075000D03*
%TO.P,U4,2,PB9/PC14-OSC32_IN*%
%TO.N,Net-(C22-Pad1)*%
X111237500Y-123725000D03*
%TO.P,U4,3,PC15-OSC32_OUT*%
%TO.N,Net-(C23-Pad1)*%
X111237500Y-124375000D03*
%TO.P,U4,4,VDD/VDDA*%
%TO.N,Net-(C24-Pad1)*%
X111237500Y-125025000D03*
%TO.P,U4,5,VSS/VSSA*%
%TO.N,GND*%
X111237500Y-125675000D03*
%TO.P,U4,6,NRST*%
%TO.N,/~{RST}*%
X111237500Y-126325000D03*
%TO.P,U4,7,PA0*%
%TO.N,/U_{Solar}*%
X111237500Y-126975000D03*
%TO.P,U4,8,PA1*%
%TO.N,/U_{Batt}*%
X111237500Y-127625000D03*
%TO.P,U4,9,PA2*%
%TO.N,/U_{Load}*%
X111237500Y-128275000D03*
%TO.P,U4,10,PA3*%
%TO.N,/I_{Solar}*%
X111237500Y-128925000D03*
%TO.P,U4,11,PA4*%
%TO.N,/I_{Charge}*%
X116962500Y-128925000D03*
%TO.P,U4,12,PA5*%
%TO.N,/I_{Load}*%
X116962500Y-128275000D03*
%TO.P,U4,13,PA6*%
%TO.N,/u_batt_div_on*%
X116962500Y-127625000D03*
%TO.P,U4,14,PA7*%
%TO.N,/rpi_on_stm*%
X116962500Y-126975000D03*
%TO.P,U4,15,PB0/PB1/PB2/PA8*%
%TO.N,/~{CHRG}*%
X116962500Y-126325000D03*
%TO.P,U4,16,PA11[PA9]*%
%TO.N,/~{DONE}*%
X116962500Y-125675000D03*
%TO.P,U4,17,PA12[PA10]*%
%TO.N,/GPIO*%
X116962500Y-125025000D03*
%TO.P,U4,18,PA13*%
%TO.N,/SWDIO*%
X116962500Y-124375000D03*
%TO.P,U4,19,PA15/PA14-BOOT0*%
%TO.N,/SWCLK*%
X116962500Y-123725000D03*
%TO.P,U4,20,PB3/PB4/PB5/PB6*%
%TO.N,/SCL*%
X116962500Y-123075000D03*
%TD*%
D27*
%TO.P,C4,1*%
%TO.N,/+SOLAR*%
X130750000Y-113225000D03*
%TO.P,C4,2*%
%TO.N,GND2*%
X130750000Y-111675000D03*
%TD*%
D17*
%TO.P,R20,1*%
%TO.N,Net-(R19-Pad2)*%
X108800000Y-116090000D03*
%TO.P,R20,2*%
%TO.N,GND*%
X108800000Y-117110000D03*
%TD*%
D28*
%TO.P,C26,1*%
%TO.N,Net-(C26-Pad1)*%
X115700000Y-116932500D03*
%TO.P,C26,2*%
%TO.N,GND*%
X115700000Y-108932500D03*
%TD*%
D29*
%TO.P,Q4,1,G*%
%TO.N,Net-(Q4-Pad1)*%
X132250000Y-124737500D03*
%TO.P,Q4,2,S*%
%TO.N,+BATT*%
X134150000Y-124737500D03*
%TO.P,Q4,3,D*%
%TO.N,Net-(C15-Pad2)*%
X133200000Y-122862500D03*
%TD*%
D21*
%TO.P,R22,1*%
%TO.N,/I_{Solar}*%
X117535000Y-122000000D03*
%TO.P,R22,2*%
%TO.N,GND1*%
X116515000Y-122000000D03*
%TD*%
D10*
%TO.P,C7,1*%
%TO.N,Net-(C7-Pad1)*%
X129418820Y-114820000D03*
%TO.P,C7,2*%
%TO.N,Net-(C7-Pad2)*%
X129418820Y-115780000D03*
%TD*%
D13*
%TO.P,R23,1*%
%TO.N,/I_{Charge}*%
X130425000Y-119885000D03*
%TO.P,R23,2*%
%TO.N,GND2*%
X130425000Y-118865000D03*
%TD*%
D30*
%TO.P,U2,1,GND*%
%TO.N,GND*%
X156800000Y-125350000D03*
D31*
%TO.P,U2,2,VIN*%
%TO.N,+BATT*%
X155300000Y-125437500D03*
D30*
%TO.P,U2,3,VOUT*%
%TO.N,+3V3*%
X153800000Y-125350000D03*
%TD*%
D17*
%TO.P,R29,1*%
%TO.N,Net-(Q3-Pad3)*%
X132025000Y-121389769D03*
%TO.P,R29,2*%
%TO.N,Net-(Q4-Pad1)*%
X132025000Y-122409769D03*
%TD*%
D25*
%TO.P,R28,1*%
%TO.N,Net-(C19-Pad2)*%
X127490000Y-128800000D03*
%TO.P,R28,2*%
%TO.N,GND3*%
X128510000Y-128800000D03*
%TD*%
D22*
%TO.P,C6,1*%
%TO.N,Net-(C6-Pad1)*%
X123738820Y-117581320D03*
%TO.P,C6,2*%
%TO.N,GND2*%
X124698820Y-117581320D03*
%TD*%
D20*
%TO.P,R6,1*%
%TO.N,GND1*%
X116462500Y-120400000D03*
%TO.P,R6,2*%
%TO.N,GND*%
X113537500Y-120400000D03*
%TD*%
D17*
%TO.P,R19,1*%
%TO.N,/+SOLAR*%
X108800000Y-114190000D03*
%TO.P,R19,2*%
%TO.N,Net-(R19-Pad2)*%
X108800000Y-115210000D03*
%TD*%
D12*
%TO.P,C13,1*%
%TO.N,GND*%
X119500000Y-128880000D03*
%TO.P,C13,2*%
%TO.N,/I_{Load}*%
X119500000Y-127920000D03*
%TD*%
D32*
%TO.P,J1,1,VTGT*%
%TO.N,+3V3*%
X135905000Y-119935000D03*
%TO.P,J1,2,SWDIO*%
%TO.N,/SWDIO*%
X135905000Y-118665000D03*
%TO.P,J1,3,~{RESET}*%
%TO.N,/~{RST}*%
X137175000Y-119935000D03*
%TO.P,J1,4,SWCLK*%
%TO.N,/SWCLK*%
X137175000Y-118665000D03*
%TO.P,J1,5,GND*%
%TO.N,GND*%
X138445000Y-119935000D03*
%TO.P,J1,6,SWO*%
%TO.N,unconnected-(J1-Pad6)*%
X138445000Y-118665000D03*
%TD*%
D25*
%TO.P,R25,1*%
%TO.N,Net-(Q4-Pad1)*%
X132990000Y-121400000D03*
%TO.P,R25,2*%
%TO.N,+BATT*%
X134010000Y-121400000D03*
%TD*%
D13*
%TO.P,R3,1*%
%TO.N,+3V3*%
X121750000Y-116035000D03*
%TO.P,R3,2*%
%TO.N,/~{DONE}*%
X121750000Y-115015000D03*
%TD*%
D33*
%TO.P,C5,1*%
%TO.N,/+SOLAR*%
X129175000Y-110900000D03*
%TO.P,C5,2*%
%TO.N,Net-(C5-Pad2)*%
X127625000Y-110900000D03*
%TD*%
D34*
%TO.P,SW1,1,1*%
%TO.N,+3V3*%
X119700000Y-122600000D03*
%TO.P,SW1,2,2*%
%TO.N,/u_batt_div_on*%
X119700000Y-126800000D03*
%TD*%
D10*
%TO.P,C20,1*%
%TO.N,/U_{Batt}*%
X107550000Y-127470000D03*
%TO.P,C20,2*%
%TO.N,GND*%
X107550000Y-128430000D03*
%TD*%
D29*
%TO.P,D3,1,A*%
%TO.N,/rpi_on_rpi*%
X135750000Y-128237500D03*
%TO.P,D3,2,A*%
%TO.N,/rpi_on_stm*%
X137650000Y-128237500D03*
%TO.P,D3,3,K*%
%TO.N,Net-(D3-Pad3)*%
X136700000Y-126362500D03*
%TD*%
D25*
%TO.P,R21,1*%
%TO.N,Net-(R19-Pad2)*%
X108790000Y-118000000D03*
%TO.P,R21,2*%
%TO.N,/U_{Solar}*%
X109810000Y-118000000D03*
%TD*%
D35*
%TO.P,U1,1,VG*%
%TO.N,Net-(C5-Pad2)*%
X123068820Y-112381320D03*
%TO.P,U1,2,GND*%
%TO.N,GND2*%
X123068820Y-113381320D03*
%TO.P,U1,3,~{CHRG}*%
%TO.N,/~{CHRG}*%
X123068820Y-114381320D03*
%TO.P,U1,4,~{DONE}*%
%TO.N,/~{DONE}*%
X123068820Y-115381320D03*
%TO.P,U1,5,COM*%
%TO.N,Net-(R11-Pad1)*%
X123068820Y-116381320D03*
%TO.P,U1,6,MPPT*%
%TO.N,Net-(C3-Pad2)*%
X128168820Y-116381320D03*
%TO.P,U1,7,BAT*%
%TO.N,Net-(C7-Pad2)*%
X128168820Y-115381320D03*
%TO.P,U1,8,CSP*%
%TO.N,Net-(C7-Pad1)*%
X128168820Y-114381320D03*
%TO.P,U1,9,VCC*%
%TO.N,/+SOLAR*%
X128168820Y-113381320D03*
%TO.P,U1,10,DRV*%
%TO.N,Net-(Q1-Pad1)*%
X128168820Y-112381320D03*
%TD*%
D36*
%TO.P,D5,1,K*%
%TO.N,GND3*%
X124887500Y-121100000D03*
%TO.P,D5,2,A*%
%TO.N,Net-(D5-Pad2)*%
X123312500Y-121100000D03*
%TD*%
D37*
%TO.P,F1,1*%
%TO.N,Net-(BT1-Pad1)*%
X155850000Y-115025000D03*
%TO.P,F1,2*%
%TO.N,+BATT*%
X153050000Y-115025000D03*
%TD*%
D13*
%TO.P,R4,1*%
%TO.N,/~{CHRG}*%
X121750000Y-114110000D03*
%TO.P,R4,2*%
%TO.N,+3V3*%
X121750000Y-113090000D03*
%TD*%
D12*
%TO.P,C3,1*%
%TO.N,GND2*%
X129418820Y-117580000D03*
%TO.P,C3,2*%
%TO.N,Net-(C3-Pad2)*%
X129418820Y-116620000D03*
%TD*%
D11*
%TO.P,C9,1*%
%TO.N,GND2*%
X133018820Y-117431320D03*
%TO.P,C9,2*%
%TO.N,+BATT*%
X133018820Y-115531320D03*
%TD*%
D18*
%TO.P,J3,1,Pin_1*%
%TO.N,GND3*%
X150500000Y-128050000D03*
D19*
%TO.P,J3,2,Pin_2*%
%TO.N,unconnected-(J3-Pad2)*%
X150500000Y-125510000D03*
%TO.P,J3,3,Pin_3*%
%TO.N,unconnected-(J3-Pad3)*%
X150500000Y-122970000D03*
%TO.P,J3,4,Pin_4*%
%TO.N,/TX*%
X150500000Y-120430000D03*
%TO.P,J3,5,Pin_5*%
%TO.N,/RX*%
X150500000Y-117890000D03*
%TO.P,J3,6,Pin_6*%
%TO.N,unconnected-(J3-Pad6)*%
X150500000Y-115350000D03*
%TD*%
D38*
%TO.P,FB1,1*%
%TO.N,+3V3*%
X124012499Y-119050000D03*
%TO.P,FB1,2*%
%TO.N,Net-(C24-Pad1)*%
X121887499Y-119050000D03*
%TD*%
D17*
%TO.P,R7,1*%
%TO.N,Net-(R10-Pad1)*%
X126400000Y-123990000D03*
%TO.P,R7,2*%
%TO.N,+5V*%
X126400000Y-125010000D03*
%TD*%
D39*
%TO.P,D4,1,A1*%
%TO.N,+5V*%
X123600000Y-123450000D03*
%TO.P,D4,2,A2*%
%TO.N,GND3*%
X123600000Y-127750000D03*
%TD*%
D25*
%TO.P,R5,1*%
%TO.N,+3V3*%
X109340000Y-121600000D03*
%TO.P,R5,2*%
%TO.N,/~{RST}*%
X110360000Y-121600000D03*
%TD*%
D40*
%TO.P,U3,1,BS*%
%TO.N,Net-(C17-Pad1)*%
X129862500Y-126550000D03*
%TO.P,U3,2,GND*%
%TO.N,GND3*%
X129862500Y-127500000D03*
%TO.P,U3,3,FB*%
%TO.N,Net-(C19-Pad2)*%
X129862500Y-128450000D03*
%TO.P,U3,4,EN*%
%TO.N,Net-(C15-Pad2)*%
X132137500Y-128450000D03*
%TO.P,U3,5,IN*%
X132137500Y-127500000D03*
%TO.P,U3,6,LX*%
%TO.N,Net-(C17-Pad2)*%
X132137500Y-126550000D03*
%TD*%
D41*
%TO.P,SC1,1,+*%
%TO.N,/+SOLAR*%
X104100000Y-116900000D03*
D42*
%TO.P,SC1,2,-*%
%TO.N,GND*%
X104100000Y-120400000D03*
%TD*%
D21*
%TO.P,R10,1*%
%TO.N,Net-(R10-Pad1)*%
X115535000Y-122000000D03*
%TO.P,R10,2*%
%TO.N,/U_{Load}*%
X114515000Y-122000000D03*
%TD*%
D43*
%TO.P,R15,1*%
%TO.N,Net-(L1-Pad2)*%
X132918820Y-111018820D03*
%TO.P,R15,2*%
%TO.N,+BATT*%
X132918820Y-113943820D03*
%TD*%
D44*
%TO.P,C1,1*%
%TO.N,GND2*%
X123106320Y-108081320D03*
%TO.P,C1,2*%
%TO.N,/+SOLAR*%
X126056320Y-108081320D03*
%TD*%
D45*
%TO.P,C14,1*%
%TO.N,GND*%
X156680000Y-123900000D03*
%TO.P,C14,2*%
%TO.N,+BATT*%
X155720000Y-123900000D03*
%TD*%
D44*
%TO.P,C2,1*%
%TO.N,GND2*%
X123106320Y-110381320D03*
%TO.P,C2,2*%
%TO.N,/+SOLAR*%
X126056320Y-110381320D03*
%TD*%
D10*
%TO.P,C24,1*%
%TO.N,Net-(C24-Pad1)*%
X109800000Y-124620000D03*
%TO.P,C24,2*%
%TO.N,GND*%
X109800000Y-125580000D03*
%TD*%
D46*
%TO.P,Y1,1,1*%
%TO.N,Net-(C23-Pad1)*%
X108200000Y-126250000D03*
%TO.P,Y1,2,2*%
%TO.N,Net-(C22-Pad1)*%
X108200000Y-123750000D03*
%TD*%
D25*
%TO.P,R2,1*%
%TO.N,Net-(C3-Pad2)*%
X127508820Y-117581320D03*
%TO.P,R2,2*%
%TO.N,GND2*%
X128528820Y-117581320D03*
%TD*%
D22*
%TO.P,C17,1*%
%TO.N,Net-(C17-Pad1)*%
X129420000Y-125300000D03*
%TO.P,C17,2*%
%TO.N,Net-(C17-Pad2)*%
X130380000Y-125300000D03*
%TD*%
D25*
%TO.P,R1,1*%
%TO.N,/+SOLAR*%
X125608820Y-117581320D03*
%TO.P,R1,2*%
%TO.N,Net-(C3-Pad2)*%
X126628820Y-117581320D03*
%TD*%
D45*
%TO.P,C16,1*%
%TO.N,GND*%
X154780000Y-123900000D03*
%TO.P,C16,2*%
%TO.N,+3V3*%
X153820000Y-123900000D03*
%TD*%
D17*
%TO.P,R27,1*%
%TO.N,+5V*%
X126400000Y-127790000D03*
%TO.P,R27,2*%
%TO.N,Net-(C19-Pad2)*%
X126400000Y-128810000D03*
%TD*%
D41*
%TO.P,BT1,1,+*%
%TO.N,Net-(BT1-Pad1)*%
X160900000Y-113550000D03*
D42*
%TO.P,BT1,2,-*%
%TO.N,GND2*%
X160900000Y-110050000D03*
%TD*%
D47*
%TO.P,Q2,1,G*%
%TO.N,Net-(Q1-Pad1)*%
X127881320Y-107531320D03*
%TO.P,Q2,2,S*%
%TO.N,/+SOLAR*%
X127881320Y-109431320D03*
%TO.P,Q2,3,D*%
%TO.N,Net-(D1-Pad2)*%
X129756320Y-108481320D03*
%TD*%
D48*
%TO.P,Q6,1,G*%
%TO.N,Net-(Q5-Pad3)*%
X151337500Y-109250000D03*
%TO.P,Q6,2,S*%
%TO.N,+BATT*%
X151337500Y-107350000D03*
%TO.P,Q6,3,D*%
%TO.N,Net-(Q6-Pad3)*%
X149462500Y-108300000D03*
%TD*%
D25*
%TO.P,R26,1*%
%TO.N,Net-(D3-Pad3)*%
X136190000Y-124900000D03*
%TO.P,R26,2*%
%TO.N,GND*%
X137210000Y-124900000D03*
%TD*%
D22*
%TO.P,C25,1*%
%TO.N,GND*%
X112870000Y-122000000D03*
%TO.P,C25,2*%
%TO.N,/U_{Load}*%
X113830000Y-122000000D03*
%TD*%
D18*
%TO.P,JP4,1,A*%
%TO.N,+3V3*%
X154425000Y-119100000D03*
D19*
%TO.P,JP4,2,B*%
%TO.N,/u_batt_div_on*%
X154425000Y-121640000D03*
%TD*%
D25*
%TO.P,R11,1*%
%TO.N,Net-(R11-Pad1)*%
X121808820Y-117581320D03*
%TO.P,R11,2*%
%TO.N,Net-(C6-Pad1)*%
X122828820Y-117581320D03*
%TD*%
D12*
%TO.P,C23,1*%
%TO.N,Net-(C23-Pad1)*%
X108450000Y-122530000D03*
%TO.P,C23,2*%
%TO.N,GND*%
X108450000Y-121570000D03*
%TD*%
D49*
%TO.P,L1,1*%
%TO.N,Net-(D1-Pad1)*%
X141268820Y-113781320D03*
%TO.P,L1,2*%
%TO.N,Net-(L1-Pad2)*%
X135818820Y-113781320D03*
%TD*%
D50*
%TO.P,C18,1*%
%TO.N,+5V*%
X127900000Y-125650000D03*
%TO.P,C18,2*%
%TO.N,GND3*%
X127900000Y-127550000D03*
%TD*%
D47*
%TO.P,Q1,1,G*%
%TO.N,Net-(Q1-Pad1)*%
X131681320Y-107531320D03*
%TO.P,Q1,2,S*%
%TO.N,/+SOLAR*%
X131681320Y-109431320D03*
%TO.P,Q1,3,D*%
%TO.N,Net-(D1-Pad2)*%
X133556320Y-108481320D03*
%TD*%
D29*
%TO.P,Q3,1,G*%
%TO.N,Net-(D3-Pad3)*%
X135650000Y-123437500D03*
%TO.P,Q3,2,S*%
%TO.N,GND*%
X137550000Y-123437500D03*
%TO.P,Q3,3,D*%
%TO.N,Net-(Q3-Pad3)*%
X136600000Y-121562500D03*
%TD*%
D48*
%TO.P,Q5,1,G*%
%TO.N,/u_batt_div_on*%
X152137500Y-112750000D03*
%TO.P,Q5,2,S*%
%TO.N,GND*%
X152137500Y-110850000D03*
%TO.P,Q5,3,D*%
%TO.N,Net-(Q5-Pad3)*%
X150262500Y-111800000D03*
%TD*%
D12*
%TO.P,C11,1*%
%TO.N,GND*%
X109800000Y-127880000D03*
%TO.P,C11,2*%
%TO.N,/U_{Solar}*%
X109800000Y-126920000D03*
%TD*%
D21*
%TO.P,R32,1*%
%TO.N,Net-(Q6-Pad3)*%
X149010000Y-107200000D03*
%TO.P,R32,2*%
%TO.N,Net-(R32-Pad2)*%
X147990000Y-107200000D03*
%TD*%
D10*
%TO.P,C12,1*%
%TO.N,GND*%
X118500000Y-127920000D03*
%TO.P,C12,2*%
%TO.N,/I_{Charge}*%
X118500000Y-128880000D03*
%TD*%
D13*
%TO.P,R31,1*%
%TO.N,Net-(Q5-Pad3)*%
X152800000Y-107920000D03*
%TO.P,R31,2*%
%TO.N,+BATT*%
X152800000Y-106900000D03*
%TD*%
%TO.P,R12,1*%
%TO.N,Net-(C7-Pad1)*%
X129450000Y-113910000D03*
%TO.P,R12,2*%
%TO.N,Net-(L1-Pad2)*%
X129450000Y-112890000D03*
%TD*%
D51*
%TO.P,R16,1*%
%TO.N,GND3*%
X147700000Y-113362500D03*
%TO.P,R16,2*%
%TO.N,GND2*%
X147700000Y-110437500D03*
%TD*%
D18*
%TO.P,J2,1,Pin_1*%
%TO.N,unconnected-(J2-Pad1)*%
X108400000Y-104800000D03*
D19*
%TO.P,J2,2,Pin_2*%
%TO.N,+5V*%
X108400000Y-102260000D03*
%TO.P,J2,3,Pin_3*%
%TO.N,/SDA*%
X110940000Y-104800000D03*
%TO.P,J2,4,Pin_4*%
%TO.N,+5V*%
X110940000Y-102260000D03*
%TO.P,J2,5,Pin_5*%
%TO.N,/SCL*%
X113480000Y-104800000D03*
%TO.P,J2,6,Pin_6*%
%TO.N,GND3*%
X113480000Y-102260000D03*
%TO.P,J2,7,Pin_7*%
%TO.N,/GPIO*%
X116020000Y-104800000D03*
%TO.P,J2,8,Pin_8*%
%TO.N,/RX*%
X116020000Y-102260000D03*
%TO.P,J2,9,Pin_9*%
%TO.N,GND3*%
X118560000Y-104800000D03*
%TO.P,J2,10,Pin_10*%
%TO.N,/TX*%
X118560000Y-102260000D03*
%TO.P,J2,11,Pin_11*%
%TO.N,Net-(J2-Pad11)*%
X121100000Y-104800000D03*
%TO.P,J2,12,Pin_12*%
%TO.N,unconnected-(J2-Pad12)*%
X121100000Y-102260000D03*
%TO.P,J2,13,Pin_13*%
%TO.N,Net-(J2-Pad13)*%
X123640000Y-104800000D03*
%TO.P,J2,14,Pin_14*%
%TO.N,GND3*%
X123640000Y-102260000D03*
%TO.P,J2,15,Pin_15*%
%TO.N,Net-(J2-Pad15)*%
X126180000Y-104800000D03*
%TO.P,J2,16,Pin_16*%
%TO.N,unconnected-(J2-Pad16)*%
X126180000Y-102260000D03*
%TO.P,J2,17,Pin_17*%
%TO.N,unconnected-(J2-Pad17)*%
X128720000Y-104800000D03*
%TO.P,J2,18,Pin_18*%
%TO.N,unconnected-(J2-Pad18)*%
X128720000Y-102260000D03*
%TO.P,J2,19,Pin_19*%
%TO.N,unconnected-(J2-Pad19)*%
X131260000Y-104800000D03*
%TO.P,J2,20,Pin_20*%
%TO.N,GND3*%
X131260000Y-102260000D03*
%TO.P,J2,21,Pin_21*%
%TO.N,unconnected-(J2-Pad21)*%
X133800000Y-104800000D03*
%TO.P,J2,22,Pin_22*%
%TO.N,unconnected-(J2-Pad22)*%
X133800000Y-102260000D03*
%TO.P,J2,23,Pin_23*%
%TO.N,unconnected-(J2-Pad23)*%
X136340000Y-104800000D03*
%TO.P,J2,24,Pin_24*%
%TO.N,unconnected-(J2-Pad24)*%
X136340000Y-102260000D03*
%TO.P,J2,25,Pin_25*%
%TO.N,GND3*%
X138880000Y-104800000D03*
%TO.P,J2,26,Pin_26*%
%TO.N,unconnected-(J2-Pad26)*%
X138880000Y-102260000D03*
%TO.P,J2,27,Pin_27*%
%TO.N,unconnected-(J2-Pad27)*%
X141420000Y-104800000D03*
%TO.P,J2,28,Pin_28*%
%TO.N,unconnected-(J2-Pad28)*%
X141420000Y-102260000D03*
%TO.P,J2,29,Pin_29*%
%TO.N,Net-(J2-Pad29)*%
X143960000Y-104800000D03*
%TO.P,J2,30,Pin_30*%
%TO.N,GND3*%
X143960000Y-102260000D03*
%TO.P,J2,31,Pin_31*%
%TO.N,unconnected-(J2-Pad31)*%
X146500000Y-104800000D03*
%TO.P,J2,32,Pin_32*%
%TO.N,unconnected-(J2-Pad32)*%
X146500000Y-102260000D03*
%TO.P,J2,33,Pin_33*%
%TO.N,unconnected-(J2-Pad33)*%
X149040000Y-104800000D03*
%TO.P,J2,34,Pin_34*%
%TO.N,GND3*%
X149040000Y-102260000D03*
%TO.P,J2,35,Pin_35*%
%TO.N,unconnected-(J2-Pad35)*%
X151580000Y-104800000D03*
%TO.P,J2,36,Pin_36*%
%TO.N,unconnected-(J2-Pad36)*%
X151580000Y-102260000D03*
%TO.P,J2,37,Pin_37*%
%TO.N,unconnected-(J2-Pad37)*%
X154120000Y-104800000D03*
%TO.P,J2,38,Pin_38*%
%TO.N,unconnected-(J2-Pad38)*%
X154120000Y-102260000D03*
%TO.P,J2,39,Pin_39*%
%TO.N,GND3*%
X156660000Y-104800000D03*
%TO.P,J2,40,Pin_40*%
%TO.N,unconnected-(J2-Pad40)*%
X156660000Y-102260000D03*
%TD*%
D52*
%TO.N,GND2*%
X124025000Y-108075000D03*
X128250000Y-118650000D03*
X129775000Y-118225000D03*
X124025000Y-109625000D03*
X153750000Y-106975000D03*
X153750000Y-108675000D03*
X124025000Y-111150000D03*
X153750000Y-107540000D03*
X124700000Y-116950000D03*
X132425000Y-118300000D03*
X131500000Y-118500000D03*
X128250000Y-118150000D03*
X147700000Y-111400000D03*
X124025000Y-107325000D03*
X133600000Y-118300000D03*
X130750000Y-110650000D03*
X124025000Y-108850000D03*
X153750000Y-108100000D03*
X133025000Y-118300000D03*
X148400000Y-111400000D03*
X124025000Y-110375000D03*
X147000000Y-111400000D03*
X128975000Y-118125000D03*
%TO.N,GND1*%
X143450000Y-113600000D03*
X117400000Y-121000000D03*
X117400000Y-119700000D03*
X117400000Y-120350000D03*
X143450000Y-111950000D03*
X127100000Y-119200000D03*
X143450000Y-111400000D03*
X143450000Y-112500000D03*
X143450000Y-113050000D03*
X127100000Y-119900000D03*
X127100000Y-118500000D03*
%TO.N,/I_{Solar}*%
X108500000Y-129000000D03*
X118025000Y-122525000D03*
X115700000Y-124100000D03*
X115700000Y-129000000D03*
%TO.N,GND*%
X107800000Y-129000000D03*
X109550000Y-116425000D03*
X152500000Y-122900000D03*
X106962500Y-111150000D03*
X108500000Y-125398498D03*
X122950000Y-118425000D03*
X114450000Y-119675000D03*
X114450000Y-120400000D03*
X138500000Y-123400000D03*
X114082500Y-107967500D03*
X149800000Y-110100000D03*
X106950000Y-109600000D03*
X152900000Y-125200000D03*
X152150000Y-111550000D03*
X118400000Y-127325000D03*
X106950000Y-110400000D03*
X114075000Y-108950000D03*
X152900000Y-124600000D03*
X109400000Y-128100000D03*
X112175000Y-121425000D03*
X145500000Y-125100000D03*
X106950000Y-108875000D03*
X117317500Y-108882500D03*
X109150000Y-122650000D03*
X106925000Y-111925000D03*
X145500000Y-124050000D03*
X120600000Y-129050000D03*
X114450000Y-121125000D03*
X156400000Y-122450000D03*
X109000000Y-127300000D03*
X114057500Y-109942500D03*
X157300000Y-123900000D03*
X117317500Y-107957500D03*
X145500000Y-123000000D03*
%TO.N,/U_{Solar}*%
X109800000Y-126300000D03*
X109800000Y-117300000D03*
%TO.N,/I_{Charge}*%
X121000000Y-119325000D03*
X114725000Y-125325000D03*
X114725000Y-127825000D03*
X118550000Y-118425000D03*
X120900000Y-128075000D03*
X131400000Y-119875000D03*
%TO.N,/I_{Load}*%
X120325000Y-127625000D03*
X144700000Y-115300000D03*
%TO.N,+5V*%
X122000000Y-124475000D03*
X122000000Y-123750000D03*
X122000000Y-122425000D03*
%TO.N,/U_{Batt}*%
X107000000Y-129000000D03*
X149075000Y-110125000D03*
%TO.N,/~{RST}*%
X110400000Y-113300000D03*
X117700000Y-113300000D03*
X137875000Y-121825000D03*
X110400000Y-120900000D03*
X113000000Y-125900000D03*
%TO.N,Net-(C24-Pad1)*%
X109000000Y-124950000D03*
X111425000Y-114275000D03*
%TO.N,/~{CHRG}*%
X120450000Y-114125000D03*
X120450000Y-124900000D03*
%TO.N,/~{DONE}*%
X120000000Y-115025000D03*
X120000000Y-124425000D03*
%TO.N,GND3*%
X128400000Y-126700000D03*
X125625000Y-121125000D03*
X147700000Y-112500000D03*
X148400000Y-112500000D03*
X147700000Y-114300000D03*
X124500000Y-126100000D03*
X122600000Y-126100000D03*
X147000000Y-112500000D03*
X134700000Y-127500000D03*
X127400000Y-126700000D03*
X123600000Y-126100000D03*
%TO.N,+3V3*%
X133000000Y-120200000D03*
X153800000Y-123200000D03*
X112800000Y-118000000D03*
X124950000Y-119050000D03*
X119175000Y-121250000D03*
X153150000Y-123900000D03*
X121750000Y-116700000D03*
%TO.N,Net-(Q1-Pad1)*%
X127250000Y-108300000D03*
X127250000Y-112600000D03*
%TO.N,/u_batt_div_on*%
X121900000Y-129000000D03*
X152300000Y-126775000D03*
%TO.N,/SDA*%
X110900000Y-117100000D03*
X110600000Y-122500000D03*
%TO.N,/GPIO*%
X118550000Y-124325000D03*
%TO.N,/SWDIO*%
X135900000Y-117525000D03*
X121100000Y-125000000D03*
X138000000Y-115800000D03*
%TO.N,/SWCLK*%
X121000000Y-123300000D03*
X137175000Y-117525000D03*
X139000000Y-115800000D03*
%TO.N,/SCL*%
X115100000Y-123075000D03*
%TO.N,/+SOLAR*%
X113200000Y-110700000D03*
X113200000Y-109300000D03*
X131175000Y-113750000D03*
X113200000Y-112800000D03*
X113200000Y-110000000D03*
X125600000Y-113700000D03*
X125131180Y-108768680D03*
X125131180Y-111143680D03*
X113200000Y-108600000D03*
X129900000Y-110300000D03*
X125125000Y-107325000D03*
X113200000Y-107900000D03*
X113200000Y-112100000D03*
X125125000Y-108075000D03*
X125131180Y-110368680D03*
X125131180Y-109668680D03*
X113200000Y-111400000D03*
X113200000Y-107200000D03*
%TO.N,+BATT*%
X155000000Y-113500000D03*
X131500000Y-116575000D03*
X156025000Y-123375000D03*
X155000000Y-110475000D03*
X133600000Y-116375000D03*
X153200000Y-113900000D03*
X131950000Y-114925000D03*
X133650000Y-113025000D03*
X154450000Y-116800000D03*
X132425000Y-116375000D03*
X154150000Y-114350000D03*
X134825000Y-124750000D03*
X154050000Y-113050000D03*
X151350000Y-108025000D03*
X155400000Y-123350000D03*
X132175000Y-113025000D03*
X130325000Y-116575000D03*
X132925000Y-113025000D03*
X154000000Y-116350000D03*
X134825000Y-125350000D03*
X134800000Y-124150000D03*
%TO.N,/rpi_on_rpi*%
X139125000Y-121575000D03*
%TO.N,/rpi_on_stm*%
X125375000Y-128475000D03*
X136725000Y-128475000D03*
%TO.N,/TX*%
X150300000Y-103525000D03*
%TO.N,Net-(R10-Pad1)*%
X121125000Y-120300000D03*
X115525000Y-121425000D03*
X118075000Y-120300000D03*
X125200000Y-123100000D03*
%TD*%
D53*
%TO.N,GND2*%
X128528820Y-117581320D02*
X129393680Y-117581320D01*
D54*
X132425000Y-117725000D02*
X132425000Y-118300000D01*
D55*
X159900000Y-110050000D02*
X158550000Y-108700000D01*
D54*
X130918820Y-117631320D02*
X131206320Y-117631320D01*
X154825000Y-108675000D02*
X153750000Y-108675000D01*
D55*
X159450000Y-107500000D02*
X155800000Y-107500000D01*
D54*
X129062500Y-119200000D02*
X129062500Y-118212500D01*
X123106320Y-108081320D02*
X124018680Y-108081320D01*
X123425000Y-109625000D02*
X124025000Y-109625000D01*
X155000000Y-108500000D02*
X154825000Y-108675000D01*
D55*
X155000000Y-108100000D02*
X159000000Y-108100000D01*
D54*
X123450000Y-111150000D02*
X124025000Y-111150000D01*
X147000000Y-110800000D02*
X147000000Y-111400000D01*
X147700000Y-110437500D02*
X148037500Y-110437500D01*
D53*
X124698820Y-117581320D02*
X124698820Y-116951180D01*
D54*
X148400000Y-110800000D02*
X148400000Y-111400000D01*
X123450000Y-107325000D02*
X124025000Y-107325000D01*
X154450000Y-106975000D02*
X153750000Y-106975000D01*
X155000000Y-107525000D02*
X154450000Y-106975000D01*
X123106320Y-110381320D02*
X123106320Y-110806320D01*
X133600000Y-117775000D02*
X133600000Y-118300000D01*
D55*
X158550000Y-108700000D02*
X155250000Y-108700000D01*
D54*
X147362500Y-110437500D02*
X147000000Y-110800000D01*
X154440000Y-107540000D02*
X153750000Y-107540000D01*
X130300000Y-111850000D02*
X130475000Y-111675000D01*
X129062500Y-119200000D02*
X129062500Y-118937500D01*
D55*
X160900000Y-108950000D02*
X159450000Y-107500000D01*
X131118680Y-117431320D02*
X130925000Y-117625000D01*
D54*
X128400000Y-118150000D02*
X128250000Y-118150000D01*
X126950000Y-112150000D02*
X127250000Y-111850000D01*
X123106320Y-109943680D02*
X123425000Y-109625000D01*
X133018820Y-117431320D02*
X133018820Y-118293820D01*
X155000000Y-108100000D02*
X155000000Y-107525000D01*
X124018680Y-110381320D02*
X124025000Y-110375000D01*
X133018820Y-118293820D02*
X133025000Y-118300000D01*
X155000000Y-108100000D02*
X154440000Y-107540000D01*
X132718680Y-117431320D02*
X132425000Y-117725000D01*
X129062500Y-118937500D02*
X129775000Y-118225000D01*
D55*
X159000000Y-108100000D02*
X160950000Y-110050000D01*
D53*
X129062500Y-119200000D02*
X130100000Y-119200000D01*
D54*
X147700000Y-110437500D02*
X147362500Y-110437500D01*
D55*
X133018820Y-117431320D02*
X131118680Y-117431320D01*
D54*
X129062500Y-118937500D02*
X128675000Y-118550000D01*
X129062500Y-118212500D02*
X128975000Y-118125000D01*
X133018820Y-117431320D02*
X133256320Y-117431320D01*
X123106320Y-110806320D02*
X123450000Y-111150000D01*
D53*
X129775000Y-118225000D02*
X129775000Y-117925000D01*
D54*
X131206320Y-117631320D02*
X131500000Y-117925000D01*
X129062500Y-119200000D02*
X129062500Y-118812500D01*
X124018680Y-108081320D02*
X124025000Y-108075000D01*
X155000000Y-108100000D02*
X155000000Y-108500000D01*
X128675000Y-118650000D02*
X128250000Y-118650000D01*
D53*
X124698820Y-116951180D02*
X124700000Y-116950000D01*
X129393680Y-117581320D02*
X129400000Y-117575000D01*
D54*
X124700000Y-112150000D02*
X126950000Y-112150000D01*
X148037500Y-110437500D02*
X148400000Y-110800000D01*
X123425000Y-108850000D02*
X124025000Y-108850000D01*
X123106320Y-108531320D02*
X123425000Y-108850000D01*
X155000000Y-108100000D02*
X153750000Y-108100000D01*
X123106320Y-107668680D02*
X123450000Y-107325000D01*
D55*
X160900000Y-110050000D02*
X159900000Y-110050000D01*
X160900000Y-110050000D02*
X160900000Y-108950000D01*
D54*
X123106320Y-108081320D02*
X123106320Y-108531320D01*
X123106320Y-110381320D02*
X124018680Y-110381320D01*
X123068820Y-113381320D02*
X123468680Y-113381320D01*
D53*
X130100000Y-119200000D02*
X130425000Y-118875000D01*
D54*
X130475000Y-111675000D02*
X130750000Y-111675000D01*
X131500000Y-117925000D02*
X131500000Y-118500000D01*
X129062500Y-118812500D02*
X128400000Y-118150000D01*
X133256320Y-117431320D02*
X133600000Y-117775000D01*
X130750000Y-111675000D02*
X130750000Y-110650000D01*
X123106320Y-110381320D02*
X123106320Y-109943680D01*
D53*
X129775000Y-117925000D02*
X129425000Y-117575000D01*
D54*
X123106320Y-108081320D02*
X123106320Y-107668680D01*
X147700000Y-110437500D02*
X147700000Y-111400000D01*
X133018820Y-117431320D02*
X132718680Y-117431320D01*
X123468680Y-113381320D02*
X124700000Y-112150000D01*
X127250000Y-111850000D02*
X130300000Y-111850000D01*
D53*
%TO.N,Net-(C3-Pad2)*%
X129181320Y-116381320D02*
X129450000Y-116650000D01*
X127481320Y-117581320D02*
X127500000Y-117600000D01*
X127508820Y-116766180D02*
X127900000Y-116375000D01*
X126628820Y-117581320D02*
X127481320Y-117581320D01*
X128168820Y-116381320D02*
X129181320Y-116381320D01*
X127508820Y-117581320D02*
X127508820Y-116766180D01*
X127900000Y-116375000D02*
X128150000Y-116375000D01*
%TO.N,Net-(C5-Pad2)*%
X124100000Y-111650000D02*
X123350000Y-112400000D01*
X126875000Y-111650000D02*
X124100000Y-111650000D01*
X127625000Y-110900000D02*
X126875000Y-111650000D01*
%TO.N,Net-(C6-Pad1)*%
X122828820Y-117581320D02*
X123718680Y-117581320D01*
X123718680Y-117581320D02*
X123725000Y-117575000D01*
%TO.N,Net-(C7-Pad1)*%
X129418820Y-114820000D02*
X128920000Y-114820000D01*
X128920000Y-114820000D02*
X128600000Y-114500000D01*
X129450000Y-113910000D02*
X129450000Y-114800000D01*
%TO.N,Net-(C7-Pad2)*%
X129418820Y-115780000D02*
X128880000Y-115780000D01*
X130340000Y-114810000D02*
X129400000Y-115750000D01*
X130340000Y-114450000D02*
X130340000Y-114810000D01*
X128880000Y-115780000D02*
X128600000Y-115500000D01*
D55*
%TO.N,Net-(D1-Pad2)*%
X135993680Y-108481320D02*
X136000000Y-108475000D01*
D56*
X129756320Y-108481320D02*
X135981320Y-108481320D01*
X135981320Y-108481320D02*
X136000000Y-108500000D01*
D55*
X133556320Y-108481320D02*
X135993680Y-108481320D01*
D54*
%TO.N,GND1*%
X126137500Y-119537500D02*
X126500000Y-119900000D01*
X117400000Y-120350000D02*
X116500000Y-120350000D01*
X116700000Y-121000000D02*
X117400000Y-121000000D01*
X144718820Y-112481320D02*
X144518680Y-112481320D01*
X117350000Y-120400000D02*
X117400000Y-120350000D01*
X144000000Y-113000000D02*
X143950000Y-113050000D01*
X144718820Y-112481320D02*
X143468680Y-112481320D01*
X116462500Y-120400000D02*
X116462500Y-120037500D01*
X116800000Y-119700000D02*
X117400000Y-119700000D01*
X144718820Y-112118820D02*
X144000000Y-111400000D01*
X126500000Y-119900000D02*
X127100000Y-119900000D01*
X116462500Y-120762500D02*
X116700000Y-121000000D01*
X143950000Y-113050000D02*
X143450000Y-113050000D01*
X144518680Y-112481320D02*
X144000000Y-113000000D01*
X126137500Y-119200000D02*
X126137500Y-119537500D01*
D53*
X116462500Y-120400000D02*
X116462500Y-122037500D01*
D54*
X144718820Y-112481320D02*
X144481320Y-112481320D01*
X144718820Y-112881180D02*
X144000000Y-113600000D01*
X144000000Y-113600000D02*
X143450000Y-113600000D01*
X126137500Y-118812500D02*
X126450000Y-118500000D01*
X143950000Y-111950000D02*
X143450000Y-111950000D01*
X144718820Y-112481320D02*
X144718820Y-112881180D01*
X144481320Y-112481320D02*
X143950000Y-111950000D01*
D53*
X116460000Y-120415000D02*
X116475000Y-120400000D01*
D54*
X116462500Y-120400000D02*
X116462500Y-120762500D01*
X126137500Y-119200000D02*
X127100000Y-119200000D01*
X144000000Y-111400000D02*
X143450000Y-111400000D01*
X126137500Y-119200000D02*
X126137500Y-118812500D01*
D53*
X116462500Y-122037500D02*
X116475000Y-122050000D01*
D54*
X144718820Y-112481320D02*
X144718820Y-112118820D01*
X126450000Y-118500000D02*
X127100000Y-118500000D01*
X116462500Y-120037500D02*
X116800000Y-119700000D01*
X143468680Y-112481320D02*
X143450000Y-112500000D01*
D53*
%TO.N,Net-(L1-Pad2)*%
X132918820Y-111018820D02*
X132918820Y-111881180D01*
D55*
X132918820Y-111018820D02*
X134018820Y-111018820D01*
D53*
X132918820Y-111881180D02*
X132350000Y-112450000D01*
D55*
X134018820Y-111018820D02*
X135825000Y-112825000D01*
X135825000Y-112825000D02*
X135825000Y-113775000D01*
D53*
X129900000Y-112450000D02*
X129450000Y-112900000D01*
X132350000Y-112450000D02*
X129900000Y-112450000D01*
%TO.N,/I_{Solar}*%
X108500000Y-128430000D02*
X108500000Y-129000000D01*
X108500000Y-128430000D02*
X108645000Y-128575000D01*
X117535000Y-122035000D02*
X118025000Y-122525000D01*
X110325000Y-128575000D02*
X110625000Y-128875000D01*
X108645000Y-128575000D02*
X110325000Y-128575000D01*
X115700000Y-129000000D02*
X115700000Y-124100000D01*
X117535000Y-122000000D02*
X117535000Y-122035000D01*
%TO.N,Net-(R11-Pad1)*%
X122600000Y-116800000D02*
X122600000Y-116400000D01*
X121818680Y-117581320D02*
X122600000Y-116800000D01*
X121808820Y-117581320D02*
X121818680Y-117581320D01*
%TO.N,GND*%
X108830000Y-127470000D02*
X109000000Y-127300000D01*
X118500000Y-127920000D02*
X118500000Y-127425000D01*
X108500000Y-127470000D02*
X108830000Y-127470000D01*
X111237500Y-125675000D02*
X109850000Y-125675000D01*
D54*
X114092500Y-108932500D02*
X114075000Y-108950000D01*
D53*
X137550000Y-124550000D02*
X137200000Y-124900000D01*
D54*
X108550000Y-110400000D02*
X106950000Y-110400000D01*
X113537500Y-120400000D02*
X113537500Y-120837500D01*
D53*
X148075000Y-108600000D02*
X148350000Y-108600000D01*
D54*
X113537500Y-120837500D02*
X113825000Y-121125000D01*
X115692500Y-108900000D02*
X117300000Y-108900000D01*
D53*
X112180000Y-121430000D02*
X112175000Y-121425000D01*
D54*
X154775000Y-123275000D02*
X154775000Y-123900000D01*
X115692500Y-107975000D02*
X117300000Y-107975000D01*
D53*
X138445000Y-119935000D02*
X138445000Y-123345000D01*
D54*
X107425000Y-111925000D02*
X106925000Y-111925000D01*
X115682500Y-109925000D02*
X114075000Y-109925000D01*
D53*
X107550000Y-128430000D02*
X107550000Y-128750000D01*
X109150000Y-122270000D02*
X109150000Y-122650000D01*
X123325000Y-120150000D02*
X123275000Y-120150000D01*
X108450000Y-121570000D02*
X109150000Y-122270000D01*
X119500000Y-128880000D02*
X120430000Y-128880000D01*
X109800000Y-125580000D02*
X109618498Y-125398498D01*
D54*
X113537500Y-120400000D02*
X114450000Y-120400000D01*
D53*
X138462500Y-123437500D02*
X138500000Y-123400000D01*
D54*
X113825000Y-121125000D02*
X114450000Y-121125000D01*
X108550000Y-110400000D02*
X108550000Y-110000000D01*
D53*
X148900000Y-109150000D02*
X149800000Y-110050000D01*
X149800000Y-110050000D02*
X149800000Y-110100000D01*
X156100000Y-122750000D02*
X156400000Y-122450000D01*
D54*
X156680000Y-123900000D02*
X156680000Y-125255000D01*
D53*
X109200000Y-122600000D02*
X109150000Y-122650000D01*
D54*
X155300000Y-122750000D02*
X154775000Y-123275000D01*
D53*
X109850000Y-125675000D02*
X109775000Y-125600000D01*
D54*
X108550000Y-110400000D02*
X107750000Y-109600000D01*
D53*
X122950000Y-119825000D02*
X122950000Y-118425000D01*
D54*
X156680000Y-123330000D02*
X156100000Y-122750000D01*
X156680000Y-125255000D02*
X156750000Y-125325000D01*
D53*
X137550000Y-123437500D02*
X137550000Y-124550000D01*
D54*
X108550000Y-110800000D02*
X107425000Y-111925000D01*
D53*
X126400000Y-122090000D02*
X126400000Y-121250000D01*
D54*
X113537500Y-119987500D02*
X113850000Y-119675000D01*
X156680000Y-123900000D02*
X156680000Y-123330000D01*
X115707500Y-107950000D02*
X114100000Y-107950000D01*
X107750000Y-109600000D02*
X107725000Y-109575000D01*
D53*
X112870000Y-122000000D02*
X112175000Y-122000000D01*
X147390000Y-108600000D02*
X148075000Y-108600000D01*
D54*
X107737500Y-111150000D02*
X106962500Y-111150000D01*
D53*
X152137500Y-110850000D02*
X152137500Y-111537500D01*
X148350000Y-108600000D02*
X148900000Y-109150000D01*
X152137500Y-111537500D02*
X152150000Y-111550000D01*
D54*
X107725000Y-109600000D02*
X106950000Y-109600000D01*
D53*
X109618498Y-125398498D02*
X108500000Y-125398498D01*
X112180000Y-122000000D02*
X112180000Y-121430000D01*
D54*
X107400000Y-108875000D02*
X106950000Y-108875000D01*
D53*
X137550000Y-123437500D02*
X138462500Y-123437500D01*
X120430000Y-128880000D02*
X120600000Y-129050000D01*
D54*
X156100000Y-122750000D02*
X155300000Y-122750000D01*
D53*
X109620000Y-127880000D02*
X109400000Y-128100000D01*
D54*
X113537500Y-120400000D02*
X113537500Y-119987500D01*
D53*
X147000000Y-108210000D02*
X147390000Y-108600000D01*
D54*
X113850000Y-119675000D02*
X114450000Y-119675000D01*
X115700000Y-108932500D02*
X114092500Y-108932500D01*
D53*
X126400000Y-121250000D02*
X125300000Y-120150000D01*
X109800000Y-122600000D02*
X109200000Y-122600000D01*
X109800000Y-127880000D02*
X109620000Y-127880000D01*
X123275000Y-120150000D02*
X122950000Y-119825000D01*
X108865000Y-117110000D02*
X109550000Y-116425000D01*
X107550000Y-128750000D02*
X107800000Y-129000000D01*
X156680000Y-123900000D02*
X157300000Y-123900000D01*
X125300000Y-120150000D02*
X123325000Y-120150000D01*
X152800000Y-110550000D02*
X152450000Y-110900000D01*
X108800000Y-117110000D02*
X108865000Y-117110000D01*
X152800000Y-109820000D02*
X152800000Y-110550000D01*
X118500000Y-127425000D02*
X118400000Y-127325000D01*
D54*
X108550000Y-110400000D02*
X108550000Y-110800000D01*
D53*
X138445000Y-123345000D02*
X138500000Y-123400000D01*
%TO.N,/U_{Solar}*%
X109750000Y-126750000D02*
X110475000Y-126750000D01*
X109810000Y-118000000D02*
X109810000Y-117310000D01*
X111237500Y-126975000D02*
X110675000Y-126975000D01*
X111237500Y-127025000D02*
X111222480Y-127009980D01*
X109810000Y-117310000D02*
X109800000Y-117300000D01*
X110475000Y-126750000D02*
X110675000Y-126950000D01*
X109800000Y-126920000D02*
X109800000Y-126300000D01*
%TO.N,/I_{Charge}*%
X119203282Y-128400000D02*
X118723282Y-128880000D01*
X131390000Y-119885000D02*
X131400000Y-119875000D01*
X114725000Y-125325000D02*
X114725000Y-127825000D01*
X116962500Y-128925000D02*
X118475000Y-128925000D01*
X118475000Y-128925000D02*
X118500000Y-128900000D01*
X118723282Y-128880000D02*
X118500000Y-128880000D01*
X121000000Y-119325000D02*
X119450000Y-119325000D01*
X120575000Y-128400000D02*
X119203282Y-128400000D01*
X119450000Y-119325000D02*
X118550000Y-118425000D01*
X130425000Y-119885000D02*
X131390000Y-119885000D01*
X120900000Y-128075000D02*
X120575000Y-128400000D01*
%TO.N,/I_{Load}*%
X120030000Y-127920000D02*
X120325000Y-127625000D01*
X119500000Y-127920000D02*
X120030000Y-127920000D01*
X144700000Y-115300000D02*
X144700000Y-114550000D01*
X119580000Y-127920000D02*
X119680000Y-127920000D01*
X119500000Y-127920000D02*
X119580000Y-127920000D01*
X118796718Y-128400000D02*
X119196718Y-128000000D01*
X116962500Y-128275000D02*
X117087500Y-128400000D01*
X117087500Y-128400000D02*
X118796718Y-128400000D01*
X119196718Y-128000000D02*
X119400000Y-128000000D01*
D54*
%TO.N,+5V*%
X123075000Y-122425000D02*
X123200000Y-122550000D01*
D53*
X126950000Y-126470000D02*
X126950000Y-127250000D01*
D55*
X126200000Y-125650000D02*
X124400000Y-123850000D01*
X127800000Y-122600000D02*
X127800000Y-125625000D01*
D53*
X126950000Y-126470000D02*
X126950000Y-126100000D01*
D54*
X123500000Y-124475000D02*
X123575000Y-124400000D01*
X122000000Y-124475000D02*
X123500000Y-124475000D01*
D55*
X124400000Y-123850000D02*
X124400000Y-123800000D01*
D53*
X126950000Y-126100000D02*
X126500000Y-125650000D01*
X127900000Y-125650000D02*
X126725000Y-125650000D01*
D55*
X127900000Y-125650000D02*
X126500000Y-125650000D01*
D53*
X126400000Y-125920000D02*
X126400000Y-125000000D01*
D54*
X122000000Y-122425000D02*
X123075000Y-122425000D01*
D53*
X126950000Y-127250000D02*
X126400000Y-127800000D01*
D54*
X123350000Y-123750000D02*
X123375000Y-123725000D01*
X122000000Y-123750000D02*
X123350000Y-123750000D01*
D53*
X122100000Y-122325000D02*
X122000000Y-122425000D01*
X122100000Y-121510000D02*
X122100000Y-122325000D01*
D55*
X126500000Y-125650000D02*
X126200000Y-125650000D01*
D53*
X126725000Y-125650000D02*
X126475000Y-125900000D01*
%TO.N,/U_{Batt}*%
X109509980Y-127390020D02*
X108950000Y-127950000D01*
X110341678Y-127625000D02*
X110106698Y-127390020D01*
X148000000Y-109110000D02*
X148060000Y-109110000D01*
X106900000Y-128900000D02*
X107000000Y-129000000D01*
X106900000Y-128120000D02*
X106900000Y-128900000D01*
X110106698Y-127390020D02*
X109509980Y-127390020D01*
X108950000Y-127950000D02*
X108000000Y-127950000D01*
X108000000Y-127950000D02*
X107550000Y-127500000D01*
X148060000Y-109110000D02*
X149075000Y-110125000D01*
X107550000Y-127470000D02*
X106900000Y-128120000D01*
X111237500Y-127625000D02*
X110341678Y-127625000D01*
%TO.N,/~{RST}*%
X110400000Y-113300000D02*
X117700000Y-113300000D01*
X110435000Y-121600000D02*
X110900000Y-121600000D01*
X110360000Y-121600000D02*
X110360000Y-120940000D01*
X110900000Y-121600000D02*
X111300000Y-122000000D01*
X111237500Y-126325000D02*
X111875000Y-126325000D01*
X111237500Y-126375000D02*
X110625000Y-126375000D01*
X110360000Y-120940000D02*
X110400000Y-120900000D01*
X111875000Y-126325000D02*
X112300000Y-125900000D01*
X112300000Y-122900000D02*
X111400000Y-122000000D01*
X112300000Y-125900000D02*
X112300000Y-122900000D01*
X137175000Y-119935000D02*
X137175000Y-121125000D01*
X137175000Y-121125000D02*
X137875000Y-121825000D01*
X111400000Y-122000000D02*
X111300000Y-122000000D01*
X112300000Y-125900000D02*
X113000000Y-125900000D01*
%TO.N,Net-(C22-Pad1)*%
X108240000Y-123560000D02*
X108200000Y-123600000D01*
X109825000Y-123725000D02*
X109750000Y-123650000D01*
X109800000Y-123560000D02*
X108240000Y-123560000D01*
X111237500Y-123725000D02*
X109825000Y-123725000D01*
%TO.N,Net-(C23-Pad1)*%
X108100000Y-122900000D02*
X108450000Y-122550000D01*
X109540011Y-124100000D02*
X109140011Y-124500000D01*
X107050000Y-125450000D02*
X107050000Y-123150000D01*
X107050000Y-123150000D02*
X107300000Y-122900000D01*
X107850000Y-126250000D02*
X107050000Y-125450000D01*
X108000000Y-125200000D02*
X108000000Y-126000000D01*
X110400000Y-124100000D02*
X109540011Y-124100000D01*
X107300000Y-122900000D02*
X108100000Y-122900000D01*
X109140011Y-124500000D02*
X108700000Y-124500000D01*
X108200000Y-126250000D02*
X107850000Y-126250000D01*
X111237500Y-124375000D02*
X110675000Y-124375000D01*
X108700000Y-124500000D02*
X108000000Y-125200000D01*
X110675000Y-124375000D02*
X110400000Y-124100000D01*
D54*
%TO.N,Net-(C24-Pad1)*%
X119200000Y-117025000D02*
X119200000Y-118050000D01*
X113375000Y-114275000D02*
X114475000Y-114275000D01*
X119200000Y-118050000D02*
X119750000Y-118600000D01*
X121887499Y-118862499D02*
X121625000Y-118600000D01*
X117275000Y-114275000D02*
X119200000Y-116200000D01*
D53*
X109800000Y-124620000D02*
X109780000Y-124620000D01*
D54*
X114475000Y-114275000D02*
X117275000Y-114275000D01*
D53*
X110225000Y-125025000D02*
X109800000Y-124600000D01*
D54*
X121887499Y-119050000D02*
X121887499Y-118862499D01*
D53*
X109500000Y-124900000D02*
X109450000Y-124950000D01*
X109975000Y-124425000D02*
X109800000Y-124600000D01*
D54*
X114475000Y-114275000D02*
X111425000Y-114275000D01*
X119200000Y-116200000D02*
X119200000Y-117025000D01*
D53*
X111237500Y-125025000D02*
X110225000Y-125025000D01*
X109450000Y-124950000D02*
X109000000Y-124950000D01*
D54*
X121625000Y-118600000D02*
X119750000Y-118600000D01*
D53*
X109780000Y-124620000D02*
X109500000Y-124900000D01*
%TO.N,/U_{Load}*%
X111237500Y-128275000D02*
X113000000Y-128275000D01*
X113830000Y-127445000D02*
X113000000Y-128275000D01*
X113830000Y-122000000D02*
X113830000Y-127445000D01*
X114515000Y-122000000D02*
X113825000Y-122000000D01*
%TO.N,Net-(R19-Pad2)*%
X108150000Y-117825000D02*
X108150000Y-116725000D01*
X108325000Y-118000000D02*
X108150000Y-117825000D01*
X108800000Y-116090000D02*
X108800000Y-115200000D01*
X108790000Y-118000000D02*
X108325000Y-118000000D01*
X108150000Y-116725000D02*
X108800000Y-116075000D01*
%TO.N,/~{CHRG}*%
X121750000Y-114110000D02*
X122435000Y-114110000D01*
X117775000Y-126325000D02*
X119200000Y-124900000D01*
X122435000Y-114110000D02*
X122775000Y-114450000D01*
X116962500Y-126325000D02*
X117775000Y-126325000D01*
X119200000Y-124900000D02*
X120450000Y-124900000D01*
X120450000Y-114125000D02*
X121775000Y-114125000D01*
%TO.N,/~{DONE}*%
X116962500Y-125675000D02*
X117900000Y-125675000D01*
X121750000Y-115015000D02*
X122415000Y-115015000D01*
X117900000Y-125675000D02*
X119150000Y-124425000D01*
X122415000Y-115015000D02*
X122800000Y-115400000D01*
X122800000Y-115400000D02*
X123050000Y-115400000D01*
X120000000Y-115025000D02*
X121750000Y-115025000D01*
X119150000Y-124425000D02*
X120000000Y-124425000D01*
D54*
%TO.N,GND3*%
X123600000Y-127750000D02*
X123600000Y-127700000D01*
X147700000Y-113362500D02*
X147700000Y-114300000D01*
D56*
X133300000Y-129150000D02*
X131300000Y-129150000D01*
X127925000Y-127500000D02*
X127875000Y-127550000D01*
D53*
X125625000Y-121125000D02*
X125000000Y-121125000D01*
X146437500Y-113362500D02*
X145850000Y-113950000D01*
D54*
X147362500Y-113362500D02*
X147000000Y-113000000D01*
X148037500Y-113362500D02*
X148400000Y-113000000D01*
X127750000Y-127550000D02*
X127400000Y-127200000D01*
X134700000Y-127900000D02*
X134700000Y-127500000D01*
X123600000Y-127700000D02*
X122600000Y-126700000D01*
X128050000Y-127550000D02*
X128400000Y-127200000D01*
X147700000Y-113362500D02*
X148037500Y-113362500D01*
D56*
X131300000Y-129150000D02*
X131000000Y-128850000D01*
D54*
X123600000Y-127700000D02*
X124500000Y-126800000D01*
X127400000Y-127200000D02*
X127400000Y-126700000D01*
D53*
X127900000Y-128200000D02*
X128500000Y-128800000D01*
D56*
X131000000Y-128050000D02*
X130475000Y-127525000D01*
D54*
X124500000Y-126800000D02*
X124500000Y-126100000D01*
X134150000Y-128450000D02*
X134700000Y-127900000D01*
D56*
X131000000Y-128850000D02*
X131000000Y-128050000D01*
X129862500Y-127500000D02*
X127925000Y-127500000D01*
D53*
X147700000Y-113362500D02*
X146437500Y-113362500D01*
D54*
X147700000Y-113362500D02*
X147700000Y-112500000D01*
X147000000Y-113000000D02*
X147000000Y-112500000D01*
X123600000Y-127750000D02*
X123600000Y-126100000D01*
X128400000Y-127200000D02*
X128400000Y-126700000D01*
X122600000Y-126700000D02*
X122600000Y-126100000D01*
X147700000Y-113362500D02*
X147362500Y-113362500D01*
D53*
X127900000Y-127550000D02*
X127900000Y-128200000D01*
D54*
X148400000Y-113000000D02*
X148400000Y-112500000D01*
D53*
X145850000Y-113950000D02*
X145850000Y-114500000D01*
D54*
X127900000Y-127550000D02*
X127750000Y-127550000D01*
X134000000Y-128450000D02*
X134150000Y-128450000D01*
D56*
X130475000Y-127525000D02*
X129675000Y-127525000D01*
D54*
X127900000Y-127550000D02*
X128050000Y-127550000D01*
D56*
X134000000Y-128450000D02*
X133300000Y-129150000D01*
%TO.N,Net-(C15-Pad2)*%
X132137500Y-127500000D02*
X132875000Y-127500000D01*
X133200000Y-122862500D02*
X133200000Y-125775000D01*
X133075000Y-127475000D02*
X131725000Y-127475000D01*
X132137500Y-127500000D02*
X133675000Y-127500000D01*
X132875000Y-127500000D02*
X133725000Y-126650000D01*
X134000000Y-126550000D02*
X133075000Y-127475000D01*
X133200000Y-125775000D02*
X134000000Y-126575000D01*
D53*
X132137500Y-127512500D02*
X132125000Y-127500000D01*
D56*
X133675000Y-127500000D02*
X134300000Y-126875000D01*
D53*
X132137500Y-128450000D02*
X132137500Y-127512500D01*
%TO.N,+3V3*%
X119475000Y-114200000D02*
X119475000Y-115300000D01*
X153820000Y-123900000D02*
X153150000Y-123900000D01*
D54*
X153850000Y-125314985D02*
X153850000Y-125325000D01*
D53*
X120585000Y-113090000D02*
X119475000Y-114200000D01*
X135905000Y-119935000D02*
X135640000Y-120200000D01*
D54*
X153820000Y-125284985D02*
X153850000Y-125314985D01*
D53*
X153820000Y-123220000D02*
X153800000Y-123200000D01*
X119550000Y-122450000D02*
X119500000Y-122400000D01*
X121750000Y-113090000D02*
X120585000Y-113090000D01*
X119500000Y-122400000D02*
X119200000Y-122400000D01*
X119175000Y-122375000D02*
X119175000Y-121250000D01*
D54*
X153820000Y-123900000D02*
X153820000Y-125284985D01*
D53*
X111000000Y-118000000D02*
X112800000Y-118000000D01*
X135640000Y-120200000D02*
X133000000Y-120200000D01*
X119475000Y-115300000D02*
X120250000Y-116075000D01*
X153820000Y-123900000D02*
X153820000Y-123220000D01*
X119200000Y-122400000D02*
X119175000Y-122375000D01*
X109340000Y-121600000D02*
X109340000Y-121160000D01*
X121750000Y-116035000D02*
X121750000Y-116700000D01*
X110300000Y-118700000D02*
X111000000Y-118000000D01*
X110300000Y-120200000D02*
X110300000Y-118700000D01*
X120250000Y-116075000D02*
X121750000Y-116075000D01*
X119625000Y-122525000D02*
X119550000Y-122450000D01*
D54*
X124012499Y-119050000D02*
X124950000Y-119050000D01*
D53*
X109340000Y-121160000D02*
X110300000Y-120200000D01*
X119700000Y-122600000D02*
X119625000Y-122525000D01*
D54*
%TO.N,Net-(C17-Pad1)*%
X129420000Y-125300000D02*
X129420000Y-126595000D01*
X129420000Y-126595000D02*
X129425000Y-126600000D01*
D55*
%TO.N,Net-(C17-Pad2)*%
X130600000Y-125400000D02*
X131750000Y-126550000D01*
X131750000Y-126550000D02*
X132450000Y-126550000D01*
X130600000Y-122600000D02*
X130600000Y-125400000D01*
D53*
%TO.N,Net-(Q1-Pad1)*%
X127468680Y-112381320D02*
X127250000Y-112600000D01*
D54*
X131668680Y-107531320D02*
X131700000Y-107500000D01*
D53*
X127425000Y-107550000D02*
X127900000Y-107550000D01*
X127250000Y-108300000D02*
X127250000Y-107725000D01*
X127250000Y-107725000D02*
X127425000Y-107550000D01*
D54*
X127881320Y-107531320D02*
X131668680Y-107531320D01*
D53*
X128168820Y-112381320D02*
X127468680Y-112381320D01*
%TO.N,Net-(C19-Pad2)*%
X128850000Y-129325000D02*
X129275000Y-128900000D01*
X125825000Y-127455000D02*
X125825000Y-128225000D01*
X129275000Y-128900000D02*
X129275000Y-128525000D01*
X128015000Y-129325000D02*
X128850000Y-129325000D01*
X126410000Y-128800000D02*
X127500000Y-128800000D01*
X126400000Y-126880000D02*
X125825000Y-127455000D01*
X126400000Y-128810000D02*
X126410000Y-128800000D01*
X125825000Y-128225000D02*
X126400000Y-128800000D01*
X127490000Y-128800000D02*
X128015000Y-129325000D01*
%TO.N,/u_batt_div_on*%
X117775000Y-127625000D02*
X117937500Y-127462500D01*
X121150000Y-126800000D02*
X121900000Y-127550000D01*
X151700000Y-118915000D02*
X151700000Y-112750000D01*
X152300000Y-126775000D02*
X152300000Y-123775000D01*
X152300000Y-123775000D02*
X154425000Y-121650000D01*
X152800000Y-108800000D02*
X153350000Y-109350000D01*
X119125000Y-126800000D02*
X118850000Y-126525000D01*
X116962500Y-127625000D02*
X117775000Y-127625000D01*
X117937500Y-127137500D02*
X117937500Y-127462500D01*
X154425000Y-121640000D02*
X151700000Y-118915000D01*
X152550000Y-112750000D02*
X152100000Y-112750000D01*
X151700000Y-112750000D02*
X151750000Y-112700000D01*
X119700000Y-126800000D02*
X119125000Y-126800000D01*
X119700000Y-126800000D02*
X121150000Y-126800000D01*
X121900000Y-127550000D02*
X121900000Y-129000000D01*
X153350000Y-109350000D02*
X153350000Y-111950000D01*
X118550000Y-126525000D02*
X117937500Y-127137500D01*
X118850000Y-126525000D02*
X118550000Y-126525000D01*
X153350000Y-111950000D02*
X152550000Y-112750000D01*
%TO.N,Net-(Q6-Pad3)*%
X149010000Y-108290000D02*
X149000000Y-108300000D01*
X149010000Y-107200000D02*
X149010000Y-108290000D01*
%TO.N,Net-(R32-Pad2)*%
X147990000Y-107200000D02*
X147990000Y-108090000D01*
X147000000Y-107190000D02*
X147990000Y-107190000D01*
X147990000Y-107190000D02*
X148000000Y-107200000D01*
X147990000Y-108090000D02*
X148000000Y-108100000D01*
%TO.N,/SDA*%
X110940000Y-111560000D02*
X110200000Y-112300000D01*
X109965011Y-116134989D02*
X109965011Y-116265011D01*
X109965011Y-116165011D02*
X110900000Y-117100000D01*
X109965011Y-116134989D02*
X109965011Y-116165011D01*
X109965011Y-115134989D02*
X109965011Y-116134989D01*
X109965011Y-112865011D02*
X109965011Y-113365011D01*
X109965011Y-112534989D02*
X110200000Y-112300000D01*
X110940000Y-104800000D02*
X110940000Y-111560000D01*
X109965011Y-116265011D02*
X110600000Y-116900000D01*
X109965011Y-115465011D02*
X109965011Y-116016511D01*
X109965011Y-113365011D02*
X109965011Y-115134989D01*
X109965011Y-113365011D02*
X109965011Y-112534989D01*
X110600000Y-122500000D02*
X110600000Y-123050000D01*
X109965011Y-115134989D02*
X109965011Y-115465011D01*
%TO.N,/GPIO*%
X116962500Y-125025000D02*
X117875000Y-125025000D01*
X118550000Y-124350000D02*
X118550000Y-124325000D01*
X117875000Y-125025000D02*
X118550000Y-124350000D01*
%TO.N,/SWDIO*%
X117625000Y-124375000D02*
X118300000Y-123700000D01*
X135900000Y-117525000D02*
X137625000Y-115800000D01*
X119000000Y-123700000D02*
X120600000Y-123700000D01*
X135905000Y-118665000D02*
X135905000Y-117530000D01*
X135905000Y-117530000D02*
X135900000Y-117525000D01*
X120600000Y-123700000D02*
X121100000Y-124200000D01*
X137625000Y-115800000D02*
X138000000Y-115800000D01*
X121100000Y-124200000D02*
X121100000Y-125000000D01*
X116962500Y-124375000D02*
X117625000Y-124375000D01*
X118300000Y-123700000D02*
X119000000Y-123700000D01*
%TO.N,/SWCLK*%
X120900000Y-123200000D02*
X121000000Y-123300000D01*
X117575000Y-123725000D02*
X118100000Y-123200000D01*
X118100000Y-123200000D02*
X120900000Y-123200000D01*
X137175000Y-117525000D02*
X138900000Y-115800000D01*
X137175000Y-118665000D02*
X137175000Y-117525000D01*
X138900000Y-115800000D02*
X139000000Y-115800000D01*
X116962500Y-123725000D02*
X117575000Y-123725000D01*
%TO.N,/SCL*%
X116962500Y-123075000D02*
X115100000Y-123075000D01*
D55*
%TO.N,/+SOLAR*%
X101700000Y-110400000D02*
X101700000Y-114500000D01*
D54*
X126056320Y-107681320D02*
X125700000Y-107325000D01*
X125608820Y-117581320D02*
X125608820Y-113708820D01*
D53*
X108800000Y-114190000D02*
X106785000Y-114190000D01*
D55*
X126056320Y-109656320D02*
X126056320Y-110393680D01*
D56*
X106500000Y-118975000D02*
X104425000Y-116900000D01*
X104425000Y-116900000D02*
X104100000Y-116900000D01*
X102300000Y-114300000D02*
X104100000Y-116100000D01*
D54*
X125700000Y-107325000D02*
X125125000Y-107325000D01*
D56*
X108450000Y-118975000D02*
X106500000Y-118975000D01*
D54*
X126062500Y-109675000D02*
X125137500Y-109675000D01*
D56*
X103400000Y-117000000D02*
X103900000Y-117000000D01*
X101750000Y-110400000D02*
X101750000Y-111200000D01*
D54*
X129300000Y-110900000D02*
X129900000Y-110300000D01*
D55*
X126056320Y-110393680D02*
X126050000Y-110400000D01*
D54*
X130750000Y-113225000D02*
X130750000Y-113275000D01*
X126062500Y-111150000D02*
X125137500Y-111150000D01*
D56*
X126281320Y-109431320D02*
X126056320Y-109656320D01*
D53*
X128631320Y-113381320D02*
X128650000Y-113400000D01*
D56*
X101100000Y-111800000D02*
X101100000Y-114700000D01*
X131681320Y-109431320D02*
X127881320Y-109431320D01*
D55*
X126056320Y-108081320D02*
X126056320Y-109656320D01*
D56*
X101100000Y-114700000D02*
X103400000Y-117000000D01*
X102300000Y-111800000D02*
X102300000Y-114300000D01*
D54*
X125608820Y-113708820D02*
X125600000Y-113700000D01*
D56*
X108837500Y-119600000D02*
X108837500Y-119362500D01*
D54*
X125131320Y-108081320D02*
X125125000Y-108075000D01*
D56*
X101750000Y-111200000D02*
X102350000Y-111800000D01*
D53*
X106785000Y-114190000D02*
X104075000Y-116900000D01*
D54*
X126056320Y-108081320D02*
X125131320Y-108081320D01*
X130750000Y-113325000D02*
X131175000Y-113750000D01*
D55*
X127881320Y-109431320D02*
X126281320Y-109431320D01*
D54*
X126062500Y-108775000D02*
X125137500Y-108775000D01*
D56*
X127881320Y-109431320D02*
X127850000Y-109400000D01*
X108837500Y-119362500D02*
X108450000Y-118975000D01*
X101750000Y-111200000D02*
X101150000Y-111800000D01*
D54*
X130750000Y-113225000D02*
X130750000Y-113325000D01*
X126062500Y-110375000D02*
X125137500Y-110375000D01*
D53*
X128650000Y-113400000D02*
X130550000Y-113400000D01*
D56*
X104100000Y-116100000D02*
X104300000Y-116100000D01*
D54*
X126056320Y-108081320D02*
X126056320Y-107681320D01*
D53*
X128168820Y-113381320D02*
X128631320Y-113381320D01*
D54*
X126056320Y-108081320D02*
X126056320Y-107756320D01*
X129175000Y-110900000D02*
X129300000Y-110900000D01*
D55*
X101700000Y-114500000D02*
X104100000Y-116900000D01*
D53*
X130550000Y-113400000D02*
X130750000Y-113200000D01*
D54*
%TO.N,+BATT*%
X155720000Y-123670000D02*
X155625000Y-123575000D01*
X132918820Y-113031180D02*
X132925000Y-113025000D01*
X155825000Y-123575000D02*
X155625000Y-123575000D01*
X134350000Y-124150000D02*
X134800000Y-124150000D01*
D56*
X154050000Y-113050000D02*
X153200000Y-113900000D01*
D54*
X132175000Y-113625000D02*
X132175000Y-113025000D01*
D56*
X153200000Y-113900000D02*
X152700000Y-114400000D01*
D54*
X132493820Y-113943820D02*
X132175000Y-113625000D01*
D56*
X154625000Y-113875000D02*
X155400000Y-113100000D01*
D54*
X155720000Y-124630000D02*
X155375000Y-124975000D01*
X130918820Y-115731320D02*
X130593680Y-115731320D01*
D56*
X153400000Y-114400000D02*
X153300000Y-114400000D01*
D54*
X132918820Y-113943820D02*
X132493820Y-113943820D01*
X132425000Y-115825000D02*
X132425000Y-116375000D01*
X155720000Y-123900000D02*
X155720000Y-123670000D01*
X132918820Y-113943820D02*
X133406180Y-113943820D01*
X134150000Y-124350000D02*
X134350000Y-124150000D01*
D56*
X155400000Y-113100000D02*
X155400000Y-112800000D01*
D54*
X155720000Y-123680000D02*
X156025000Y-123375000D01*
X155400000Y-123350000D02*
X156000000Y-123350000D01*
D56*
X153600000Y-115950000D02*
X154450000Y-116800000D01*
X132768680Y-115731320D02*
X132900000Y-115600000D01*
D54*
X131231320Y-115731320D02*
X131500000Y-116000000D01*
D56*
X155000000Y-112100000D02*
X155000000Y-112350000D01*
D54*
X156025000Y-123375000D02*
X155825000Y-123575000D01*
D53*
X151750000Y-107350000D02*
X151300000Y-107350000D01*
D54*
X132918820Y-113943820D02*
X132918820Y-113031180D01*
D53*
X152800000Y-106900000D02*
X152200000Y-106900000D01*
D54*
X130325000Y-116000000D02*
X130325000Y-116575000D01*
D53*
X155000000Y-110475000D02*
X155000000Y-111500000D01*
D56*
X153050000Y-115400000D02*
X153050000Y-115000000D01*
D54*
X156000000Y-123350000D02*
X156025000Y-123375000D01*
D56*
X154625000Y-113875000D02*
X154150000Y-114350000D01*
X155000000Y-112350000D02*
X155000000Y-112400000D01*
D54*
X134150000Y-124737500D02*
X134812500Y-124737500D01*
X134150000Y-125200000D02*
X134300000Y-125350000D01*
X155720000Y-123900000D02*
X155720000Y-123680000D01*
D56*
X155000000Y-113500000D02*
X154625000Y-113875000D01*
X155000000Y-112100000D02*
X155000000Y-113500000D01*
D54*
X155720000Y-123900000D02*
X155720000Y-124630000D01*
X133306320Y-115531320D02*
X133600000Y-115825000D01*
D56*
X155000000Y-112400000D02*
X155650000Y-113050000D01*
X153600000Y-115950000D02*
X153050000Y-115400000D01*
D53*
X131856180Y-113943820D02*
X131350000Y-114450000D01*
X134010000Y-121400000D02*
X134010000Y-124660000D01*
D54*
X155625000Y-123575000D02*
X155400000Y-123350000D01*
D53*
X134010000Y-124660000D02*
X134100000Y-124750000D01*
D54*
X134150000Y-124737500D02*
X134150000Y-125200000D01*
D56*
X155000000Y-112800000D02*
X153400000Y-114400000D01*
X152700000Y-114400000D02*
X152700000Y-115050000D01*
D54*
X133650000Y-113700000D02*
X133650000Y-113025000D01*
D53*
X151337500Y-107350000D02*
X151337500Y-108012500D01*
D54*
X132918820Y-113943820D02*
X133281180Y-113943820D01*
D56*
X155000000Y-112100000D02*
X155000000Y-112800000D01*
D54*
X134300000Y-125350000D02*
X134825000Y-125350000D01*
D56*
X154000000Y-116350000D02*
X153600000Y-115950000D01*
D54*
X130593680Y-115731320D02*
X130325000Y-116000000D01*
X132718680Y-115531320D02*
X132425000Y-115825000D01*
D56*
X155000000Y-112100000D02*
X154050000Y-113050000D01*
D53*
X132918820Y-113943820D02*
X131856180Y-113943820D01*
D54*
X130918820Y-115731320D02*
X131231320Y-115731320D01*
X133600000Y-115825000D02*
X133600000Y-116375000D01*
D53*
X151337500Y-108012500D02*
X151350000Y-108025000D01*
D56*
X132918820Y-115518820D02*
X132950000Y-115550000D01*
X154150000Y-114350000D02*
X153550000Y-114950000D01*
X130918820Y-115731320D02*
X132768680Y-115731320D01*
X132918820Y-113943820D02*
X132918820Y-115518820D01*
D54*
X131143680Y-115731320D02*
X131950000Y-114925000D01*
X133406180Y-113943820D02*
X133650000Y-113700000D01*
X133018820Y-115531320D02*
X133306320Y-115531320D01*
X134812500Y-124737500D02*
X134825000Y-124750000D01*
X131500000Y-116000000D02*
X131500000Y-116575000D01*
X130918820Y-115731320D02*
X131143680Y-115731320D01*
X133018820Y-115531320D02*
X132718680Y-115531320D01*
D53*
X152200000Y-106900000D02*
X151750000Y-107350000D01*
D54*
X134150000Y-124737500D02*
X134150000Y-124350000D01*
D56*
%TO.N,Net-(C26-Pad1)*%
X114400000Y-118975000D02*
X111925000Y-118975000D01*
X111762500Y-119287500D02*
X112075000Y-118975000D01*
X111762500Y-119600000D02*
X111762500Y-119287500D01*
X115700000Y-117675000D02*
X114400000Y-118975000D01*
X115700000Y-116932500D02*
X115700000Y-117675000D01*
D55*
%TO.N,Net-(D1-Pad1)*%
X140775000Y-108800000D02*
X140775000Y-113625000D01*
X140456320Y-108481320D02*
X140775000Y-108800000D01*
X140018820Y-108481320D02*
X144656320Y-108481320D01*
X140018820Y-108481320D02*
X140456320Y-108481320D01*
X140775000Y-113625000D02*
X140850000Y-113700000D01*
X144656320Y-108481320D02*
X144675000Y-108500000D01*
D53*
%TO.N,/rpi_on_rpi*%
X135950000Y-128037500D02*
X135950000Y-127650000D01*
X139125000Y-125350000D02*
X139125000Y-121575000D01*
X135750000Y-128237500D02*
X135850000Y-128137500D01*
X136825000Y-127650000D02*
X139125000Y-125350000D01*
X135950000Y-127650000D02*
X136775000Y-127650000D01*
X135850000Y-128137500D02*
X135950000Y-128037500D01*
X136775000Y-127650000D02*
X136825000Y-127650000D01*
%TO.N,/rpi_on_stm*%
X118650000Y-126025000D02*
X119175000Y-125500000D01*
X119175000Y-125500000D02*
X124625000Y-125500000D01*
X116962500Y-126975000D02*
X117700000Y-126975000D01*
X137650000Y-128237500D02*
X136962500Y-128237500D01*
X124625000Y-125500000D02*
X125150000Y-126025000D01*
X136962500Y-128237500D02*
X136725000Y-128475000D01*
X141710000Y-119425000D02*
X141710000Y-123790000D01*
X125150000Y-128250000D02*
X125375000Y-128475000D01*
X125150000Y-126025000D02*
X125150000Y-128250000D01*
X117700000Y-126975000D02*
X118650000Y-126025000D01*
X141710000Y-123790000D02*
X137700000Y-127800000D01*
%TO.N,Net-(D3-Pad3)*%
X135650000Y-124325000D02*
X136225000Y-124900000D01*
X136700000Y-125475000D02*
X136225000Y-125000000D01*
X136700000Y-126362500D02*
X136700000Y-125475000D01*
X135650000Y-123437500D02*
X135650000Y-124325000D01*
%TO.N,Net-(D5-Pad2)*%
X122690000Y-120490000D02*
X123300000Y-121100000D01*
X122100000Y-120490000D02*
X122690000Y-120490000D01*
D55*
%TO.N,Net-(BT1-Pad1)*%
X160150000Y-113550000D02*
X159050000Y-114650000D01*
X160900000Y-113550000D02*
X160900000Y-114550000D01*
X159050000Y-114650000D02*
X156050000Y-114650000D01*
X159425000Y-115025000D02*
X160900000Y-113550000D01*
X160900000Y-114550000D02*
X160050000Y-115400000D01*
X155850000Y-115025000D02*
X159425000Y-115025000D01*
X160050000Y-115400000D02*
X156000000Y-115400000D01*
X160900000Y-113550000D02*
X160150000Y-113550000D01*
D53*
%TO.N,/TX*%
X118560000Y-102260000D02*
X119825000Y-103525000D01*
X119825000Y-103525000D02*
X121400000Y-103525000D01*
X121400000Y-103525000D02*
X150300000Y-103525000D01*
%TO.N,Net-(Q3-Pad3)*%
X134325000Y-120750000D02*
X132664769Y-120750000D01*
X136600000Y-121562500D02*
X135137500Y-121562500D01*
X132664769Y-120750000D02*
X132025000Y-121389769D01*
X135137500Y-121562500D02*
X134325000Y-120750000D01*
%TO.N,Net-(Q4-Pad1)*%
X132990000Y-121400000D02*
X132990000Y-121460000D01*
X132025000Y-124575000D02*
X132050000Y-124600000D01*
X132990000Y-121460000D02*
X132100000Y-122350000D01*
X132025000Y-122409769D02*
X132025000Y-124575000D01*
%TO.N,Net-(Q5-Pad3)*%
X150262500Y-109887500D02*
X150800000Y-109350000D01*
X152800000Y-107920000D02*
X151900000Y-108820000D01*
X151900000Y-108820000D02*
X151900000Y-109250000D01*
X150262500Y-111800000D02*
X150262500Y-109887500D01*
%TO.N,Net-(R10-Pad1)*%
X121125000Y-120300000D02*
X118075000Y-120300000D01*
X126400000Y-123110000D02*
X125210000Y-123110000D01*
X115535000Y-121435000D02*
X115525000Y-121425000D01*
X126400000Y-123110000D02*
X126400000Y-124000000D01*
X115535000Y-122000000D02*
X115535000Y-121435000D01*
X125210000Y-123110000D02*
X125200000Y-123100000D01*
%TD*%
M02*
